<?xml version="1.0" encoding="utf-8"?>
<!-- Generator: Adobe Illustrator 15.1.0, SVG Export Plug-In . SVG Version: 6.00 Build 0)  -->
<!DOCTYPE svg PUBLIC "-//W3C//DTD SVG 1.1//EN" "http://www.w3.org/Graphics/SVG/1.1/DTD/svg11.dtd">
<svg version="1.1" xmlns="http://www.w3.org/2000/svg" xmlns:xlink="http://www.w3.org/1999/xlink" x="0px" y="0px"
	 width="433.467px" height="216.354px" viewBox="0 0 433.467 216.354" enable-background="new 0 0 433.467 216.354"
	 xml:space="preserve">
<g id="Layer_2">
	<path fill-rule="evenodd" clip-rule="evenodd" fill="#A1A09B" d="M366.227,12.189c7.486,0,17.871,3.632,20,5
		c14.009,9-96,118-96,118L167.223,45.205L366.227,12.189"/>
</g>
<g id="Layer_1">
	<g>
		<path fill-rule="evenodd" clip-rule="evenodd" fill="#58554A" d="M359.227,12.189c4.517,0.234-2.151,3.766-4,4
			C352.374,14.542,358.959,14.017,359.227,12.189z"/>
		<path fill-rule="evenodd" clip-rule="evenodd" fill="#A1A09B" d="M140.227,38.189c-1.596,4.926-7.929,8.898-13,13
			c-4.76,3.85-9.923,10.978-18,10C117.678,51.641,129.807,45.77,140.227,38.189z"/>
		<path fill-rule="evenodd" clip-rule="evenodd" fill="#952921" d="M241.227,48.189c1.667,0,3.333,0,5,0
			c-2.262,6.071-6.684,9.983-10,15c-0.013,1.987-2.729,1.271-2,4c-1.278,0.055-1.385,1.282-3,1c0-1.667,0-3.333,0-5
			c-0.003-1.003,0.81-1.19,1-2c0.309-2.358,3.473-1.86,3-5c1.44-0.56,2.44-1.56,3-3c0.055-1.278,1.282-1.385,1-3
			C240.349,49.978,240.784,49.08,241.227,48.189z"/>
		<path fill-rule="evenodd" clip-rule="evenodd" fill="#A1A09B" d="M89.227,80.189c0,0.667,0,1.333,0,2c-0.333,0-0.667,0-1,0
			c-4.071,1.929-5.106,6.894-10,8c2.873,2.155,7.655-2.307,10-4c0.691,5.313-11.386,10.992-17,10c2.844-8.163,13.809-13.515,18-17
			C89.227,79.523,89.227,79.856,89.227,80.189z"/>
		<path fill-rule="evenodd" clip-rule="evenodd" fill="#58554A" d="M296.227,91.189c-1.723,0.944-1.637,3.696-5,3
			c-3.064-1.554,2.54-2.678,2-5C294.803,89.28,294.01,91.74,296.227,91.189z"/>
		<path fill-rule="evenodd" clip-rule="evenodd" fill="#FFFFFF" d="M132.227,102.189c-2,0-4,0-6,0
			C126.425,100.702,132.769,98.177,132.227,102.189z"/>
		<path fill-rule="evenodd" clip-rule="evenodd" fill="#1B1915" d="M104.227,107.189c-2.465-0.132-4.818-0.151-6,1
			c0.919-3.414,5.568-3.099,9-4C108.782,107.744,103.831,104.793,104.227,107.189z"/>
		<path fill-rule="evenodd" clip-rule="evenodd" fill="#58554A" d="M407.227,104.189c0.427,4.573,1.521,8.479,1,14
			c-0.486-2.604-5.175-6.743-1-8c-0.294-2.378-2.706,1.111-3,2C402.062,110.28,407.153,107.173,407.227,104.189z"/>
		<path fill-rule="evenodd" clip-rule="evenodd" fill="#FFFFFF" d="M119.227,111.189c-0.186-1.48-2.417-0.917-4-1
			c0.036-3.298,2.844-3.823,6-4c0.319,2.319-0.161,3.839-1,5C119.894,111.189,119.561,111.189,119.227,111.189z"/>
		<path fill-rule="evenodd" clip-rule="evenodd" fill="#A1A09B" d="M113.227,107.189c3.244-0.23-0.717,5.734,6,4
			c0.333,0,0.667,0,1,0c0,0.333,0,0.667,0,1c-0.667,0-1.333,0-2,0c-2.319,0.319-3.839-0.161-5-1
			C113.227,109.856,113.227,108.522,113.227,107.189z"/>
		<path fill-rule="evenodd" clip-rule="evenodd" fill="#A1A09B" d="M99.227,114.189c-2.731-2.762,1.464-0.938,2-3
			c8.557,2.145,5.836,0.936-1,3C99.894,114.189,99.561,114.189,99.227,114.189z"/>
		<path fill-rule="evenodd" clip-rule="evenodd" fill="#58554A" d="M422.227,113.189c0-0.333,0-0.667,0-1
			c1.342,0.658,1.862,2.138,2,4c-1.122,0.211-1.557,1.109-2,2C419.296,117.343,422.825,114.97,422.227,113.189z"/>
		<path fill-rule="evenodd" clip-rule="evenodd" fill="#58554A" d="M432.227,117.189c1.653,0.76,1.653,8.24,0,9
			C430.983,125.839,433.051,120.426,432.227,117.189z"/>
		<path fill-rule="evenodd" clip-rule="evenodd" fill="#D2D2CD" d="M360.227,126.189c0,3,0,6,0,9c-1.003,0.003-1.19-0.81-2-1
			c0-2.333,0-4.667,0-7C359.23,127.192,359.417,126.38,360.227,126.189z"/>
		<path fill-rule="evenodd" clip-rule="evenodd" fill="#952921" d="M406.227,126.189c3.18,0.292,2.001,5.288,0,6
			c-0.333,0-0.667,0-1,0C404.033,129.205,404.952,128.789,406.227,126.189z"/>
		<path fill-rule="evenodd" clip-rule="evenodd" fill="#1B1915" d="M154.227,145.189c-7.886-6.378,8.823-10.582,11-13
			c2.889,0.444-0.889,7.556,2,8c0,0.333,0,0.667,0,1c-0.785,9.855,2.136,12.205,0,19c-0.667,0-1.333,0-2,0
			c-0.171-2.829,0.86-6.86-2-7C159.624,151.126,157.831,147.253,154.227,145.189z"/>
		<path fill-rule="evenodd" clip-rule="evenodd" fill="#58554A" d="M170.227,136.189c0-0.667,0-1.333,0-2c0.667,0,1.333,0,2,0
			c0,1,0,2,0,3c-2.208,0.125-0.425,4.242-1,6c-0.333,0-0.667,0-1,0C170.227,140.856,170.227,138.522,170.227,136.189z"/>
		<path fill-rule="evenodd" clip-rule="evenodd" fill="#1B1915" d="M407.227,138.189c-0.485-1.182-1.066-2.267-2-3
			c0.221-0.779,0.837-1.163,2-1c1.165,0.168,1.086,1.581,1,3c0.776-0.224,1.973-0.027,2-1c1.321,0.012,0.914,1.753,2,2
			C411.379,141.12,409.007,137.592,407.227,138.189z"/>
		<path fill-rule="evenodd" clip-rule="evenodd" fill="#1B1915" d="M172.227,137.189c-0.642,4.024,1.3,10.634-1,13
			c0-2.333,0-4.667,0-7C171.802,141.432,170.019,137.314,172.227,137.189z"/>
		<path fill-rule="evenodd" clip-rule="evenodd" fill="#A1A09B" d="M358.227,139.189c0,1.333,0,2.667,0,4
			c-2.465,0.132-4.818,0.151-6-1c-0.175-2.841,6.542,1.209,5-3C357.56,139.189,357.894,139.189,358.227,139.189z"/>
		<path fill-rule="evenodd" clip-rule="evenodd" fill="#1B1915" d="M179.227,141.189c2.454-2.878,3.063,4.361,2,5
			c-1.177-0.156-2.838,0.172-3-1C178.542,143.837,179.65,143.279,179.227,141.189z"/>
		<path fill-rule="evenodd" clip-rule="evenodd" fill="#A1A09B" d="M361.227,149.189c0.313-4.755,4.531,0.6,8-1
			c-0.431,2.236-4.929,0.405-7,1C361.894,149.189,361.56,149.189,361.227,149.189z"/>
		<path fill-rule="evenodd" clip-rule="evenodd" fill="#1B1915" d="M144.227,151.189c4.045-2.706-0.076,4.571,0,7
			c-3.506-0.271,1.807-4.428-1-4C143.282,152.911,144.509,152.805,144.227,151.189z"/>
		<path fill-rule="evenodd" clip-rule="evenodd" fill="#58554A" d="M178.227,152.189c0.057,0.61,0.149,1.184,1,1
			c0,0.333,0,0.667,0,1c-0.075,1.742,0.223,3.11,1,4c-3.582,0.582-3.041-2.96-3-6C177.561,152.189,177.894,152.189,178.227,152.189z
			"/>
		<path fill-rule="evenodd" clip-rule="evenodd" fill="#952921" d="M165.227,167.189c1.025-2.309,1.345-5.322,5-5
			c1.378,1.289,0.99,4.344,1,7c-0.776,0.224-1.973,0.027-2,1c-0.667,0-1.333,0-2,0c-0.211-1.122-1.11-1.557-2-2
			C165.227,167.856,165.227,167.522,165.227,167.189z"/>
		<path fill-rule="evenodd" clip-rule="evenodd" fill="#1B1915" d="M174.227,167.189c1.289-1.378,4.344-0.989,7-1c0,1,0,2,0,3
			c-0.521,1.479-1.479,2.521-2,4c-1.376,0.043-2.196-0.471-3-1C175.801,170.282,173.37,170.38,174.227,167.189z"/>
		<path fill-rule="evenodd" clip-rule="evenodd" fill="#58554A" d="M368.227,167.189c0-0.333,0-0.667,0-1c4,0,8,0,12,0
			c0,0.333,0,0.667,0,1C376.227,167.189,372.227,167.189,368.227,167.189z"/>
		<path fill-rule="evenodd" clip-rule="evenodd" fill="#A1A09B" d="M380.227,167.189c0-0.333,0-0.667,0-1c3.333,0,6.667,0,10,0
			C388.84,168.47,383.266,166.563,380.227,167.189z"/>
		<path fill-rule="evenodd" clip-rule="evenodd" fill="#D2D2CD" d="M380.227,167.189c-1.13,2.058-17.231,1.098-12,0
			C372.227,167.189,376.227,167.189,380.227,167.189z"/>
		<path fill-rule="evenodd" clip-rule="evenodd" fill="#58554A" d="M168.227,181.189c0,0.333,0,0.667,0,1
			c-0.335,4.331,1.142,10.476-2,12c0-1,0-2,0-3c1.633,0.45,1.633-5.45,0-5c0.839-1.161,1.319-2.681,1-5
			C167.561,181.189,167.894,181.189,168.227,181.189z"/>
		<path fill-rule="evenodd" clip-rule="evenodd" fill="#58554A" d="M132.227,215.189c2.367-2.3,8.975-0.358,13-1
			C142.86,216.489,136.252,214.548,132.227,215.189z"/>
		<path fill-rule="evenodd" clip-rule="evenodd" fill="#58554A" d="M119.227,216.189c-5.68-0.653-13.982,1.315-18-1c6,0,12,0,18,0
			C119.227,215.522,119.227,215.856,119.227,216.189z"/>
		<path fill-rule="evenodd" clip-rule="evenodd" fill="#A1A09B" d="M119.227,216.189c0-0.333,0-0.667,0-1c4.333,0,8.667,0,13,0
			C129.86,217.489,123.252,215.548,119.227,216.189z"/>
		<path fill-rule="evenodd" clip-rule="evenodd" fill="#58554A" d="M278.227,103.189c-0.431,2.236-4.929,0.405-7,1
			c2.909,4.863,8.143,11.248,8,16c3.74-4.408,0.971,1.893,5-1c-0.438,2.323-4.416,2.677-2,5c2.071-0.595,6.569,1.236,7-1
			c2.667,0,5.333,0,8,0c4.758,2.654,1.143,1.598-3,1c-0.816,1.473-3.08,6.684-8,7c-1.266,9.067-8.879,11.787-13,18
			c1.5,1.167,2.445,2.889,5,3c1.373,2.279-2.578,3.759,0,4c-2.729,0.563-7.414-1.918-9,3c-1.125-0.903,0.063-2.237-2-4
			c0.036,1.708-1.052,5.582-3,8c2.653-0.47,3.896-4.986,7-2c-5.782,2.075-8.011,4.673-14,3c4.098,3.974-26.082,9.587-31,1
			c0.58-3.246-0.681-4.652-1-7c-3.379,5.349-3.652-2.74-6,3c-0.88-15.12-4.926-27.074-8-40c1,0,2,0,3,0c1.191-2.638-4.808-2.579,0-3
			c-1.563-3.104-4.087-5.246-6-8c-3.467,5.191-1.083-0.669-6,4c1.474-2.525,3.533-4.467,4-8c1.716-2.284,2.948-5.052,5-7
			c0.12,7.093,6.528,1.71,8-1c2.833-0.167,4.167-1.833,7-2c1.419-0.086,2.832-0.165,3,1c2.486-0.962,2.319-4.835,1-8
			C243.19,96.894,256.006,104.743,278.227,103.189z M270.227,155.189c0.294-3.484,2.706,0.084,3-2c-2.976-2.774,3.28,1.735,3-1
			c-1.273-0.203-4.898-2.907-5-1C274.475,151.709,265.936,153.627,270.227,155.189z M255.227,161.189c2.551-0.116,5.146-0.188,5-3
			C257.364,157.992,254.769,158.065,255.227,161.189z M241.227,165.189c2.93-0.07,5.638-0.362,5-4
			C243.792,161.754,241.083,162.046,241.227,165.189z"/>
		<path fill-rule="evenodd" clip-rule="evenodd" fill="#58554A" d="M318.227,70.189c13.998-19.335,22.925-43.742,44-56
			c-8.543,11.791-17.072,23.595-20,41c-5.677,2.741-14.917,11.177-19,9C322.137,66.766,320.7,68.996,318.227,70.189z"/>
		<path fill-rule="evenodd" clip-rule="evenodd" fill="#D2D2CD" d="M149.227,26.189c4.205-7.248,13.9-8.125,20-10
			c-0.667,0-1.333,0-2,0c-0.675,3.797,10.158-4.551,16-4c-0.012,1.322-1.753,0.914-2,2c-12.616,5.384-25.12,10.88-36,18
			c-2.447-1.242,2.997-2.908,3-5C149.078,27.373,149.17,26.799,149.227,26.189z"/>
		<path fill-rule="evenodd" clip-rule="evenodd" fill="#58554A" d="M137.227,83.189c36.638-19.695,58.586-54.082,100-69
			c-11.331,7.079-26.432,16.154-39,25c-11.601,8.165-28.603,19.023-26,36c0.92,1.747,3.126,2.207,6,2c0.168,2.168-3.547,0.453-5,1
			c3.779,2.221,4.457,7.543,5,13c-3.252,3.747-7.91,2.699-16,3c-1.63,1.703-1.65,5.017-4,6c3.695,2.971,14.305-0.971,18,2
			c-1.419-0.086-2.832-0.165-3,1c-3.667,0-7.333,0-11,0c-7.256-2.572-15.547,2.439-23,3c1.972-2.442,8.882-3.878,6-8
			c-1.064-2.27-6.286-0.381-9-1c-0.168-2.169,3.547-0.453,5-1c-0.845-2.154-4.387-1.613-6-3c0.531-4.173,3.065-10.421,7-8
			C140.941,82.6,140.159,82.047,137.227,83.189z"/>
		<path fill-rule="evenodd" clip-rule="evenodd" fill="#58554A" d="M78.227,84.189c3.19-6.81,12.95-7.05,17-13
			c-2.269,2.731-4.229,5.771-6,9c0-0.333,0-0.667,0-1c-4.191,3.485-15.156,8.837-18,17c5.614,0.992,17.691-4.688,17-10
			c0-1.333,0-2.667,0-4c0.333,0,0.667,0,1,0c-1.835,10.957,11.28,11.887,19,10c-1.317,3.016-3.23,5.437-3,10
			c8.113,2.76,18.169-6.478,27-3c-8.339,1.661-18.071,1.93-24,6c-0.701,3.462,3.506,3.587,5,2c0,1.333,0,2.667,0,4
			c1.161,0.839,2.681,1.319,5,1c-4.968,1.699-11.245,2.089-18,2c6.836-2.064,9.557-0.855,1-3c-0.536,2.062-4.731,0.238-2,3
			c-1,0-2,0-3,0c-0.282-1.615,0.945-1.722,1-3c4.225,0.225,6.458-1.542,10-2c-0.226-1.44-2.984-0.349-3-2
			c-0.396-2.396,4.555,0.555,3-3c-3.432,0.901-8.081,0.586-9,4c0.396,2.396-4.555-0.555-3,3c-15.598,2.519-34.583-6.949-23-19
			c-2.429-0.396-7.196,5.446-10,8c-2.709-0.903,2.286-2.237,2-4c-3.785,1.824-10.307,5.313-7,11c3.438-1.41-0.618-6.513,3-6
			c-4.174,18.298,15.033,20.637,33,20c-0.226,1.44-2.984,0.349-3,2c3.867,2.164,13.201,1.229,14-3c10.405-3.596,19.625-8.375,31-11
			c-16.848,16.605-45.517,29.219-77,36c-5.591,1.204-11.066-2.457-15-5c-2.275,0.725-0.298,5.702-4,5c0-2.667,0-5.333,0-8
			c-4.775-0.774,0.247,8.247-3,9c0-2.333,0-4.667,0-7c-1.885,4.115-7.198,4.802-6,12c0.184,0.851-0.39,0.943-1,1
			c0.633-3.367-1.289-9.288,1-11c2.196-7.213,9.766-9.489,6-20c-2.396-0.396,0.555,4.555-3,3c1.033-5.634,4.48-8.854,6-14
			c1.471,3.174-3.18,8.793-2,15c5.482-11.396,12.447-23.633,18-32c5.626-1.707,9.748-4.919,16-6c2.558-0.044,1.219,0.743,1,2
			C73.609,90.828,76.845,85.865,78.227,84.189z"/>
		<path fill-rule="evenodd" clip-rule="evenodd" fill="#58554A" d="M137.227,37.189c3.729-3.937,6.607-8.727,12-11
			c-0.057,0.61-0.149,1.184-1,1C142.54,32.12,143.708,32.658,137.227,37.189z"/>
		<path fill-rule="evenodd" clip-rule="evenodd" fill="#1B1915" d="M137.227,37.189c6.481-4.531,5.313-5.069,11-10
			c-0.003,2.092-5.447,3.758-3,5c10.88-7.12,23.384-12.616,36-18c29.949-11.904,70.658-16.616,113-13c-0.76,2.907-8.241-0.907-9,2
			c-18.189,1.477-34.438,4.896-48,11c-41.414,14.918-63.362,49.305-100,69c-9.455,3.211-17.983,7.35-29,9
			c-7.72,1.887-20.835,0.957-19-10c0-0.667,0-1.333,0-2c1.771-3.229,3.731-6.269,6-9c10.446-13.888,25.324-23.342,40-33
			C136.23,38.193,136.417,37.379,137.227,37.189z M134.227,64.189c0,0.333,0,0.667,0,1c4.564-0.564,6.228,1.772,11,1
			c17.022-21.409,44.711-34.871,66-49c-1.177-0.157-2.838,0.172-3-1c9.846-4.702,24.604-6.807,31-12
			c-17.489-1.446-35.525,5.109-49,11c-2.488-0.154-3.096,1.571-5,2c-4.165,1.501-8.496,2.837-11,6c-2.488-0.154-3.096,1.571-5,2
			c-2.514-3.295,2.508,0.197,3-4c-22.269,10.122-49.007,23.631-66,40c-6.149,5.923-17.299,15.241-14,26
			c3.304-12.363,12.72-18.614,22-25c18.649-1.713,23.535-22.425,38-25c-3.407,4.926-8.593,8.074-12,13
			c-3.619,4.714-8.397,8.27-11,14C130.894,64.189,132.561,64.189,134.227,64.189z"/>
		<path fill-rule="evenodd" clip-rule="evenodd" fill="#58554A" d="M294.227,1.189c14.737,2.263,31.413,2.587,45,6
			c-1.862,0.138-3.342,0.658-4,2c2.714,0.619,7.937-1.27,9,1c-20.788-1.482-40.947-2.884-58,3c2.327-1.673,5.388-2.612,9-3
			c-6.81-1.046-2.433-7.75-10-7C285.986,0.282,293.467,4.097,294.227,1.189z"/>
		<path fill-rule="evenodd" clip-rule="evenodd" fill="#58554A" d="M134.227,64.189c21.132-17.868,44.779-33.221,66-51
			c-2.232-2.166-6.878,1.739-10,2c13.475-5.891,31.511-12.446,49-11c-6.396,5.193-21.154,7.298-31,12c0.162,1.172,1.823,0.843,3,1
			c-21.289,14.129-48.978,27.591-66,49c-4.772,0.772-6.436-1.564-11-1C134.227,64.856,134.227,64.523,134.227,64.189z"/>
		<path fill-rule="evenodd" clip-rule="evenodd" fill="#58554A" d="M174.227,23.189c2.504-3.163,6.835-4.499,11-6
			C182.249,19.878,177.767,21.063,174.227,23.189z"/>
		<path fill-rule="evenodd" clip-rule="evenodd" fill="#58554A" d="M140.227,50.189c3.407-4.926,8.593-8.074,12-13
			c-14.465,2.575-19.351,23.287-38,25c-9.28,6.386-18.696,12.637-22,25c-3.299-10.759,7.851-20.077,14-26
			c16.993-16.369,43.731-29.878,66-40c-0.492,4.197-5.514,0.705-3,4c-0.703,2.964-5.748,1.585-6,5c-0.333,0-0.667,0-1,0
			c0.19-0.81,1.003-0.997,1-2c-4.936,0.674-7.562,8.059-12,6c0.86,0.807,0.594,2.739,2,3
			C149.312,41.941,144.978,46.274,140.227,50.189z M109.227,61.189c8.077,0.978,13.24-6.15,18-10c5.071-4.102,11.404-8.074,13-13
			C129.807,45.77,117.678,51.641,109.227,61.189z"/>
		<path fill-rule="evenodd" clip-rule="evenodd" fill="#A1A09B" d="M190.227,15.189c3.122-0.261,7.768-4.166,10-2
			c-21.221,17.779-44.868,33.132-66,51c-1.667,0-3.333,0-5,0c2.603-5.73,7.381-9.286,11-14c4.751-3.916,9.084-8.249,13-13
			c3.734-1.599,4.445-6.221,9-7c-0.677,2.323-3.323,2.677-4,5c8.696,1.381,10.529-9.375,20-12c-4.036-0.68-10.096,5.22-15,7
			c0.252-3.415,5.297-2.036,6-5c1.904-0.429,2.512-2.154,5-2c3.54-2.126,8.021-3.312,11-6
			C187.131,16.76,187.739,15.035,190.227,15.189z M135.227,59.189c2.29-4.063,9.15-8.825,9-12
			C141.787,51.102,134.807,55.744,135.227,59.189z M147.227,45.189c3.333-2,5.276-5.391,9-7c-5.678,5.606,4.656,0.016,2-2
			c-0.41,1.705-1.29-0.21-3,0C153.571,39.142,145.644,45.563,147.227,45.189z"/>
		<path fill-rule="evenodd" clip-rule="evenodd" fill="#D2D2CD" d="M206.227,67.189c-5.389,3.945-13.122,5.544-17,11
			c-6.442-1.519-0.634-17.809,3-23c11.838-16.912,58.095-35.487,74-33c-4.381,3.619-8.983,7.017-13,11
			c-14.674,6.659-34.143,8.524-43,21c0.294,2.039,2.706,1.961,3,4c-1.313-0.354-1.573-1.761-3-2c-2.957,0.873,3.023,0.794,1,4
			c-5.133-0.519-4.647,5.399-11,8C200.805,70.277,204.003,66.748,206.227,67.189z"/>
		<path fill-rule="evenodd" clip-rule="evenodd" fill="#A1A09B" d="M206.227,67.189c5.66,0.327,7.73-2.936,13-3
			c0.88-3.213-3.296-1.37-3-4c4.392,1.941,7.171,5.496,10,9c-0.529,0.804-1.043,1.624-1,3c-4.998,5.002-8.621,11.379-13,17
			c-1.714,1.286-3.932,2.068-4,5c-1.926-2.204-6.249-5.774-10-3c-1.755-5.245-6.954-7.046-10-11c-1.04,3.41,5.512,13.118,6,15
			c0.309,2.114,3.473-1.051,3-3c0.333,0,0.667,0,1,0c-1.66,8.006-12.418,6.916-19,10c-1,0-2,0-3,0c-3.695-2.971-14.305,0.971-18-2
			c2.35-0.983,2.37-4.297,4-6c8.09-0.301,12.748,0.747,16-3c-0.543-5.457-1.221-10.779-5-13c1.453-0.547,5.168,1.168,5-1
			c-2.874,0.207-5.08-0.253-6-2c-2.603-16.977,14.399-27.835,26-36c12.568-8.846,27.669-17.921,39-25
			c13.562-6.104,29.811-9.523,48-11c7.567-0.75,3.19,5.954,10,7c-3.612,0.388-6.673,1.327-9,3c-7.172,2.495-13.521,5.812-20,9
			c-15.905-2.487-62.162,16.088-74,33c-3.634,5.191-9.442,21.481-3,23C193.105,72.734,200.838,71.134,206.227,67.189z"/>
		<path fill-rule="evenodd" clip-rule="evenodd" fill="#58554A" d="M198.227,91.189c3.751-2.774,8.074,0.796,10,3
			c0.068-2.932,2.286-3.714,4-5c-3.615,4.719-6.972,9.695-10,15c-2.471,0.862-2.959,3.707-5,5c-5.576-2.757-12.001-4.665-18-7
			c6.582-3.084,17.34-1.994,19-10C198.227,91.856,198.227,91.523,198.227,91.189z"/>
		<path fill-rule="evenodd" clip-rule="evenodd" fill="#D2D2CD" d="M198.227,91.189c0,0.333,0,0.667,0,1c-0.333,0-0.667,0-1,0
			c0.473,1.949-2.691,5.114-3,3c-0.488-1.882-7.04-11.59-6-15C191.273,84.143,196.472,85.944,198.227,91.189z"/>
		<path fill-rule="evenodd" clip-rule="evenodd" fill="#952921" d="M344.227,10.189c7.589,0.411,15.561,0.439,22,2
			c-1.862,0.138-3.342,0.658-4,2c-21.075,12.258-30.002,36.665-44,56c-10.234,14.099-19.439,29.228-40,33
			c-22.221,1.554-35.037-6.296-48-14c-2.409,0.409-2.174-1.826-5-1c-5.225-0.225-7.561,2.439-10,5c-1.73,1.603-2.929,3.737-4,6
			c-2.052,1.948-3.284,4.716-5,7c-0.89-0.443-1.789-0.878-2-2c-0.667,0-1.333,0-2,0c3.028-5.305,6.385-10.281,10-15
			c4.379-5.621,8.002-11.998,13-17c0.288,4.538,1.467,5.99-1,9c13.379,7.288,24.854,16.479,44,18c7.482,2.799,17.6-0.388,22-4
			c0.851,0.184,0.943-0.39,1-1c3.363,0.696,3.277-2.056,5-3c23.982-20.685,35.482-53.851,59-75c1.849-0.234,8.517-3.766,4-4
			c-42.154-3.327-83.389-0.204-102,23c-1.163-0.163-1.779,0.221-2,1c-1.333,0-2.667,0-4,0c0.354-1.313,1.761-1.573,2-3
			c4.017-3.983,8.619-7.381,13-11c6.479-3.188,12.828-6.505,20-9C303.28,7.305,323.439,8.707,344.227,10.189z"/>
		<path fill-rule="evenodd" clip-rule="evenodd" fill="#A1A09B" d="M210.227,54.189c8.857-12.476,28.326-14.341,43-21
			c-0.239,1.427-1.646,1.687-2,3c1.333,0,2.667,0,4,0c2.667,0,5.333,0,8,0c0.178,3.511-3.378,3.289-4,6
			c-4.465,2.535-9.417,4.583-17,4c-8.176-0.176-15.606,0.394-21,3c-1.454-0.443,0.102-0.878,0-2
			C216.177,48.14,214.103,52.065,210.227,54.189z M262.227,37.189c-3.931,0.069-7.517,0.484-10,2c4.311-0.25-0.661,1.883-1,3
			c-1.182-0.144-2.267-1.781-3,0c4.395,1.666-7.395,0.334-3,2C252.8,43.762,258.674,41.637,262.227,37.189z"/>
		<path fill-rule="evenodd" clip-rule="evenodd" fill="#58554A" d="M268.227,99.189c8.454-0.955,15.09-4.165,22-4
			C285.827,98.802,275.709,101.988,268.227,99.189z"/>
		<path fill-rule="evenodd" clip-rule="evenodd" fill="#58554A" d="M327.227,34.189c0.869-1.464,1.497-3.169,4-3
			c-19.155,4.655-57.45,15.874-81,22c-5.404,1.406-9.863,5.584-14,10c3.316-5.017,7.738-8.929,10-15
			c12.084-3.706,20.961-4.151,24-10c19.05-2.786,50.29-10.911,76-19C344.494,24.8,333.323,29.61,327.227,34.189z"/>
		<path fill-rule="evenodd" clip-rule="evenodd" fill="#58554A" d="M259.227,42.189c0.622-2.711,4.178-2.489,4-6
			c-2.667,0-5.333,0-8,0c0.221-0.779,0.837-1.163,2-1c2.333,0,4.667,0,7,0C264.502,39.465,261.325,40.287,259.227,42.189z"/>
		<path fill-rule="evenodd" clip-rule="evenodd" fill="#A1A09B" d="M385.227,61.189c3.582-4.418,7.582-8.418,12-12
			C393.645,53.607,389.645,57.607,385.227,61.189z"/>
		<path fill-rule="evenodd" clip-rule="evenodd" fill="#D2D2CD" d="M144.227,47.189c0.15,3.175-6.71,7.938-9,12
			C134.807,55.744,141.787,51.102,144.227,47.189z"/>
		<path fill-rule="evenodd" clip-rule="evenodd" fill="#D2D2CD" d="M155.227,36.189c1.71-0.21,2.59,1.705,3,0
			c2.656,2.016-7.678,7.606-2,2c-3.724,1.609-5.667,5-9,7C145.644,45.563,153.571,39.142,155.227,36.189z"/>
		<path fill-rule="evenodd" clip-rule="evenodd" fill="#D2D2CD" d="M163.227,30.189c4.904-1.78,10.964-7.68,15-7
			c-9.471,2.625-11.304,13.381-20,12c0.677-2.323,3.323-2.677,4-5C162.561,30.189,162.894,30.189,163.227,30.189z"/>
		<path fill-rule="evenodd" clip-rule="evenodd" fill="#A1A09B" d="M71.227,87.189c2.774-1.476,4.677,0.154,7-3
			c-1.382,1.675-4.618,6.638-6,5C72.446,87.933,73.785,87.146,71.227,87.189z"/>
		<path fill-rule="evenodd" clip-rule="evenodd" fill="#A1A09B" d="M39.227,109.189c5.788-4.879,8.729-12.605,16-16
			c-5.553,8.367-12.518,20.604-18,32c-1.18-6.207,3.471-11.826,2-15C39.227,109.856,39.227,109.522,39.227,109.189z"/>
		<path fill-rule="evenodd" clip-rule="evenodd" fill="#A1A09B" d="M398.227,36.189c-2.934,6.066-8.402,9.598-13,14
			C389.042,45.004,394.386,41.349,398.227,36.189z"/>
		<path fill-rule="evenodd" clip-rule="evenodd" fill="#D2D2CD" d="M398.227,35.189c0,0.333,0,0.667,0,1
			c-3.841,5.159-9.186,8.814-13,14c-8.276,6.39-14.129,15.204-22,22c0.454-4.212,4.729-4.604,6-8c-0.294-3.484-2.706,0.084-3-2
			c-1.822,0.447,0.572,4.303-1,5c-2.474-3.94-1.557-1.075-7,1c0.294-2.039,2.706-1.961,3-4c-6.3,1.204-6.471,13.297-13,11
			c-0.017,5.619-3.435,18.323,3,11c-1.347,2.319-2.842,4.492-5,6c-0.333,0-0.667,0-1,0c0.226-5.226-0.017-9.983-1-14
			c-1.517,6.5-11.57,6.528-10,15c-4.206-2.151-2.207,8.559-7,11c-1.567-0.354,0.875-1.761-1-2c0.184,0.851-0.39,0.943-1,1
			c3.69,3.56,7.265-2.146,12-3c-9.327,11.339-23.396,17.938-39,23c-0.333,0-0.667,0-1,0c-2.667,0-5.333,0-8,0
			c-3.74-0.771-7.304,1.304-4-2c8.577-8.577,33.365-17.168,35-24c-0.239,1.086-1.646,2.401-2,1c7.331-12.932,18.821-18.482,23-36
			c3.688-0.979,5.697-3.636,8-6c0.988,3.562-2.73,11.14,0,10c-0.321-4.655,1.993-6.673,2-11c16.025-8.308,29.412-19.254,35-38
			C393.62,19.796,397.543,25.874,398.227,35.189z M324.227,109.189c2.594-2.073,6.616-2.717,8-6
			C328.636,105.853,323.671,106.529,324.227,109.189z"/>
		<path fill-rule="evenodd" clip-rule="evenodd" fill="#FFFFFF" d="M351.227,86.189c-6.435,7.323-3.017-5.381-3-11
			c6.529,2.297,6.7-9.796,13-11c-0.294,2.039-2.706,1.961-3,4c5.443-2.075,4.526-4.94,7-1c1.572-0.697-0.822-4.553,1-5
			c0.294,2.084,2.706-1.484,3,2c-1.271,3.396-5.546,3.788-6,8C359.601,77.23,356.079,82.375,351.227,86.189z"/>
		<path fill-rule="evenodd" clip-rule="evenodd" fill="#FFFFFF" d="M332.227,103.189c-1.384,3.283-5.406,3.927-8,6
			C323.671,106.529,328.636,105.853,332.227,103.189z"/>
		<path fill-rule="evenodd" clip-rule="evenodd" fill="#1B1915" d="M136.227,97.189c2.714,0.619,7.936-1.27,9,1
			c2.882,4.122-4.028,5.558-6,8c7.453-0.561,15.744-5.572,23-3c-12.61,0.057-20.095,5.238-28,10c-14.734,10.933-24.393,26.94-33,44
			c0.622,1.828,4.178-1.728,4-4c-2.453,9.262,7.934,18.125,9,30c9.835,4.751,13.214,12.982,21,25c2,0,4,0,6,0
			c-15.655-12.673-18.292-49.548-5-67c7.96-11.039,17.387-20.613,34-23c40.432-5.327,49.3,47.806,34,71
			c3.659,2.316,4.374-10.664,7-7c11.91-35.982-3.903-73.292-35-79c-1,0-2,0-3,0c0.168-1.165,1.581-1.086,3-1c1,0,2,0,3,0
			c5.999,2.335,12.424,4.243,18,7c2.041-1.293,2.529-4.138,5-5c0.667,0,1.333,0,2,0c0.211,1.122,1.11,1.557,2,2
			c-0.467,3.533-2.526,5.475-4,8c4.917-4.669,2.533,1.191,6-4c1.913,2.754,4.438,4.896,6,8c-4.808,0.421,1.191,0.362,0,3
			c-1,0-2,0-3,0c3.074,12.926,7.12,24.88,8,40c2.348-5.74,2.621,2.349,6-3c0.319,2.348,1.58,3.754,1,7
			c4.918,8.587,35.098,2.974,31-1c5.989,1.673,8.218-0.925,14-3c-3.104-2.986-4.347,1.53-7,2c1.948-2.418,3.036-6.292,3-8
			c2.063,1.763,0.875,3.097,2,4c1.586-4.918,6.271-2.438,9-3c-2.578-0.241,1.373-1.721,0-4c-2.555-0.111-3.5-1.833-5-3
			c4.121-6.213,11.734-8.933,13-18c4.92-0.316,7.184-5.527,8-7c4.143,0.598,7.758,1.654,3-1c0.333,0,0.667,0,1,0
			c14.138-0.866,24.022-11.306,33-14c8.277-12.279,20.162-16.242,29-27c-2.144,9.261-14.688,16.593-21,25
			c14.83-6.839,23.333-25.331,33-34c-0.239,1.427-1.646,1.687-2,3c5.221-0.446,7.745-3.588,14-3c-9.224,7.52-21.762,25.47-25,39
			c-0.318,2.652,5.602-0.936,4,3c-4.069,2.29-8.05-1.004-14,1c-9.4,3.167-24.427,26.008-19,32c0,0.667,0,1.333,0,2
			c4.898,6.924,25.497,0.23,30-6c4.316,1.463-4.307,5.487,1,5c0.333,0,0.667,0,1,0c0.43,1.57,3.146,0.854,2,4
			c1.172-0.161,0.844-1.823,1-3c1.979,2.391,19.692,9.256,19,5c2.289,3.64,2.602,1.854,5,4c-11.631-22.485-2.224-65.951,21-67
			c11.896-0.537,15.105,9.939,20,16c0.132,0.163,0.828-0.131,1,0c-1.007,2.658-1.044,5.092,1,7c0,0.667,0,1.333,0,2
			c0.824,3.236-1.244,8.649,0,9c0,1.333,0,2.667,0,4c-1.086-0.247-0.679-1.988-2-2c-0.743,4.258-4.258,9.947-2,14
			c0,0.333,0,0.667,0,1c-4.063,5.521-12.147,10.369-11,18c-8.36,2.306-15.438,5.895-27,5c-3.333,0-6.667,0-10,0c-4,0-8,0-12,0
			c-18.458-2.526-33.683,1.667-49,5c-2.333,0-4.667,0-7,0c-1.001-1.332-1.648-3.019-3-4c-0.521-1.479-1.479-2.521-2-4
			c-27.139,18.194-64.538,26.129-102,34c-3.936,8.731-19.796,5.537-26,12c-10.931,2.069-20.44,5.56-34,5
			c-4.025,0.642-10.633-1.3-13,1c-4.333,0-8.667,0-13,0c-6,0-12,0-18,0c-1.667,0-3.333,0-5,0c-5.093-1.574-11.37-1.964-18-2
			c-21.673-5.793-59.838-15.991-72-34c-10.638-15.753,15.731-17.195,23-25c0-0.667,0-1.333,0-2c0.61-0.057,1.184-0.149,1-1
			c2.729,0.729,2.013-1.987,4-2c-3.918,8.027-5.707,21.916,4,19c-0.027,0.973-1.224,0.776-2,1c3.15,1.88,6.08-4.28,3-7
			c-0.829,2.171-3.775,2.226-4,5c-1.394-4.418,1.552-13.097,1-20c0-0.333,0-0.667,0-1c3.247-0.753-1.775-9.774,3-9
			c0,2.667,0,5.333,0,8c3.702,0.702,1.725-4.275,4-5c3.934,2.543,9.409,6.204,15,5c31.483-6.781,60.152-19.395,77-36
			c-11.375,2.625-20.595,7.404-31,11c-4.1-0.1-8.197-0.196-11,1c-17.967,0.637-37.174-1.702-33-20c-3.618-0.513,0.438,4.59-3,6
			c-3.307-5.687,3.215-9.176,7-11c0.286,1.763-4.709,3.097-2,4c2.804-2.554,7.571-8.396,10-8c-11.583,12.051,7.402,21.519,23,19
			c0.667,0,1.333,0,2,0c-0.055,1.278-1.282,1.385-1,3c1,0,2,0,3,0c0.333,0,0.667,0,1,0c6.755,0.089,13.032-0.301,18-2
			c0.667,0,1.333,0,2,0c3.14,0.473,2.642-2.691,5-3c0.004-2.671-3.16-2.173-3-5c3.726-2.054,6.549,0.085,9,2
			c3.77-1.563,6.437-4.229,8-8c-1,0-2,0-3,0c-0.333,0-0.667,0-1,0C135.043,97.339,135.617,97.246,136.227,97.189z M408.227,101.189
			c-6.173,1.161-9.232,5.434-12,10c-0.055,1.278-1.282,1.385-1,3c-1.483,0.85-2.15,2.517-2,5c-1.486,0.847-1.447,3.22-2,5
			c0,1,0,2,0,3c-1.658,1.725-1.658,10.275,0,12c0,1,0,2,0,3c1.88,5.12,3.611,10.389,8,13c1.991,2.009,4.578,3.422,9,3
			c0.776-0.224,1.973-0.027,2-1c2.925-1.741,6.38-2.954,8-6c2.627-0.707,1.974-4.693,4-6c0.533-3.801,3.122-5.544,3-10
			c2.899-12.906,0.639-29.301-9-33C415.136,100.868,409.769,98.754,408.227,101.189z M189.227,135.189
			c-11.954-10.406-35.638-3.198-41,8c-0.294,2.039-2.706,1.961-3,4c-3.695,5.305-6.712,11.287-7,20c0,1,0,2,0,3s0,2,0,3s0,2,0,3
			c1.519,0.153,6.481,0.152,8,3c-3.375-6.106,7.916-3.331,12-5c0.779,0.221,1.163,0.837,1,2c-1.915,6.027-6.195,8.155-10,10
			c-6.265,0.598-6.178-5.155-10-7c0.603,6.064,3.43,9.903,6,14c2.447,3.22,5.014,6.319,9,8c2.763,1.237,5.08,2.92,9,3
			c2.572,2.181,10.376,1.086,12-1c4.165-1.502,8.496-2.838,11-6c7.632-5.701,13.026-13.641,15-25c2.208-0.125,0.425-4.242,1-6
			c0-1,0-2,0-3c0.7-7.033-1.46-11.206-3-16c-0.057-0.61-0.149-1.184-1-1c-0.586-2.081-2.102-3.232-3-5c-0.56-1.44-1.56-2.44-3-3
			C191.667,136.749,190.667,135.749,189.227,135.189z M58.227,180.189c5.233,4.016,10.018-7.845,6-7c1.607-2.39,7.084-10.462,5-10
			C65.113,168.409,61.718,174.347,58.227,180.189z M72.227,183.189c12.812,0.472,20.519-9.474,22-17
			C85.29,170.252,77.587,175.55,72.227,183.189z"/>
		<path fill-rule="evenodd" clip-rule="evenodd" fill="#A1A09B" d="M137.227,83.189c2.932-1.142,3.714-0.59,5,2
			c-3.935-2.421-6.469,3.827-7,8c1.613,1.387,5.155,0.846,6,3c-1.453,0.547-5.168-1.169-5,1c-0.61,0.057-1.184,0.149-1,1
			c-0.162,1.172-1.823,0.844-3,1c-8.831-3.478-18.887,5.76-27,3c-0.23-4.563,1.683-6.984,3-10
			C119.244,90.539,127.772,86.401,137.227,83.189z"/>
		<path fill-rule="evenodd" clip-rule="evenodd" fill="#A1A09B" d="M236.227,63.189c4.137-4.416,8.596-8.594,14-10
			c23.55-6.126,61.845-17.345,81-22c-2.503-0.169-3.131,1.536-4,3c-15.791,9.542-31.425,19.242-52,24c-2.369-3.594-7.309,1.947-12-2
			c-1.759,0.241-2.279,1.721-2,4c-5.21-0.543-9.035,0.298-12,2c-0.169,2.168,3.547,0.453,5,1c-1.183,1.817-5.214,0.786-7,2
			c3.092-3.585-5.381-1.663-7-1c0.31,1.357,2.504,0.83,4,1c-2.483,1.516-6.069,1.931-10,2
			C233.499,64.461,236.214,65.177,236.227,63.189z"/>
		<path fill-rule="evenodd" clip-rule="evenodd" fill="#1B1915" d="M153.227,37.189c-1.406-0.261-1.14-2.193-2-3
			c4.438,2.059,7.064-5.326,12-6c0.003,1.003-0.81,1.19-1,2C157.672,30.968,156.961,35.59,153.227,37.189z"/>
		<path fill-rule="evenodd" clip-rule="evenodd" fill="#A1A09B" d="M225.227,88.189c2.826-0.826,2.591,1.409,5,1
			c1.319,3.165,1.486,7.038-1,8c-0.168-1.165-1.581-1.086-3-1c2.292-0.375,1.334-4,3-5
			C229.655,88.428,225.499,90.251,225.227,88.189z"/>
		<path fill-rule="evenodd" clip-rule="evenodd" fill="#A1A09B" d="M211.227,99.189c1.071-2.263,2.27-4.397,4-6
			c2.023,2.055-0.407,1.996-2,3c1.603,1.322,3.737,4.278,6,2C217.755,100.899,211.347,106.282,211.227,99.189z"/>
		<path fill-rule="evenodd" clip-rule="evenodd" fill="#D2D2CD" d="M254.227,63.189c-1.453-0.547-5.169,1.168-5-1
			c2.965-1.702,6.79-2.543,12-2c-0.279-2.279,0.241-3.759,2-4c4.691,3.947,9.631-1.594,12,2
			C268.77,60.399,260.932,61.228,254.227,63.189z"/>
		<path fill-rule="evenodd" clip-rule="evenodd" fill="#1B1915" d="M360.227,80.189c0.851-0.184,0.943,0.39,1,1
			c1.279-2.72,4.848-3.152,6-6C368.629,76.113,360.962,87.428,360.227,80.189z"/>
		<path fill-rule="evenodd" clip-rule="evenodd" fill="#FFFFFF" d="M345.227,92.189c-2.247,3.087-4.913,5.753-8,8
			c-4.735,0.854-8.31,6.56-12,3c0.61-0.057,1.184-0.149,1-1c1.875,0.239-0.567,1.646,1,2c4.793-2.441,2.794-13.151,7-11
			c-1.57-8.472,8.483-8.5,10-15C345.21,82.206,345.453,86.964,345.227,92.189z"/>
		<path fill-rule="evenodd" clip-rule="evenodd" fill="#D2D2CD" d="M245.227,44.189c-4.395-1.666,7.395-0.334,3-2
			c0.733-1.781,1.818-0.144,3,0c0.339-1.117,5.311-3.25,1-3c2.483-1.516,6.069-1.931,10-2
			C258.674,41.637,252.8,43.762,245.227,44.189z"/>
		<path fill-rule="evenodd" clip-rule="evenodd" fill="#58554A" d="M210.227,54.189c3.875-2.125,5.95-6.05,11-7
			c0.102,1.122-1.454,1.557,0,2c5.394-2.606,12.824-3.176,21-3c-0.19,0.81-1.003,0.997-1,2c-3.367,0.633-9.288-1.289-11,1
			c-0.333,0-0.667,0-1,0c-2.562,0.105-4.768,0.566-6,2c-2.487-0.154-3.096,1.571-5,2c-1,0-2,0-3,0c1.36,4.64,6.391,5.609,11,7
			c1.182,1.151,3.535,1.132,6,1c-0.19,0.81-1.003,0.997-1,2c-2.291,1.376-2.349,4.985-5,6c-2.829-3.504-5.608-7.059-10-9
			c-1.313-0.354-1.573-1.761-3-2C212.933,56.15,210.521,56.229,210.227,54.189z"/>
		<path fill-rule="evenodd" clip-rule="evenodd" fill="#D2D2CD" d="M230.227,49.189c1.712-2.289,7.633-0.367,11-1
			c-0.443,0.89-0.878,1.789-2,2c-2.346-3.87-7.011,6.713-1,3c-0.56,1.44-1.56,2.44-3,3c-0.434-2.224-2.298-5.422,1-6
			C236.102,47.981,231.985,49.765,230.227,49.189z"/>
		<path fill-rule="evenodd" clip-rule="evenodd" fill="#D2D2CD" d="M223.227,51.189c1.232-1.434,3.438-1.895,6-2
			c0.367,1.701-0.78,1.887-2,2c0.227,1.274,2.984,1.311,3,0C232.664,54.201,224.796,52.729,223.227,51.189z"/>
		<path fill-rule="evenodd" clip-rule="evenodd" fill="#FFFFFF" d="M235.227,56.189c0.473,3.14-2.691,2.642-3,5
			c-2.465,0.132-4.818,0.151-6-1c-1.179-2.821-4.958-3.042-8-4c0.227-1.44,2.984-0.349,3-2c-0.289-2.524-5.901,3.574-3-1
			c1.904-0.429,2.513-2.154,5-2c1.569,1.54,9.437,3.012,7,0c-0.016,1.311-2.773,1.274-3,0c1.22-0.113,2.367-0.299,2-2
			c0.333,0,0.667,0,1,0c1.758,0.575,5.875-1.208,6,1C232.929,50.767,234.793,53.966,235.227,56.189z"/>
		<path fill-rule="evenodd" clip-rule="evenodd" fill="#D2D2CD" d="M218.227,53.189c-2.901,4.574,2.711-1.524,3,1
			c-0.016,1.651-2.773,0.56-3,2c3.042,0.958,6.821,1.179,8,4c-4.609-1.391-9.64-2.36-11-7
			C216.227,53.189,217.227,53.189,218.227,53.189z"/>
		<path fill-rule="evenodd" clip-rule="evenodd" fill="#FFFFFF" d="M213.227,58.189c1.427,0.239,1.687,1.646,3,2
			c-0.296,2.63,3.88,0.787,3,4c-5.27,0.064-7.34,3.327-13,3c-2.224-0.442-5.422,3.088-6,1c6.353-2.601,5.867-8.519,11-8
			c2.023-3.206-3.957-3.127-1-4C211.654,56.429,211.914,57.836,213.227,58.189z"/>
		<path fill-rule="evenodd" clip-rule="evenodd" fill="#58554A" d="M330.227,148.189c-5.427-5.992,9.6-28.833,19-32
			c5.95-2.004,9.931,1.29,14-1c1.602-3.936-4.318-0.348-4-3c3.238-13.53,15.776-31.48,25-39c28.095-4.759,43.248,12.084,47,35
			c-0.172-0.131-0.868,0.163-1,0c-4.895-6.061-8.104-16.537-20-16c-23.224,1.049-32.631,44.515-21,67c-2.398-2.146-2.711-0.36-5-4
			c0.692,4.256-17.021-2.609-19-5c-0.156,1.177,0.172,2.839-1,3c1.146-3.146-1.57-2.43-2-4c2.071-0.595,6.569,1.236,7-1
			c-3.469,1.6-7.687-3.755-8,1c-5.307,0.487,3.316-3.537-1-5c0-3,0-6,0-9s0-6,0-9c-0.609-2.391,1.256-7.255-1-8c0-0.333,0-0.667,0-1
			s0-0.667,0-1C344.788,122.083,332.499,130.128,330.227,148.189z M372.227,95.189c-4.382,3.951-5.929,10.738-7,18
			c1.453,0.547,5.169-1.169,5,1c-1.78,0.553-4.152,0.514-5,2c2.209,0.125,0.425,4.242,1,6c2.965,2.788,11.74,2.528,16,1
			c1.365-21.066,25.885-29.112,17-49c-3.364,0.635-7.291,0.709-9,3c-0.333,0-0.667,0-1,0c-7.977,3.356-12.669,9.998-17,17
			C372.227,94.522,372.227,94.856,372.227,95.189z"/>
		<path fill-rule="evenodd" clip-rule="evenodd" fill="#58554A" d="M319.227,171.189c-3.271,2.553-10.758,0.796-10-4
			c1.352,0.981,1.999,2.668,3,4C314.56,171.189,316.894,171.189,319.227,171.189z"/>
		<path fill-rule="evenodd" clip-rule="evenodd" fill="#58554A" d="M29.227,154.189c-7.269,7.805-33.638,9.247-23,25
			c12.162,18.009,50.327,28.207,72,34c-10.829-1.565-25.066-3.388-37-8c-16.86-6.516-41.109-21.125-39-35
			c1.673-11.004,15.973-10.352,26-15c0-0.333,0-0.667,0-1C28.561,154.189,28.894,154.189,29.227,154.189z"/>
		<path fill-rule="evenodd" clip-rule="evenodd" fill="#A1A09B" d="M34.227,149.189c-1.987,0.013-1.271,2.729-4,2
			c-1.198-7.198,4.115-7.885,6-12c0,2.333,0,4.667,0,7c0,0.333,0,0.667,0,1C35.141,147.437,35.549,149.178,34.227,149.189z"/>
		<path fill-rule="evenodd" clip-rule="evenodd" fill="#58554A" d="M36.227,147.189c0.552,6.903-2.394,15.582-1,20
			c0.225-2.774,3.171-2.829,4-5c3.08,2.72,0.15,8.88-3,7c0.776-0.224,1.973-0.027,2-1c-9.707,2.916-7.918-10.973-4-19
			C35.549,149.178,35.141,147.437,36.227,147.189z"/>
		<path fill-rule="evenodd" clip-rule="evenodd" fill="#58554A" d="M136.227,141.189c-13.292,17.452-10.655,54.327,5,67
			c-2,0-4,0-6,0c-7.786-12.018-11.165-20.249-21-25c-1.066-11.875-11.453-20.738-9-30c0.178,2.272-3.378,5.828-4,4
			c8.607-17.06,18.266-33.067,33-44c-8.894,4.955-9.938,19.099-2,26c-3.375,2.815,0.071,6.236-2,10
			C132.719,147.016,133.144,142.773,136.227,141.189z"/>
		<path fill-rule="evenodd" clip-rule="evenodd" fill="#A1A09B" d="M170.227,118.189c-16.613,2.387-26.04,11.961-34,23
			c-3.083,1.584-3.508,5.826-6,8c2.071-3.764-1.375-7.185,2-10c-7.938-6.901-6.894-21.045,2-26c7.905-4.762,15.39-9.943,28-10
			c3.667,0,7.333,0,11,0c1,0,2,0,3,0c1.497,1.837,4.173,2.493,5,5c0.825,6.017-5.344,4.789,0,8
			C179.827,119.122,171.627,115.257,170.227,118.189z M151.227,120.189c4.809-6.558,32.162-5.336,27-12
			c-4.427-1.816-23.725-5.126-29-1c-1.48,5.763-24.051,13.873-12,24c3.859-4.141,9.473-6.526,13-11
			C150.561,120.189,150.894,120.189,151.227,120.189z"/>
		<path fill-rule="evenodd" clip-rule="evenodd" fill="#58554A" d="M176.227,103.189c31.097,5.708,46.91,43.018,35,79
			c-2.626-3.664-3.341,9.316-7,7c15.3-23.194,6.432-76.327-34-71c1.4-2.933,9.6,0.933,11-2c-5.344-3.211,0.825-1.983,0-8
			C180.4,105.683,177.724,105.026,176.227,103.189z"/>
		<path fill-rule="evenodd" clip-rule="evenodd" fill="#58554A" d="M298.227,123.189c15.604-5.063,29.673-11.661,39-23
			c3.087-2.247,5.753-4.913,8-8c0.333,0,0.667,0,1,0c2.158-1.508,3.653-3.681,5-6c4.852-3.815,8.374-8.959,12-14
			c7.871-6.796,13.724-15.61,22-22c4.598-4.402,10.066-7.934,13-14c0-0.333,0-0.667,0-1c1.48,0.186,0.917,2.417,1,4
			c-0.002,3.998-1.998,6.002-2,10c-4.418,3.582-8.418,7.582-12,12c-4.926,3.407-8.074,8.593-13,12c-9.667,8.669-18.17,27.161-33,34
			c6.313-8.407,18.856-15.739,21-25c-8.838,10.758-20.723,14.721-29,27C322.25,111.884,312.365,122.323,298.227,123.189z
			 M367.227,75.189c-1.152,2.848-4.721,3.28-6,6c-0.057-0.61-0.149-1.184-1-1C360.962,87.428,368.629,76.113,367.227,75.189z"/>
		<path fill-rule="evenodd" clip-rule="evenodd" fill="#A1A09B" d="M372.227,94.189c4.331-7.002,9.023-13.644,17-17
			c0,0.333,0,0.667,0,1c-2.729-0.729-2.013,1.987-4,2c-3.087,2.247-5.753,4.914-8,8c-0.309,2.358-3.473,1.86-3,5
			C373.224,93.186,373.037,93.999,372.227,94.189z"/>
		<path fill-rule="evenodd" clip-rule="evenodd" fill="#A1A09B" d="M390.227,77.189c1.709-2.291,5.636-2.365,9-3
			c8.885,19.888-15.635,27.934-17,49c-4.26,1.528-13.035,1.788-16-1c-0.575-1.758,1.209-5.875-1-6c0.848-1.486,3.22-1.447,5-2
			c0.169-2.169-3.547-0.453-5-1c1.071-7.262,2.618-14.049,7-18c-1.344,1.989-1.906,4.761-3,7c14.35,19.098,22.883-11.467,32-19
			c-0.55-1.956-5.377-2.993-6-7C392.401,75.363,392.636,77.599,390.227,77.189z"/>
		<path fill-rule="evenodd" clip-rule="evenodd" fill="#D2D2CD" d="M390.227,77.189c2.409,0.409,2.174-1.826,5-1
			c0.623,4.007,5.45,5.044,6,7c-9.117,7.533-17.65,38.098-32,19c1.094-2.239,1.656-5.011,3-7c0-0.333,0-0.667,0-1
			c0.81-0.19,0.997-1.003,2-1c2.092-1.242,3.759-2.908,5-5c1.156,4.045-6.285,7.712,1,11c3.78-0.22,4.856-3.144,8-4
			c-2.154-5.531,0.334-9.61,3-13c-1.24-3.781-3.859,1.081-2-4c0-0.333,0-0.667,0-1C389.56,77.189,389.894,77.189,390.227,77.189z"/>
		<path fill-rule="evenodd" clip-rule="evenodd" fill="#FFFFFF" d="M389.227,78.189c-1.859,5.081,0.76,0.219,2,4
			c-2.666,3.39-5.154,7.469-3,13c-3.144,0.856-4.22,3.78-8,4c-7.285-3.288,0.156-6.955-1-11c-1.241,2.092-2.908,3.758-5,5
			c-0.473-3.14,2.691-2.642,3-5c4.96-1.906,5.263-2.997,8-8C387.214,80.177,386.499,77.461,389.227,78.189z"/>
		<path fill-rule="evenodd" clip-rule="evenodd" fill="#D2D2CD" d="M88.227,82.189c0,1.333,0,2.667,0,4
			c-2.345,1.693-7.127,6.155-10,4C83.121,89.083,84.156,84.119,88.227,82.189z"/>
		<path fill-rule="evenodd" clip-rule="evenodd" fill="#D2D2CD" d="M377.227,88.189c2.247-3.086,4.913-5.753,8-8
			C382.49,85.193,382.187,86.283,377.227,88.189z"/>
		<path fill-rule="evenodd" clip-rule="evenodd" fill="#D2D2CD" d="M215.227,93.189c2.439-2.561,4.775-5.225,10-5
			c0.271,2.062,4.428,0.238,4,3c-1.666,1-0.708,4.625-3,5c-2.833,0.167-4.167,1.833-7,2c-2.263,2.278-4.397-0.678-6-2
			C214.82,95.186,217.25,95.244,215.227,93.189z M221.227,90.189c1.182,0.485,2.267,1.066,3,2c0.102,1.122-1.454,1.557,0,2
			c0.485-1.78,1.066,0.434,2,1C229.129,92.84,223.481,87.192,221.227,90.189z"/>
		<path fill-rule="evenodd" clip-rule="evenodd" fill="#FFFFFF" d="M226.227,95.189c-0.934-0.566-1.515-2.78-2-1
			c-1.454-0.443,0.102-0.878,0-2c-0.733-0.934-1.818-1.515-3-2C223.481,87.192,229.129,92.84,226.227,95.189z"/>
		<path fill-rule="evenodd" clip-rule="evenodd" fill="#1B1915" d="M271.227,151.189c0.102-1.907,3.727,0.797,5,1
			c0.28,2.735-5.976-1.774-3,1c-0.294,2.084-2.706-1.484-3,2C265.936,153.627,274.475,151.709,271.227,151.189z"/>
		<path fill-rule="evenodd" clip-rule="evenodd" fill="#D2D2CD" d="M113.227,107.189c-1.494,1.587-5.701,1.462-5-2
			c5.929-4.07,15.661-4.339,24-6c1.177-0.156,2.838,0.172,3-1c0.333,0,0.667,0,1,0c1,0,2,0,3,0c-1.563,3.771-4.23,6.437-8,8
			c-2.451-1.915-5.274-4.054-9-2c-0.16,2.827,3.004,2.329,3,5c-2.358,0.309-1.86,3.473-5,3c0-0.333,0-0.667,0-1
			c0.839-1.161,1.319-2.681,1-5c-3.156,0.177-5.964,0.702-6,4c1.583,0.083,3.814-0.48,4,1
			C112.51,112.924,116.471,106.959,113.227,107.189z M126.227,102.189c2,0,4,0,6,0C132.769,98.177,126.425,100.702,126.227,102.189z
			"/>
		<path fill-rule="evenodd" clip-rule="evenodd" fill="#A1A09B" d="M396.227,111.189c2.768-4.566,5.827-8.839,12-10
			c1.163-0.163,1.779,0.221,2,1c-6.091,0.576-8.89,4.444-12,8c0.354,1.313,1.761,1.573,2,3
			C398.24,113.177,398.956,110.461,396.227,111.189z"/>
		<path fill-rule="evenodd" clip-rule="evenodd" fill="#A1A09B" d="M420.227,108.189c0.333,0,0.667,0,1,0
			c-0.081-2.977-7.104-4.152-5-6c9.639,3.699,11.899,20.094,9,33c-0.215-7.542-5.227,5.79-9,1c2.357,2.643,4.473,5.527,6,9
			c-2.026,1.307-1.373,5.293-4,6c-0.102-1.122,1.453-1.557,0-2c-0.261-3.073-2.17-4.497-3-7c-0.898-1.768-2.414-2.919-3-5
			c1.763,1.852,3.097-0.258,4-2c3.091,2.591,5.365-2.039,7-4c-4.004,2.562-8.935-1.837-10,3c-0.19,0.81-1.003,0.997-1,2
			c-1.479-0.521-2.521-1.479-4-2c0.773-1.009,4.794-3.717,2-5c0.003-1.003-0.81-1.19-1-2c3.453,0.787,4.398-0.935,5-3
			c-2.302-0.365-0.956-4.378-4-4c-1.163,0.163-1.779-0.221-2-1c0-0.333,0-0.667,0-1c0.521-5.521-0.573-9.427-1-14
			c0.31-1.357,2.504-0.83,4-1c0.973,0.027,0.776,1.224,1,2c0.83,2.503,2.739,3.927,3,7c0.934-0.733,1.515-1.818,2-3
			c0.81-0.19,0.997-1.003,2-1c-1.448,2.885-2.732,5.935-5,8c0.826-2.826-1.409-2.591-1-5c-1.85,0.413-1.688,9.824,1,6
			c-0.745,3.078,2.745,1.922,2,5c3.412-1.588,3.121-6.879,6-9c0.598,1.78-2.931,4.153,0,5c0.443-0.891,0.878-1.789,2-2
			c-0.138-1.862-0.658-3.342-2-4C421.797,110.619,419.082,111.335,420.227,108.189z M424.227,124.189c-3.033,1.301-8.897-0.23-10,3
			c3.229-0.895,1.405,3.262,3,4c2.483,0.15,4.15-0.517,5-2c-1.496-0.17-3.69,0.357-4-1
			C419.534,126.163,423.52,126.816,424.227,124.189z"/>
		<path fill-rule="evenodd" clip-rule="evenodd" fill="#58554A" d="M408.227,101.189c1.542-2.436,6.909-0.321,8,1
			c-2.104,1.848,4.919,3.023,5,6c-0.333,0-0.667,0-1,0s-0.667,0-1,0c-1.003-0.003-1.19,0.81-2,1c-0.333,0-0.667,0-1,0
			c0.155-2.822-2.827-2.507-4-4c-0.224-0.776-0.027-1.973-1-2c0.184-0.851-0.39-0.943-1-1
			C410.006,101.41,409.39,101.026,408.227,101.189z"/>
		<path fill-rule="evenodd" clip-rule="evenodd" fill="#1B1915" d="M417.227,109.189c-0.485,1.182-1.066,2.267-2,3
			c-0.261-3.073-2.17-4.497-3-7c1.173,1.493,4.155,1.178,4,4C416.56,109.189,416.894,109.189,417.227,109.189z"/>
		<path fill-rule="evenodd" clip-rule="evenodd" fill="#D2D2CD" d="M151.227,120.189c2.232-2.768,5.575-4.425,10-5
			c-7.009-3.984-11.052,3.597-15,6c0.87,2.953,1.497-2.32,4-1c-3.527,4.474-9.141,6.859-13,11c-12.051-10.127,10.52-18.237,12-24
			c5.275-4.126,24.573-0.816,29,1C183.389,114.854,156.036,113.632,151.227,120.189z"/>
		<path fill-rule="evenodd" clip-rule="evenodd" fill="#58554A" d="M406.227,125.189c-1.886-1.555,1.435-3.896-1-6
			c1.313,1.2,1.572,0.39,3,0c0.221,0.779,0.837,1.163,2,1c0.19,0.81,1.003,0.997,1,2c-2.612-0.279-5.004-0.338-4,3
			C406.894,125.189,406.56,125.189,406.227,125.189z"/>
		<path fill-rule="evenodd" clip-rule="evenodd" fill="#D2D2CD" d="M400.227,113.189c1.035,2.632,3.965,3.368,5,6
			c-0.81,0.19-0.997,1.003-2,1c-1.234-2.476-4.344-8.265-7-6c-0.333,0-0.667,0-1,0c-0.282-1.615,0.945-1.722,1-3
			C398.956,110.461,398.24,113.177,400.227,113.189z"/>
		<path fill-rule="evenodd" clip-rule="evenodd" fill="#1B1915" d="M405.227,119.189c-1.035-2.632-3.965-3.368-5-6
			c-0.239-1.427-1.646-1.687-2-3c3.11-3.556,5.909-7.424,12-8c0.61,0.057,1.184,0.149,1,1c-1.496,0.17-3.69-0.357-4,1
			c-0.074,2.983-5.165,6.091-3,8c0.294-0.889,2.706-4.378,3-2c-4.175,1.257,0.514,5.396,1,8c0,0.333,0,0.667,0,1
			C406.799,119.579,406.541,120.39,405.227,119.189z"/>
		<path fill-rule="evenodd" clip-rule="evenodd" fill="#D2D2CD" d="M419.227,108.189c0.333,0,0.667,0,1,0
			c-1.146,3.146,1.57,2.43,2,4c0,0.333,0,0.667,0,1c-2.879,2.121-2.588,7.412-6,9c0.745-3.078-2.745-1.922-2-5c0-0.333,0-0.667,0-1
			C416.495,114.124,417.779,111.074,419.227,108.189z"/>
		<path fill-rule="evenodd" clip-rule="evenodd" fill="#FFFFFF" d="M150.227,120.189c-2.503-1.32-3.13,3.953-4,1
			c3.948-2.403,7.991-9.984,15-6c-4.425,0.575-7.768,2.232-10,5C150.894,120.189,150.561,120.189,150.227,120.189z"/>
		<path fill-rule="evenodd" clip-rule="evenodd" fill="#A1A09B" d="M104.227,107.189c0.016,1.651,2.774,0.56,3,2
			c-3.542,0.458-5.775,2.225-10,2c-0.667,0-1.333,0-2,0c-1.555-3.555,3.396-0.604,3-3
			C99.409,107.038,101.762,107.058,104.227,107.189z"/>
		<path fill-rule="evenodd" clip-rule="evenodd" fill="#1B1915" d="M396.227,114.189c2.656-2.265,5.766,3.524,7,6
			C405.076,124.488,397.598,116.235,396.227,114.189z"/>
		<path fill-rule="evenodd" clip-rule="evenodd" fill="#A1A09B" d="M396.227,114.189c1.371,2.046,8.849,10.299,7,6
			c1.003,0.003,1.19-0.81,2-1c2.435,2.104-0.886,4.445,1,6c-2.09-0.424-2.648,0.686-4,1c-1.122-3.324-5.613-11.286-8-7
			c-0.333,0-0.667,0-1,0c-0.15-2.483,0.517-4.15,2-5C395.56,114.189,395.894,114.189,396.227,114.189z"/>
		<path fill-rule="evenodd" clip-rule="evenodd" fill="#A1A09B" d="M330.227,148.189c2.271-18.062,14.561-26.106,29-32
			c0,0.333,0,0.667,0,1c-7.295,3.257-29.623,19.278-28,33c-0.333,0-0.667,0-1,0C330.227,149.522,330.227,148.856,330.227,148.189z"
			/>
		<path fill-rule="evenodd" clip-rule="evenodd" fill="#A1A09B" d="M358.227,127.189c0-2,0-4,0-6c-3.869-0.869-3.558,2.442-6,3
			c-0.007-3.34,4.017-2.65,5-5c0.973,0.027,0.776,1.224,1,2c1.172-0.161,0.844-1.823,1-3c2.256,0.745,0.391,5.609,1,8
			C359.417,126.38,359.23,127.192,358.227,127.189z"/>
		<path fill-rule="evenodd" clip-rule="evenodd" fill="#D2D2CD" d="M331.227,150.189c-1.623-13.722,20.705-29.743,28-33
			c0,0.333,0,0.667,0,1c-0.156,1.177,0.172,2.839-1,3c-0.224-0.776-0.027-1.973-1-2c-0.983,2.35-5.007,1.66-5,5
			c-0.19,0.81-1.003,0.997-1,2c-3.009,3.991-5.412,8.588-9,12c-1.286-2.797-2.067,3.15-5,2c2.158-1.508,3.653-3.681,5-6
			C334.481,139.511,335.553,141.768,331.227,150.189z"/>
		<path fill-rule="evenodd" clip-rule="evenodd" fill="#FFFFFF" d="M331.227,150.189c4.326-8.422,3.254-10.679,11-16
			c-1.347,2.319-2.842,4.492-5,6c2.933,1.15,3.714-4.797,5-2c-1.268,3.066-3.405,5.262-5,8c1.809,0.763,6.764-3.869,12-3
			c3.436-0.345,7.112,4.806,9,0c0-1.333,0-2.667,0-4c0-1.667,0-3.333,0-5c0.81,0.19,0.997,1.003,2,1c0,3,0,6,0,9
			c-4.503,6.23-25.102,12.924-30,6C330.56,150.189,330.894,150.189,331.227,150.189z"/>
		<path fill-rule="evenodd" clip-rule="evenodd" fill="#58554A" d="M352.227,124.189c2.442-0.558,2.131-3.869,6-3c0,2,0,4,0,6
			c0,2.333,0,4.667,0,7c0,1.667,0,3.333,0,5c-0.333,0-0.667,0-1,0c1.542,4.209-5.175,0.159-5,3c-0.333,0-0.667,0-1,0
			c1.493-4.507,2.249-9.751,2-16c2.57-0.076,1.43-4.659,4-2c-1.577-4.548-3.577,1.489-6,2
			C351.224,125.187,352.037,124.999,352.227,124.189z"/>
		<path fill-rule="evenodd" clip-rule="evenodd" fill="#1B1915" d="M351.227,126.189c2.423-0.511,4.423-6.548,6-2
			c-2.57-2.659-1.43,1.924-4,2c0.249,6.249-0.507,11.493-2,16c-1.163-0.163-1.779,0.221-2,1c-5.236-0.869-10.191,3.763-12,3
			c1.595-2.738,3.732-4.934,5-8C345.815,134.777,348.218,130.181,351.227,126.189z"/>
		<path fill-rule="evenodd" clip-rule="evenodd" fill="#D2D2CD" d="M418.227,128.189c0.31,1.357,2.504,0.83,4,1
			c-0.85,1.483-2.517,2.15-5,2c-1.595-0.738,0.229-4.895-3-4c1.103-3.23,6.967-1.699,10-3
			C423.52,126.816,419.534,126.163,418.227,128.189z"/>
		<path fill-rule="evenodd" clip-rule="evenodd" fill="#58554A" d="M391.227,127.189c-0.271,4.98-0.25,5,4,4
			c5.43,3.431-8.174-0.25-4,8C389.569,137.465,389.569,128.914,391.227,127.189z"/>
		<path fill-rule="evenodd" clip-rule="evenodd" fill="#58554A" d="M432.227,130.189c-0.555,4.778-1.863,8.804-4,12
			c-2.258-4.053,1.257-9.742,2-14C431.548,128.201,431.141,129.942,432.227,130.189z"/>
		<path fill-rule="evenodd" clip-rule="evenodd" fill="#A1A09B" d="M167.227,140.189c-2.889-0.444,0.889-7.556-2-8
			c-2.177,2.418-18.886,6.622-11,13c-2.101-0.823-3.899-4.116-6-2c5.362-11.198,29.046-18.406,41-8c-1.812,2.388-13.767-9.101-14,1
			c-2.168,0.169-0.453-3.547-1-5c-2.134-0.467-1.905,1.429-2,3c-0.667,0-1.333,0-2,0c0,0.667,0,1.333,0,2
			c-2.715,0.716,0.715-4.716-2-4C165.972,132.935,167.836,137.799,167.227,140.189z"/>
		<path fill-rule="evenodd" clip-rule="evenodd" fill="#A1A09B" d="M145.227,193.189c8.023,1.751,10.686-8.849,18-13
			c-2.083,6.917-8.759,9.241-11,16c0.529-2.805,4.721-1.945,5-5c1.165,0.168,1.086,1.581,1,3c-0.644,2.951-6.451,4.049-4,7
			C150.241,199.509,147.674,196.409,145.227,193.189z"/>
		<path fill-rule="evenodd" clip-rule="evenodd" fill="#A1A09B" d="M192.227,138.189c1.44,0.56,2.44,1.56,3,3
			c-6.606-1.418-6.527,12.001-14,13C185.199,149.161,188.911,143.874,192.227,138.189z"/>
		<path fill-rule="evenodd" clip-rule="evenodd" fill="#58554A" d="M192.227,138.189c-2.348-1.458-2.238-2.488-4,0
			c-3.994,2.673-4.693,8.64-9,11c-1.327-2.629-3.868-2.505-3,2c-0.333,0-0.667,0-1,0c0-1.667,0-3.333,0-5
			c0.804-0.529,1.624-1.043,3-1c0.162,1.172,1.823,0.844,3,1c1.063-0.639,0.454-7.878-2-5c0-0.667,0-1.333,0-2
			c-1.483,0.85-2.15,2.517-2,5c-0.81-0.19-0.997-1.003-2-1c0-1,0-2,0-3c1.975,2.064,2.666-0.688,3-3c2.217-0.551,1.424,1.909,3,2
			c1.759-0.554-2.039-3.866-2-6c-4.19-1.19-1.785,4.215-4,5c0-0.667,0-1.333,0-2c0.233-10.101,12.188,1.388,14-1
			C190.667,135.749,191.667,136.749,192.227,138.189z"/>
		<path fill-rule="evenodd" clip-rule="evenodd" fill="#58554A" d="M407.227,133.189c2.762,0.428,0.938-3.729,3-4
			c2.794,1.283-1.227,3.991-2,5c1.479,0.521,2.521,1.479,4,2c0,0.333,0,0.667,0,1c0.586,2.081,2.102,3.232,3,5
			c-0.81-0.19-0.997-1.003-2-1c-1.869-0.798-3.662-1.671-6-2c0-0.333,0-0.667,0-1c1.78-0.598,4.152,2.931,5,0
			c-1.086-0.247-0.679-1.988-2-2c-0.027,0.973-1.224,0.776-2,1c0.086-1.419,0.165-2.832-1-3
			C407.227,133.856,407.227,133.522,407.227,133.189z"/>
		<path fill-rule="evenodd" clip-rule="evenodd" fill="#58554A" d="M167.227,141.189c3.414,2.586-2.658,14.658,5,13
			c-3.494,2.563-3.809,4.644,1,2c-1.603,1.73-3.737,2.93-6,4C169.363,153.395,166.442,151.045,167.227,141.189z"/>
		<path fill-rule="evenodd" clip-rule="evenodd" fill="#58554A" d="M163.227,153.189c2.86,0.14,1.829,4.171,2,7
			c-0.65,1.017-2.299,1.034-2,3c-1.086,0.247-0.678,1.988-2,2c-0.333,0-0.667,0-1,0c0.863-1.753,3.725-3.475-1-3
			c0-0.333,0-0.667,0-1C164.792,162.897,165.163,155.855,163.227,153.189z"/>
		<path fill-rule="evenodd" clip-rule="evenodd" fill="#D2D2CD" d="M154.227,145.189c3.604,2.063,5.396,5.937,9,8
			c1.936,2.666,1.565,9.708-4,8c-3.39-2.61-5.743-6.257-10-8c-0.903-1.763-2.237-3.097-4-4c0-0.667,0-1.333,0-2
			c0.294-2.039,2.706-1.961,3-4C150.328,141.073,152.126,144.366,154.227,145.189z M162.227,156.189c-5.539-3.128-8.277-9.056-15-11
			C150.771,149.33,158.163,159.103,162.227,156.189z"/>
		<path fill-rule="evenodd" clip-rule="evenodd" fill="#A1A09B" d="M179.227,149.189c4.307-2.36,5.006-8.327,9-11
			c-2.454,5.546-6.886,9.113-9,15c-0.851,0.184-0.943-0.39-1-1C177.945,150.574,179.172,150.468,179.227,149.189z"/>
		<path fill-rule="evenodd" clip-rule="evenodd" fill="#1B1915" d="M175.227,138.189c2.215-0.785-0.19-6.19,4-5
			c-0.039,2.134,3.759,5.446,2,6c-1.576-0.091-0.783-2.551-3-2c-0.334,2.313-1.025,5.064-3,3
			C175.227,139.522,175.227,138.856,175.227,138.189z"/>
		<path fill-rule="evenodd" clip-rule="evenodd" fill="#A1A09B" d="M401.227,150.189c-2.688-0.688-1.933,2.067-3,3
			c-1.267-1.733-3.38-2.62-3-6c5.272-0.031,5.73-9.185,10-7c0.079-3.745-4.311-3.022-3-8c-2.236,0.431-0.405,4.929-1,7
			c-0.333,0-0.667,0-1,0c0.127-1.794-1.225-2.109-1-4c-3.156-0.489-3.531,1.802-7,1c0,1.667,0,3.333,0,5c0.184,0.851-0.39,0.943-1,1
			c0-1,0-2,0-3c-4.174-8.25,9.43-4.569,4-8c6.133,0.799,8.139-2.527,11-5c-1.275,2.6-2.194,3.016-1,6c0.333,0,0.667,0,1,0
			c0.057,0.61,0.149,1.184,1,1c0,0.333,0,0.667,0,1c-1.163-0.163-1.779,0.221-2,1c0.934,0.733,1.515,1.818,2,3c0,0.333,0,0.667,0,1
			c-1.434,1.464-0.767,3.17,2,3c0.141,5.474-1.154,9.513-2,14c4.044-3.838,1.988-7.654,3-14c0.89,0.776,2.258,1.075,4,1
			c-1.696,0.97-2.569,2.764-2,6c-2.049,0.685-2.949,7.628-2,8c-0.027,0.973-1.224,0.776-2,1c-0.15-1.85-3.387-0.613-4-2
			c0-0.333,0-0.667,0-1c2.277-2.056,3.454-5.213,3-10C404.997,148.862,403.821,147.645,401.227,150.189z M399.227,149.189
			c2.514-2.152,3.727-5.606,6-8C402.293,142.294,397.703,146.947,399.227,149.189z"/>
		<path fill-rule="evenodd" clip-rule="evenodd" fill="#1B1915" d="M400.227,139.189c-2.217,2.117-2.107,6.56-7,6
			c-0.17-1.496,0.357-3.69-1-4c0-1.667,0-3.333,0-5c3.469,0.802,3.844-1.489,7-1C399.002,137.08,400.354,137.396,400.227,139.189z"
			/>
		<path fill-rule="evenodd" clip-rule="evenodd" fill="#D2D2CD" d="M422.227,145.189c-1.527-3.473-3.643-6.357-6-9
			c3.773,4.79,8.785-8.542,9-1C425.349,139.646,422.76,141.389,422.227,145.189z"/>
		<path fill-rule="evenodd" clip-rule="evenodd" fill="#A1A09B" d="M170.227,143.189c0.333,0,0.667,0,1,0c0,2.333,0,4.667,0,7
			C175.371,153.128,167.827,151.364,170.227,143.189z"/>
		<path fill-rule="evenodd" clip-rule="evenodd" fill="#D2D2CD" d="M188.227,138.189c1.762-2.488,1.652-1.458,4,0
			c-3.316,5.685-7.028,10.972-11,16c7.473-0.999,7.394-14.418,14-13c0.898,1.768,2.414,2.919,3,5c0,0.333,0,0.667,0,1
			c-1.768,1.857-2.919-0.435-5-1c-3.569,0.451-4.803,11.85-13,11c-0.157-1.177,0.172-2.839-1-3c0-0.333,0-0.667,0-1
			C181.341,147.303,185.773,143.735,188.227,138.189z"/>
		<path fill-rule="evenodd" clip-rule="evenodd" fill="#A1A09B" d="M179.227,154.189c1.172,0.161,0.843,1.823,1,3
			c8.197,0.85,9.431-10.549,13-11c0.134,3.866,4.056,3.944,5,7c3.038-1.232-1.084-3.438,0-6c0.333,0,0.667,0,1,0
			c1.54,4.794,3.7,8.967,3,16c-1.667,0-3.333,0-5,0c0.674-2.326,5.247-0.753,4-5c-2.447-1.167-14.031,1.52-19,4
			c1.757,2.243,0.813,7.188,5,7c-0.733,0.934-1.818,1.515-3,2c0.003-1.003-0.81-1.19-1-2c-1.541,2.126-3.609,3.724-5,6
			c1.005,5.328,5.625,7.042,8,11c-0.89-0.776-2.258-1.075-4-1c0.282-1.615-0.945-1.722-1-3c-2.976,1.325-5.074,1.025-7-1
			c0-0.333,0-0.667,0-1c1.956-0.139,4.744-4.462,2-6c-0.615-0.891-1.208-1.789,0-2c0.804,0.529,1.624,1.043,3,1
			c0.521-1.479,1.479-2.521,2-4c3.381-0.493,1.94-5.228-2-4c0-0.333,0-0.667,0-1c1.912-1.422,3.578-3.088,5-5
			c-0.31-1.357-2.504-0.83-4-1C179.45,157.3,179.152,155.932,179.227,154.189z"/>
		<path fill-rule="evenodd" clip-rule="evenodd" fill="#D2D2CD" d="M405.227,141.189c-2.273,2.394-3.486,5.848-6,8
			C397.703,146.947,402.293,142.294,405.227,141.189z"/>
		<path fill-rule="evenodd" clip-rule="evenodd" fill="#1B1915" d="M414.227,143.189c-0.19-0.81-1.003-0.997-1-2
			c1.003-0.003,1.19,0.81,2,1c0.83,2.503,2.739,3.927,3,7c-2,0-4,0-6,0C411.658,145.953,412.531,144.159,414.227,143.189z"/>
		<path fill-rule="evenodd" clip-rule="evenodd" fill="#1B1915" d="M149.227,153.189c4.257,1.743,6.61,5.39,10,8
			c0,0.333,0,0.667,0,1c4.725-0.475,1.863,1.247,1,3c-5.719-0.719-8.933,1.066-14,1c-1,0-2,0-3,0c0.637-2.182-2.834-3.182,1-3
			c-0.65-1.017-2.299-1.034-2-3C145.121,162.972,144.606,154.181,149.227,153.189z"/>
		<path fill-rule="evenodd" clip-rule="evenodd" fill="#58554A" d="M144.227,151.189c-0.003-1.003,0.81-1.19,1-2
			c1.763,0.903,3.097,2.237,4,4c-4.621,0.991-4.106,9.782-7,7c-0.299,1.966,1.35,1.983,2,3c-3.834-0.182-0.363,0.818-1,3
			c-3.542-2.044-1.503-9.16,0-12c2.807-0.428-2.506,3.729,1,4C144.151,155.761,148.272,148.483,144.227,151.189z"/>
		<path fill-rule="evenodd" clip-rule="evenodd" fill="#1B1915" d="M147.227,145.189c6.723,1.944,9.461,7.872,15,11
			C158.163,159.103,150.771,149.33,147.227,145.189z"/>
		<path fill-rule="evenodd" clip-rule="evenodd" fill="#D2D2CD" d="M400.227,139.189c0.333,0,0.667,0,1,0
			c0.595-2.071-1.236-6.569,1-7c-1.311,4.978,3.079,4.255,3,8c-4.27-2.185-4.728,6.969-10,7c-0.38,3.38,1.733,4.267,3,6
			c1.067-0.933,0.312-3.688,3-3c0,0.333,0,0.667,0,1c-1.742,0.903-3.852,2.237-2,4c-4.389-2.611-6.12-7.88-8-13
			c0.61-0.057,1.184-0.149,1-1c1.357,0.31,0.83,2.504,1,4C398.12,145.749,398.01,141.307,400.227,139.189z"/>
		<path fill-rule="evenodd" clip-rule="evenodd" fill="#58554A" d="M409.227,142.189c0.333,0,0.667,0,1,0
			c-1.012,6.346,1.044,10.162-3,14C408.073,151.702,409.368,147.663,409.227,142.189z"/>
		<path fill-rule="evenodd" clip-rule="evenodd" fill="#FFFFFF" d="M404.227,155.189c0,0.333,0,0.667,0,1c0.613,1.387,3.85,0.15,4,2
			c-4.422,0.422-7.009-0.991-9-3c-1.852-1.763,0.258-3.097,2-4c0.333,0,0.667,0,1,0
			C402.365,153.052,402.885,154.531,404.227,155.189z"/>
		<path fill-rule="evenodd" clip-rule="evenodd" fill="#58554A" d="M401.227,150.189c2.594-2.545,3.77-1.327,6-5
			c0.454,4.787-0.723,7.944-3,10c-1.342-0.658-1.862-2.138-2-4c-0.333,0-0.667,0-1,0
			C401.227,150.856,401.227,150.522,401.227,150.189z"/>
		<path fill-rule="evenodd" clip-rule="evenodd" fill="#58554A" d="M193.227,146.189c2.081,0.565,3.232,2.857,5,1
			c0-0.333,0-0.667,0-1c0.851-0.184,0.943,0.39,1,1c-0.333,0-0.667,0-1,0c-1.084,2.562,3.038,4.768,0,6
			C197.283,150.134,193.361,150.056,193.227,146.189z"/>
		<path fill-rule="evenodd" clip-rule="evenodd" fill="#A1A09B" d="M138.227,167.189c0.288-8.713,3.305-14.695,7-20
			c0,0.667,0,1.333,0,2c-0.19,0.81-1.003,0.997-1,2c0.282,1.615-0.945,1.722-1,3c-1.503,2.84-3.542,9.956,0,12c1,0,2,0,3,0
			C144.33,169.523,139.824,164.456,138.227,167.189z"/>
		<path fill-rule="evenodd" clip-rule="evenodd" fill="#D2D2CD" d="M173.227,156.189c4.973,0.228-4.591,9.12,6,8
			c0,0.333,0,0.667,0,1c-2.48-0.147-4.853-0.187-5,2c-0.857,3.19,1.574,3.093,2,5c-1.208,0.211-0.615,1.109,0,2
			c-2.091-0.576-2.854-2.479-6-2c-0.226-1.44-2.985-0.349-3-2c0.667,0,1.333,0,2,0c3.825,0.229,5.001-5.498,3-8
			c-0.667,0-1.333,0-2,0c-3.655-0.322-3.975,2.691-5,5c-1.759-0.241-2.279-1.721-2-4c-0.299-1.966,1.35-1.983,2-3
			c0.667,0,1.333,0,2,0C169.49,159.119,171.625,157.92,173.227,156.189z"/>
		<path fill-rule="evenodd" clip-rule="evenodd" fill="#A1A09B" d="M195.227,162.189c-0.162,1.172-1.823,0.844-3,1
			c0.027,0.973,1.224,0.776,2,1c-1.373,1.961-6.127,0.54-8,2C186.67,162.299,191.907,163.203,195.227,162.189z"/>
		<path fill-rule="evenodd" clip-rule="evenodd" fill="#D2D2CD" d="M260.227,158.189c0.146,2.812-2.449,2.884-5,3
			C254.769,158.065,257.364,157.992,260.227,158.189z"/>
		<path fill-rule="evenodd" clip-rule="evenodd" fill="#58554A" d="M69.227,163.189c2.084-0.462-3.393,7.61-5,10
			c4.018-0.845-0.767,11.016-6,7C61.718,174.347,65.113,168.409,69.227,163.189z"/>
		<path fill-rule="evenodd" clip-rule="evenodd" fill="#A1A09B" d="M170.227,162.189c0.667,0,1.333,0,2,0
			c2.001,2.502,0.825,8.229-3,8c0.027-0.973,1.224-0.776,2-1C171.217,166.533,171.605,163.479,170.227,162.189z"/>
		<path fill-rule="evenodd" clip-rule="evenodd" fill="#A1A09B" d="M161.227,165.189c1.322-0.012,0.914-1.753,2-2
			c-0.279,2.279,0.241,3.759,2,4c0,0.333,0,0.667,0,1c0.89,0.443,1.789,0.878,2,2c0.015,1.651,2.774,0.56,3,2c-0.333,0-0.667,0-1,0
			c-2.495-0.506-4.109-1.891-6-3c-1.13,0.898,0.24,2.414-3,3C158.799,167.837,163.645,167.592,161.227,165.189z"/>
		<path fill-rule="evenodd" clip-rule="evenodd" fill="#58554A" d="M160.227,172.189c3.24-0.586,1.87-2.102,3-3
			c1.891,1.109,3.505,2.494,6,3c0,0.667,0,1.333,0,2c-0.667,0-1.333,0-2,0c-0.027-0.973-1.224-0.776-2-1c0.19-0.81,1.003-0.997,1-2
			c-1.163-0.163-1.779,0.221-2,1c-4.307-1.307-3.163,2.838-5,4c0.163-1.163-0.221-1.779-1-2c-0.003-1.003,0.81-1.19,1-2
			C159.561,172.189,159.894,172.189,160.227,172.189z"/>
		<path fill-rule="evenodd" clip-rule="evenodd" fill="#D2D2CD" d="M160.227,165.189c0.333,0,0.667,0,1,0
			c2.417,2.402-2.428,2.647-1,7c-0.333,0-0.667,0-1,0c-0.19,0.81-1.003,0.997-1,2c-4.084,1.669-15.375-1.106-12,5
			c-1.519-2.848-6.481-2.847-8-3c0-1,0-2,0-3c3.36-1.35,5.29,0.539,7-1c4.951-0.049,8.82-1.181,13-2c-3.799-3.081-9.004,0.957-14,0
			c-3.15,1.121-2.264,0.09-6,0c0-1,0-2,0-3c1.597-2.733,6.103,2.334,8-1C151.294,166.256,154.508,164.471,160.227,165.189z"/>
		<path fill-rule="evenodd" clip-rule="evenodd" fill="#A1A09B" d="M145.227,172.189c-1.71,1.539-3.64-0.35-7,1c0-1,0-2,0-3
			c3.736,0.09,2.85,1.121,6,0C144.064,171.353,144.448,171.969,145.227,172.189z"/>
		<path fill-rule="evenodd" clip-rule="evenodd" fill="#58554A" d="M174.227,167.189c0.147-2.187,2.52-2.147,5-2
			c3.94-1.228,5.381,3.507,2,4c0-1,0-2,0-3C178.571,166.2,175.516,165.812,174.227,167.189z"/>
		<path fill-rule="evenodd" clip-rule="evenodd" fill="#58554A" d="M94.227,166.189c-1.481,7.526-9.188,17.472-22,17
			C77.587,175.55,85.29,170.252,94.227,166.189z"/>
		<path fill-rule="evenodd" clip-rule="evenodd" fill="#A1A09B" d="M198.227,167.189c0.31-1.357,2.504-0.83,4-1
			c-0.575,1.758,1.208,5.875-1,6c0-1.333,0-2.667,0-4c-2.529,3.146-1.116,1.854-6,4C195.23,170.098,200.674,168.431,198.227,167.189
			z"/>
		<path fill-rule="evenodd" clip-rule="evenodd" fill="#1B1915" d="M195.227,172.189c-2.819,4.696-10.278,5.076-12-1
			c0.333,0,0.667,0,1,0c1.182-0.485,2.267-1.066,3-2c4.655,0.321,6.673-1.993,11-2C200.674,168.431,195.23,170.098,195.227,172.189z
			"/>
		<path fill-rule="evenodd" clip-rule="evenodd" fill="#D2D2CD" d="M195.227,172.189c4.884-2.146,3.471-0.854,6-4
			c0,1.333,0,2.667,0,4c-1.974,11.359-7.368,19.299-15,25c0.903-1.763,2.237-3.097,4-4c-0.221-0.779-0.837-1.163-2-1
			c0.027-0.973,1.224-0.776,2-1c-1.167-1.834-2.614-3.386-4-5c-2.375-3.958-6.995-5.672-8-11c1.391-2.276,3.459-3.874,5-6
			c0.19,0.81,1.003,0.997,1,2c-0.333,0-0.667,0-1,0C184.949,177.266,192.408,176.886,195.227,172.189z M188.227,185.189
			c1.904,0.429,2.512,2.154,5,2c-0.69-1.722-3.679-6.215-5-4C189.436,183.4,188.842,184.299,188.227,185.189z"/>
		<path fill-rule="evenodd" clip-rule="evenodd" fill="#D2D2CD" d="M159.227,176.189c1.837-1.162,0.693-5.307,5-4
			c-1.121,3.949,0.681,12.235,2,14c1.633-0.45,1.633,5.45,0,5c-1.017,0.649-1.034,2.299-3,2c-0.282-1.615,0.945-1.722,1-3
			c-1.313,0.354-1.573,1.761-3,2c2.574-5.535-2.37-0.513-3,2c0.086-1.419,0.165-2.832-1-3c-0.279,3.055-4.471,2.195-5,5
			c2.241-6.759,8.917-9.083,11-16c-7.314,4.151-9.977,14.751-18,13c-2.57-4.097-5.397-7.936-6-14c3.822,1.845,3.735,7.598,10,7
			C153.032,184.345,157.312,182.217,159.227,176.189z"/>
		<path fill-rule="evenodd" clip-rule="evenodd" fill="#FFFFFF" d="M158.227,194.189c0.63-2.513,5.574-7.535,3-2
			c-0.154,2.487,1.571,3.096,2,5c0.013,1.987,2.729,1.271,2,4c0.437,1.23,1.28,2.054,3,2c0.168,2.169-3.547,0.453-5,1
			c-3.92-0.08-6.237-1.763-9-3C151.776,198.238,157.583,197.141,158.227,194.189z"/>
		<path fill-rule="evenodd" clip-rule="evenodd" fill="#D2D2CD" d="M168.227,181.189c2.519-2.503-1.148-3.927-1-7
			c0.667,0,1.333,0,2,0c-0.662,4.329,2.326,5.008,5,6c0,0.333,0,0.667,0,1c1.926,2.025,4.024,2.325,7,1c0.055,1.278,1.282,1.385,1,3
			c-3.537-0.537-5.152,0.848-6,3c-2.34,0.257-0.576,4.394,0,5c-0.17,1.496,0.357,3.69-1,4c-1.128-3.298-0.297-9.886-3-14
			c-2.208,0.125-0.425,4.242-1,6c0,2.333,0,4.667,0,7c-5.037-0.63,0.441-11.774-3-14
			C168.227,181.856,168.227,181.522,168.227,181.189z"/>
		<path fill-rule="evenodd" clip-rule="evenodd" fill="#A1A09B" d="M176.227,188.189c-1.091,4.758,3.253,4.081,7,4
			c-0.431,2.236-4.928,0.405-7,1C175.651,192.583,173.887,188.446,176.227,188.189z"/>
		<path fill-rule="evenodd" clip-rule="evenodd" fill="#58554A" d="M171.227,189.189c4.507,1.131,1,9.882,1,13
			c-4.603-2.031,1.499-2.767-1-6C171.227,193.856,171.227,191.522,171.227,189.189z"/>
		<path fill-rule="evenodd" clip-rule="evenodd" fill="#A1A09B" d="M168.227,182.189c3.441,2.226-2.037,13.37,3,14
			c2.499,3.233-3.603,3.969,1,6c0-3.118,3.507-11.869-1-13c0.575-1.758-1.208-5.875,1-6c2.703,4.114,1.872,10.702,3,14
			c1.397,2.874-2.726,5.08,0,6c-1.624,2.086-9.428,3.181-12,1c1.453-0.547,5.168,1.169,5-1c-1.72,0.054-2.563-0.77-3-2
			c0.81,0.19,0.997,1.003,2,1c1.094-4.428-1.694-4.973-2-8c0.333,0,0.667,0,1,0C169.369,192.665,167.892,186.521,168.227,182.189z"
			/>
		<path fill-rule="evenodd" clip-rule="evenodd" fill="#58554A" d="M163.227,197.189c0.667,0,1.333,0,2,0
			c-0.693-0.807-1.556-2.739,0-3c0.306,3.027,3.094,3.572,2,8c-1.003,0.003-1.19-0.81-2-1
			C165.956,198.461,163.24,199.177,163.227,197.189z"/>
		<path fill-rule="evenodd" clip-rule="evenodd" fill="#58554A" d="M188.227,183.189c1.321-2.215,4.31,2.278,5,4
			c-2.488,0.154-3.096-1.571-5-2C188.842,184.299,189.436,183.4,188.227,183.189z"/>
		<path fill-rule="evenodd" clip-rule="evenodd" fill="#1B1915" d="M176.227,188.189c0.848-2.152,2.463-3.537,6-3
			c1.742-0.075,3.11,0.224,4,1c1.386,1.614,2.833,3.166,4,5c-0.776,0.224-1.973,0.027-2,1c-1.667,0-3.333,0-5,0
			C179.48,192.271,175.136,192.947,176.227,188.189z"/>
		<path fill-rule="evenodd" clip-rule="evenodd" fill="#1B1915" d="M161.227,192.189c1.427-0.239,1.687-1.646,3-2
			c-0.055,1.278-1.282,1.385-1,3c1.966,0.299,1.983-1.351,3-2c0,1,0,2,0,3c-0.333,0-0.667,0-1,0c-1.556,0.261-0.693,2.193,0,3
			c-0.667,0-1.333,0-2,0C162.798,195.285,161.073,194.677,161.227,192.189z"/>
		<path fill-rule="evenodd" clip-rule="evenodd" fill="#FFFFFF" d="M239.227,50.189c0.282,1.615-0.945,1.722-1,3
			C232.216,56.902,236.881,46.32,239.227,50.189z"/>
		<path fill-rule="evenodd" clip-rule="evenodd" fill="#1B1915" d="M254.227,63.189c6.705-1.962,14.543-2.791,21-5
			c20.575-4.758,36.209-14.458,52-24c6.096-4.579,17.267-9.39,19-15c-25.71,8.089-56.95,16.214-76,19
			c-3.039,5.849-11.916,6.294-24,10c-1.667,0-3.333,0-5,0c-0.003-1.003,0.81-1.19,1-2c7.583,0.583,12.535-1.465,17-4
			c2.098-1.903,5.275-2.725,5-7c-2.333,0-4.667,0-7,0c18.611-23.204,59.846-26.327,102-23c-0.268,1.827-6.854,2.353-4,4
			c-23.518,21.149-35.018,54.315-59,75c-2.217,0.55-1.424-1.91-3-2c0.54,2.322-5.064,3.446-2,5c-0.057,0.61-0.149,1.184-1,1
			c-6.91-0.165-13.546,3.045-22,4c-19.146-1.521-30.621-10.712-44-18c2.467-3.01,1.288-4.462,1-9c-0.043-1.376,0.471-2.196,1-3
			c2.651-1.015,2.709-4.624,5-6c0,1.667,0,3.333,0,5c1.615,0.282,1.722-0.945,3-1c3.931-0.069,7.517-0.484,10-2c1,0,2,0,3,0
			C249.013,63.976,253.044,65.007,254.227,63.189z"/>
		<path fill-rule="evenodd" clip-rule="evenodd" fill="#D2D2CD" d="M244.227,65.189c-1.496-0.17-3.69,0.357-4-1
			c1.619-0.663,10.092-2.585,7,1C246.227,65.189,245.227,65.189,244.227,65.189z"/>
		<path fill-rule="evenodd" clip-rule="evenodd" fill="#58554A" d="M414.227,117.189c-2.688,3.824-2.85-5.587-1-6
			c-0.409,2.409,1.826,2.174,1,5C414.227,116.522,414.227,116.856,414.227,117.189z"/>
		<path fill-rule="evenodd" clip-rule="evenodd" fill="#58554A" d="M394.227,119.189c-0.914,1.753-0.344,4.989-2,6
			c0.184-0.851-0.39-0.943-1-1c0.553-1.78,0.514-4.153,2-5C393.56,119.189,393.894,119.189,394.227,119.189z"/>
		<path fill-rule="evenodd" clip-rule="evenodd" fill="#D2D2CD" d="M402.227,126.189c1.352-0.314,1.91-1.424,4-1
			c0.333,0,0.667,0,1,0c-1.004-3.338,1.388-3.279,4-3c-0.438,2.323-4.416,2.677-2,5c0.19,0.81,1.003,0.997,1,2
			c-2.062,0.271-0.238,4.428-3,4c-0.851,0.184-0.943-0.39-1-1c2.001-0.712,3.18-5.708,0-6c-2.861,2.473-4.867,5.799-11,5
			c-4.25,1-4.271,0.98-4-4c0-1,0-2,0-3c0.61,0.057,1.184,0.149,1,1C391.25,130.919,401.155,127.725,402.227,126.189z"/>
		<path fill-rule="evenodd" clip-rule="evenodd" fill="#1B1915" d="M409.227,127.189c-2.416-2.323,1.562-2.677,2-5
			c0.003-1.003-0.81-1.19-1-2c3.044-0.378,1.698,3.635,4,4C413.625,126.255,412.68,127.977,409.227,127.189z"/>
		<path fill-rule="evenodd" clip-rule="evenodd" fill="#1B1915" d="M30.227,141.189c-0.198-6.864,1.355-11.979,3-17
			c3.555,1.555,0.604-3.396,3-3C39.993,131.7,32.423,133.977,30.227,141.189z"/>
		<path fill-rule="evenodd" clip-rule="evenodd" fill="#D2D2CD" d="M413.227,134.189c1.615-0.282,1.722,0.945,3,1
			c-0.903,1.742-2.237,3.852-4,2c0-0.333,0-0.667,0-1C412.224,135.187,413.037,134.999,413.227,134.189z"/>
		<path fill-rule="evenodd" clip-rule="evenodd" fill="#1B1915" d="M416.227,135.189c-1.278-0.055-1.385-1.282-3-1
			c1.065-4.837,5.996-0.438,10-3C421.592,133.15,419.318,137.78,416.227,135.189z"/>
		<path fill-rule="evenodd" clip-rule="evenodd" fill="#A1A09B" d="M179.227,141.189c0.423,2.09-0.686,2.647-1,4
			c-1.376-0.043-2.196,0.471-3,1c0-1,0-2,0-3c1.003-0.003,1.19,0.81,2,1c-0.15-2.483,0.517-4.15,2-5
			C179.227,139.856,179.227,140.522,179.227,141.189z"/>
		<path fill-rule="evenodd" clip-rule="evenodd" fill="#D2D2CD" d="M175.227,151.189c0.182,2.182-0.818,3.182-3,3
			c-7.658,1.658-1.586-10.414-5-13c0-0.333,0-0.667,0-1c0.609-2.391-1.255-7.255,1-8c2.715-0.716-0.715,4.716,2,4
			c0,2.333,0,4.667,0,7c-2.4,8.175,5.144,9.938,1,7c2.3-2.366,0.358-8.976,1-13c0-1,0-2,0-3c0.095-1.571-0.134-3.467,2-3
			c0.547,1.453-1.168,5.169,1,5c0,0.667,0,1.333,0,2s0,1.333,0,2c0,1,0,2,0,3s0,2,0,3
			C175.227,147.856,175.227,149.522,175.227,151.189z"/>
		<path fill-rule="evenodd" clip-rule="evenodd" fill="#D2D2CD" d="M187.227,169.189c-4.188,0.188-3.243-4.757-5-7
			c4.969-2.48,16.553-5.167,19-4c1.247,4.247-3.326,2.674-4,5c1.667,0,3.333,0,5,0c0,1,0,2,0,3c-1.496,0.17-3.69-0.357-4,1
			C193.9,167.196,191.882,169.511,187.227,169.189z M186.227,166.189c1.873-1.46,6.627-0.039,8-2c-0.776-0.224-1.973-0.027-2-1
			c1.177-0.156,2.838,0.172,3-1C191.907,163.203,186.67,162.299,186.227,166.189z"/>
		<path fill-rule="evenodd" clip-rule="evenodd" fill="#A1A09B" d="M246.227,161.189c0.638,3.638-2.07,3.93-5,4
			C241.083,162.046,243.792,161.754,246.227,161.189z"/>
		<path fill-rule="evenodd" clip-rule="evenodd" fill="#1B1915" d="M179.227,164.189c-10.591,1.12-1.027-7.772-6-8
			c-4.809,2.644-4.494,0.563-1-2c2.182,0.182,3.182-0.818,3-3c0.333,0,0.667,0,1,0c-0.868-4.505,1.673-4.629,3-2
			c-0.055,1.278-1.282,1.385-1,3c-0.333,0-0.667,0-1,0c-0.041,3.04-0.582,6.582,3,6c1.496,0.17,3.69-0.357,4,1
			C182.805,161.102,181.139,162.768,179.227,164.189z"/>
		<path fill-rule="evenodd" clip-rule="evenodd" fill="#1B1915" d="M167.227,174.189c-0.148,3.073,3.519,4.497,1,7
			c-0.333,0-0.667,0-1,0c0.319,2.319-0.161,3.839-1,5c-1.319-1.765-3.121-10.051-2-14c0.221-0.779,0.837-1.163,2-1
			c0.003,1.003-0.81,1.19-1,2C166.003,173.413,167.2,173.217,167.227,174.189z"/>
		<path fill-rule="evenodd" clip-rule="evenodd" fill="#1B1915" d="M174.227,180.189c-2.674-0.992-5.662-1.671-5-6
			c0-0.667,0-1.333,0-2c0.333,0,0.667,0,1,0c3.146-0.479,3.909,1.424,6,2C178.971,175.728,176.183,180.051,174.227,180.189z"/>
		<path fill-rule="evenodd" clip-rule="evenodd" fill="#A1A09B" d="M78.227,213.189c6.63,0.036,12.907,0.426,18,2
			c-29.176,1.131-50.6-4.122-71-16c-10.968-6.386-27.348-18.091-25-30c2.039-10.345,17.771-12.729,28-14
			c-10.027,4.648-24.327,3.996-26,15c-2.109,13.875,22.14,28.484,39,35C53.161,209.802,67.398,211.624,78.227,213.189z"/>
		<path fill-rule="evenodd" clip-rule="evenodd" fill="#D2D2CD" d="M407.227,139.189c2.338,0.329,4.131,1.202,6,2
			c-0.003,1.003,0.81,1.19,1,2c-1.742,0.075-3.11-0.224-4-1c-0.333,0-0.667,0-1,0C406.46,142.359,405.793,140.653,407.227,139.189z"
			/>
		<path fill-rule="evenodd" clip-rule="evenodd" fill="#FFFFFF" d="M410.227,157.189c-0.949-0.372-0.049-7.315,2-8c2,0,4,0,6,0
			c1.453,0.443-0.102,0.878,0,2C416.607,154.235,413.152,155.448,410.227,157.189z"/>
		<path fill-rule="evenodd" clip-rule="evenodd" fill="#FFFFFF" d="M183.227,192.189c1.667,0,3.333,0,5,0
			c1.163-0.163,1.779,0.221,2,1c-1.763,0.903-3.097,2.237-4,4c-2.504,3.162-6.835,4.498-11,6c-2.726-0.92,1.397-3.126,0-6
			c1.357-0.31,0.83-2.504,1-4C178.299,192.595,182.796,194.426,183.227,192.189z"/>
		<path fill-rule="evenodd" clip-rule="evenodd" fill="#D2D2CD" d="M349.227,143.189c0.221-0.779,0.837-1.163,2-1
			c0.333,0,0.667,0,1,0c1.182,1.151,3.535,1.132,6,1C356.339,147.995,352.663,142.845,349.227,143.189z"/>
		<path fill-rule="evenodd" clip-rule="evenodd" fill="#A1A09B" d="M93.227,121.189c2.803-1.196,6.9-1.1,11-1
			c-0.799,4.229-10.133,5.164-14,3C90.243,121.538,93.001,122.63,93.227,121.189z"/>
		<path fill-rule="evenodd" clip-rule="evenodd" fill="#1B1915" d="M394.227,119.189c2.387-4.286,6.878,3.676,8,7
			c-1.072,1.535-10.978,4.729-10-1C393.883,124.179,393.313,120.942,394.227,119.189z"/>
		<path fill-rule="evenodd" clip-rule="evenodd" fill="#1B1915" d="M144.227,170.189c4.996,0.957,10.201-3.081,14,0
			c-4.18,0.819-8.049,1.951-13,2C144.448,171.969,144.064,171.353,144.227,170.189z"/>
	</g>
	<path fill-rule="evenodd" clip-rule="evenodd" fill="#D2D2CD" d="M366.227,12.189"/>
</g>
</svg>
