<?xml version="1.0" encoding="utf-8"?>
<!-- Generator: Adobe Illustrator 15.1.0, SVG Export Plug-In . SVG Version: 6.00 Build 0)  -->
<!DOCTYPE svg PUBLIC "-//W3C//DTD SVG 1.1//EN" "http://www.w3.org/Graphics/SVG/1.1/DTD/svg11.dtd">
<svg version="1.1" id="Layer_1" xmlns="http://www.w3.org/2000/svg" xmlns:xlink="http://www.w3.org/1999/xlink" x="0px" y="0px"
	 width="353.363px" height="255.183px" viewBox="0 0 353.363 255.183" enable-background="new 0 0 353.363 255.183"
	 xml:space="preserve">
<g>
	<path fill-rule="evenodd" clip-rule="evenodd" fill="#2C3A2E" d="M299.126,17.004c0.314-1.352,1.423-1.91,0.999-4
		c1.956-0.5,6.381,2.18,4,0c4.095-2.803,2.918,4.22-3,2c-0.003,1.003,0.811,1.19,1,2C301.125,17.004,300.125,17.004,299.126,17.004z
		"/>
	<path fill-rule="evenodd" clip-rule="evenodd" fill="#0D1212" d="M300.125,20.004c-2.728,0.729-2.013-1.987-3.999-2
		c0.168-1.165,1.58-1.085,3-1c0.999,0,1.999,0,2.999,0c1.667,0,3.333,0,5,0c0.221,0.779,0.837,1.163,1.999,1
		C306.955,19.501,303.496,19.708,300.125,20.004z"/>
	<path fill-rule="evenodd" clip-rule="evenodd" fill="#2C3A2E" d="M192.139,27.003c0.368,1.701-0.779,1.887-1.999,2
		c0.027,0.972,1.224,0.776,1.999,1c-0.896,2.104-0.031,5.968-3.999,5c1.373-3.163,0.218-3.342,0-6.999
		C189.029,27.226,190.397,26.928,192.139,27.003z"/>
	<path fill-rule="evenodd" clip-rule="evenodd" fill="#2C3A2E" d="M293.126,41.001c5.063-0.081,5.044,1.941,7.999,2
		c0.132,2.465,0.151,4.817-1,6C292.232,47.49,296.932,45.037,293.126,41.001z"/>
	<path fill-rule="evenodd" clip-rule="evenodd" fill="#2C3A2E" d="M283.128,42.001c1.986,1.666,1.271-0.09,3.999,0
		c0.468,2.134-1.429,1.905-2.999,2c2.15,0.849,2.317,3.681,1.999,6.999c0.027,0.973,1.224,0.776,2,1
		C283.745,55.26,281.679,44.875,283.128,42.001z"/>
	<path fill-rule="evenodd" clip-rule="evenodd" fill="#2C3A2E" d="M210.137,70.998c1.303,5.969-4.365,4.966-8.999,5
		C201.69,71.883,205.215,70.742,210.137,70.998z"/>
	<path fill-rule="evenodd" clip-rule="evenodd" fill="#0D1212" d="M307.125,70.998c1.219,3.113,3.072,5.593,2.999,9.999
		C305.82,80.968,307.351,75.104,307.125,70.998z"/>
	<path fill-rule="evenodd" clip-rule="evenodd" fill="#BDFD11" d="M330.122,112.992c1.086,0.248,0.678,1.988,1.999,2
		c-2.719,0.613-1.43,5.235-2.999,6.999C326.609,120.056,330.297,115.9,330.122,112.992z"/>
	<path fill-rule="evenodd" clip-rule="evenodd" fill="#5FBC1F" d="M340.12,140.989c-2.709-1.816,0.554-6.033,1-7.999
		C344.298,135.273,339.828,138.284,340.12,140.989z"/>
	<path fill-rule="evenodd" clip-rule="evenodd" fill="#5FBC1F" d="M332.121,141.988c0,1,0,2,0,3
		c-0.329,2.337-1.201,4.131-1.999,5.999c-2.729,0.729-2.013-1.986-4-2c1.83-3.169,2.356-7.642,5.999-8.998
		C332.121,140.655,332.121,141.322,332.121,141.988z"/>
	<path fill-rule="evenodd" clip-rule="evenodd" fill="#7A8281" d="M332.121,141.988c1.334,0,2.667,0,4,0
		c-0.068,4.47-2.286,1.274-4,3C332.121,143.988,332.121,142.988,332.121,141.988z"/>
	<path fill-rule="evenodd" clip-rule="evenodd" fill="#A4B0B3" d="M1.163,150.987c-0.65,5.017,1.31,12.643-1,15.998
		C0.813,161.969-1.147,154.343,1.163,150.987z"/>
	<path fill-rule="evenodd" clip-rule="evenodd" fill="#466042" d="M96.151,158.986c4.118,0.785,5.131-1.534,8.999-1
		C103.9,161.052,97.151,161.854,96.151,158.986z"/>
	<path fill-rule="evenodd" clip-rule="evenodd" fill="#7A8281" d="M218.136,159.986c2.529-1.053,4.433,3.372,2,4
		c-0.667,0-1.333,0-2,0C218.136,162.652,218.136,161.319,218.136,159.986z"/>
	<path fill-rule="evenodd" clip-rule="evenodd" fill="#BDFD11" d="M207.137,166.985c0.163-1.162-0.221-1.778-0.999-2
		c1.782-2.55,4.576-4.089,8.998-3.999C212.072,162.589,211.112,166.294,207.137,166.985z"/>
	<path fill-rule="evenodd" clip-rule="evenodd" fill="#FFFFFF" d="M28.16,171.985c-4.829-0.345-2.879-7.996-1-9.999
		C28.436,164.188,32.572,170.258,28.16,171.985z"/>
	<path fill-rule="evenodd" clip-rule="evenodd" fill="#466042" d="M218.136,163.986c0.667,0,1.333,0,2,0
		c0.012,1.321,1.752,0.913,1.999,1.999c-0.309,1.357-2.503,0.83-3.999,1C218.136,165.985,218.136,164.985,218.136,163.986z"/>
	<path fill-rule="evenodd" clip-rule="evenodd" fill="#7A8281" d="M222.135,165.985c1.444,1.223,1.517,3.816,3,5
		c0.136,2.275,6.019,3.873,3,5.999c0.003-0.556-0.811-1.135-1,0c-1.087-2.036-3.26-5.621-5.999-3c-0.295-2.038-2.706-1.96-3-3.999
		c0-1,0-2,0-3C219.632,166.815,221.826,167.343,222.135,165.985z"/>
	<path fill-rule="evenodd" clip-rule="evenodd" fill="#5FBC1F" d="M233.134,173.984c-0.132,2.465-0.151,4.817,1,6
		c0,2.666,0,5.332,0,7.999c-2.591,1.468-3.718,3.686-6.999,1.999c-0.474-7.473,1.789-12.209,4.999-15.998
		C232.467,173.984,232.801,173.984,233.134,173.984z"/>
	<path fill-rule="evenodd" clip-rule="evenodd" fill="#A4B0B3" d="M186.14,197.981c3.571-0.428,0.692-7.307,5.999-5.999
		c-0.167,2.832-1.832,4.167-1.999,6.999c0,0.333,0,0.667,0,1C189.525,198.596,186.29,199.831,186.14,197.981z"/>
	<path fill-rule="evenodd" clip-rule="evenodd" fill="#0D1212" d="M196.139,194.982c4.126-3.409,5.472,4.488,9.999,3.999
		C203.828,203.414,198.883,196.424,196.139,194.982z"/>
	<path fill-rule="evenodd" clip-rule="evenodd" fill="#BDFD11" d="M185.14,197.981c0.333,0,0.667,0,1,0c0.15,1.85,3.386,0.614,4,2
		c-1.903,5.376-1.734,16.347-6,19.997C179.051,214.989,184.487,203.833,185.14,197.981z"/>
	<path fill-rule="evenodd" clip-rule="evenodd" fill="#7A8281" d="M210.137,206.98c0.333,0,0.667,0,1,0
		c0.136,2.864,6.863-0.864,6.999,2c-3.985,2.016-10.601-2.76-12.998,2C202.537,207.066,206.528,207.234,210.137,206.98z"/>
	<path fill-rule="evenodd" clip-rule="evenodd" fill="#FFFFFF" d="M208.137,215.979c1.069-3.735-2.482-2.85-1.999-5.999
		c2.616,1.049,4.455,2.876,4.999,5.999c-1.278,0.055-1.385,1.281-3,1C208.137,216.646,208.137,216.313,208.137,215.979z"/>
	<path fill-rule="evenodd" clip-rule="evenodd" fill="#7A8281" d="M205.138,211.979c2.761-0.428,0.938,3.729,2.999,4
		c0,0.333,0,0.667,0,1s0,0.666,0,1c-1.887-1.446-4.432-2.234-3.999-6C204.471,211.979,204.804,211.979,205.138,211.979z"/>
	<path fill-rule="evenodd" clip-rule="evenodd" fill="#466042" d="M216.136,222.979c0.469-4.801-2.101-6.564-3.999-8.999
		c2.621-0.918,9.108,2.862,11.998,5c-3.013,2.713-6.17-0.898-6.999,3.999C216.803,222.979,216.469,222.979,216.136,222.979z"/>
	<path fill-rule="evenodd" clip-rule="evenodd" fill="#5FBC1F" d="M224.135,218.979c0.057,0.609,0.149,1.184,1,0.999
		c1.003-0.003,1.19,0.811,2,1c0.412,4.746-3.412,5.254-3,9.999c-1.257,0.41-2.043,1.289-2,3c-5.638-0.553-2.438-3.728-2.999-8.999
		c-2.715-0.716,0.715,4.715-2,3.999c0.132-2.465,0.151-4.817-1-5.999c0.333,0,0.667,0,1,0
		C217.965,218.081,221.122,221.692,224.135,218.979z"/>
	<path fill-rule="evenodd" clip-rule="evenodd" fill="#5FBC1F" d="M202.138,227.978c-0.043-1.376,0.471-2.195,1-2.999
		c1.999,1.105-1.218,5.369,0,8.999C200.929,233.853,202.713,229.735,202.138,227.978z"/>
	<path fill-rule="evenodd" clip-rule="evenodd" fill="#5FBC1F" d="M204.138,237.977c-0.011,2.656,0.378,5.711-1,6.999
		c-0.716,2.95-1.142,6.191-3,7.999c-1.999,0-3.999,0-5.999,0c-1.479-0.521-2.52-1.479-3.999-2
		c3.543-5.121,5.754-11.576,10.998-14.998C203.104,235.678,203.121,237.327,204.138,237.977z"/>
	<path fill-rule="evenodd" clip-rule="evenodd" fill="#A4B0B3" d="M341.12,144.988c0.057-3.276,2.844-3.822,2-7.999
		c0.333,0,0.666,0,1,0C344.391,140.926,343.735,143.937,341.12,144.988z"/>
	<path fill-rule="evenodd" clip-rule="evenodd" fill="#7A8281" d="M347.119,77.997c3.771,1.896,5.739,5.593,5,11.999
		c0,1.333,0,2.667,0,4c-0.334,0-0.667,0-1,0C351.625,86.823,349.466,82.316,347.119,77.997z"/>
	<path fill-rule="evenodd" clip-rule="evenodd" fill="#7A8281" d="M308.124,13.005c5.137,2.196,7.226,7.44,10.999,10.999
		C314.813,20.98,311.757,16.705,308.124,13.005z"/>
	<path fill-rule="evenodd" clip-rule="evenodd" fill="#A4B0B3" d="M46.157,90.995c3.596-6.736,9.737-10.927,14.998-15.998
		C57.111,81.285,51.197,85.703,46.157,90.995z"/>
	<path fill-rule="evenodd" clip-rule="evenodd" fill="#A4B0B3" d="M28.16,109.993c3.812-2.854,8.836-4.495,11.999-7.999
		C37.659,106.16,33.349,108.516,28.16,109.993z"/>
	<path fill-rule="evenodd" clip-rule="evenodd" fill="#A4B0B3" d="M13.161,123.991c2.75-4.583,5.775-8.891,9.999-11.999
		C20.449,116.613,16.635,120.133,13.161,123.991z"/>
	<path fill-rule="evenodd" clip-rule="evenodd" fill="#A4B0B3" d="M3.163,143.988c1.922-5.41,3.014-11.65,6.999-14.998
		C7.533,133.694,6.29,139.783,3.163,143.988z"/>
	<path fill-rule="evenodd" clip-rule="evenodd" fill="#7A8281" d="M235.134,2.006c14.337-0.858,28.425-0.909,40.995,0
		c0,0.333,0,0.667,0,1C267.789,4.862,250.1,3.376,235.134,2.006z"/>
	<path fill-rule="evenodd" clip-rule="evenodd" fill="#466042" d="M276.129,3.006c8.743,0.829,13.945,2.122,23.996,5
		c2.167,2.167,5.451,3.215,7.999,5c3.633,3.7,6.689,7.976,10.999,10.999c0.467,3.532,2.525,5.474,3.999,7.999
		c-2.95-1.382-4.048-4.618-6.999-6c-1.81,0.3,1.012,4.207,2,5c-6.076-0.64-6.406-13.226-10.998-13.998c-1.667,0-3.333,0-5,0
		c-0.189-0.81-1.003-0.997-1-2c5.918,2.221,7.095-4.803,3-2c2.381,2.18-2.044-0.5-4,0c0.424,2.09-0.685,2.647-0.999,4
		c-1.42-0.086-2.832-0.165-3,1c1.986,0.013,1.271,2.729,3.999,2c7.3,7.366,15.941,13.389,16.998,26.997
		c-10.857-4.808-18.397-12.932-22.997-23.997c-2.197,2.916,4.27,5.691,3,10.999c-5.157-1.579-10.847,5.692-11.999-1
		c2.353-4.451,3.525,0.925,6.999,1c0.043-3.708-3.749-3.583-4.999-5.999c1.365-1.968,0.955-5.711,2-7.999
		c-13.353,1.313-22.154,7.175-31.996,11.999c-29.414,14.914-56.355,32.3-79.99,52.993c-0.666,0-1.333,0-2,0c0-0.333,0-0.667,0-1
		c2.763-4.903,9.236-6.096,11.999-10.999c0.333,0,0.667,0,1,0c4.259-3.406,9.601-5.731,12.998-9.999
		c18.627-13.036,37.707-25.618,59.992-34.996c3.419-1.581,7.553-2.447,9.999-5c2.091-0.576,2.854-2.479,5.999-2
		c6.351-1.329,15.346-5.3,18.998-6c-1.759-7.584-25.793-6.858-36.995-4.999c-2.492,0.841-5.357,1.309-8.999,1
		c-20.999,0.351-54.565,12.751-67.991-1c6.006-4.993,15.928-6.069,24.996-7.999c3.695-0.638,9.961,1.294,11.999-1
		c4.232,1,7.936,0.982,14.998,1c0.333,0,0.666,0,1,0C250.1,3.376,267.789,4.862,276.129,3.006z M224.135,13.005
		c1.081-5.585,5.908-7.424,10.999-8.999c-20.904-0.338-33.399,6.753-46.994,8.999c2.984,2.69,6.396-0.253,8.999-1
		c5.637,8.8,20.359-3.264,26.996,0C223.58,12.002,223,12.815,224.135,13.005z"/>
	<path fill-rule="evenodd" clip-rule="evenodd" fill="#2C3A2E" d="M257.131,32.002c9.842-4.823,18.644-10.686,31.996-11.999
		c-1.045,2.288-0.635,6.031-2,7.999c1.25,2.417,5.042,2.291,4.999,5.999c-3.474-0.074-4.646-5.451-6.999-1
		c1.152,6.691,6.842-0.58,11.999,1c1.27-5.308-5.197-8.083-3-10.999c4.6,11.065,12.14,19.189,22.997,23.997
		c-1.057-13.608-9.698-19.631-16.998-26.997c3.371-0.295,6.83-0.502,8.999-2c-1.162,0.163-1.778-0.221-1.999-1
		c4.592,0.772,4.922,13.358,10.998,13.998c-0.988-0.793-3.81-4.7-2-5c2.951,1.382,4.049,4.618,6.999,6
		c2.077,4.922,4.358,9.64,4,16.998c-0.006-4.125-5.909-6.111-3-9.999c-4.197,1.478-2.275,3.867-1,6.999
		c-4.355,2.507-4.309,14.085-10.998,10.999c1.187-5.453,5.833-2.742,3.999-8.999c-1.549,1.117-2.082,3.25-4.999,3
		c-2.995-19.946-24.782-16.121-34.995-5c2.325-6.322-12.191-0.126-4-3c-0.354-1.313-1.761-1.573-2-3
		c-5.271,4.173-3.343-1.615-11.998,0C257.411,37.598,255.297,33.955,257.131,32.002z M281.128,35.002
		c-0.713-2.494,4.4-4.108,1-5.999c-1.242,3.161-2.908,0.188-5,3c0.054-1.72-0.77-2.563-1.999-3
		C275.192,32.938,278.287,33.844,281.128,35.002z"/>
	<path fill-rule="evenodd" clip-rule="evenodd" fill="#2C3A2E" d="M261.13,28.003c2.211-2.789,6.449-3.55,9.999-5
		C268.683,25.556,264.549,26.422,261.13,28.003z"/>
	<path fill-rule="evenodd" clip-rule="evenodd" fill="#2C3A2E" d="M259.131,10.005c11.202-1.859,35.236-2.585,36.995,4.999
		c-3.652,0.699-12.647,4.67-18.998,6c1.053-3.281,6.838-1.828,7.999-5c-1.949-2.091-1.919-5.103-6.999-3c0.851-1.483,2.517-2.15,5-2
		C277.118,8.683,266.804,10.664,259.131,10.005z"/>
	<path fill-rule="evenodd" clip-rule="evenodd" fill="#2C3A2E" d="M250.132,11.005c-15.714,2.811-38.901,8.163-52.993,6
		c-2.58,0.086-1.053,4.281-5,3c-1.373,2.279,2.578,3.759,0,4c-2.595-2-2.672-4.252-3.999-6.999c-2.055,0.279-1.996,2.67-3,4
		c-3.319-5.476-3.055,3.197-7.999,2c1.273-3.264,1.44-2.119,2-5c-6.883,6.662-16.069,9.721-25.997,10.999
		c9.358-5.45,21.1-13.368,32.996-12.999c-1.613-1.386-3.166-2.833-4.999-4c0.513,3.498-9.929,3.837-14.999,5
		c4.301-3.365,10.132-5.199,15.999-6.999C195.566,23.756,229.133,11.355,250.132,11.005z"/>
	<path fill-rule="evenodd" clip-rule="evenodd" fill="#5FBC1F" d="M224.135,12.005c-6.637-3.264-21.359,8.8-26.996,0
		c-2.603,0.747-6.015,3.69-8.999,1c13.595-2.246,26.09-9.337,46.994-8.999c-5.091,1.575-9.918,3.414-10.999,8.999
		C223,12.815,223.58,12.002,224.135,12.005z"/>
	<path fill-rule="evenodd" clip-rule="evenodd" fill="#0D1212" d="M166.142,17.004c5.069-1.162,15.511-1.502,14.999-5
		c1.833,1.167,3.386,2.614,4.999,4c-11.896-0.37-23.638,7.549-32.996,12.999c9.927-1.278,19.113-4.337,25.997-10.999
		c-0.56,2.88-0.727,1.736-2,5c4.944,1.198,4.68-7.475,7.999-2c1.004-1.329,0.945-3.721,3-4c1.327,2.747,1.404,4.999,3.999,6.999
		c2.578-0.241-1.373-1.72,0-4c3.947,1.281,2.42-2.913,5-3c14.092,2.163,37.279-3.189,52.993-6c3.642,0.309,6.507-0.159,8.999-1
		c7.673,0.659,17.987-1.323,23.997,1c-2.483-0.15-4.149,0.517-5,2c5.08-2.104,5.05,0.909,6.999,3c-1.161,3.171-6.946,1.719-7.999,5
		c-3.146-0.479-3.908,1.424-5.999,2c-3.55,1.45-7.788,2.211-9.999,5c-22.285,9.377-41.365,21.96-59.992,34.996
		c-4.748,2.917-9.453,5.878-12.998,9.999c-0.333,0-0.667,0-1,0c-2.385,1.282-5.418,1.915-5.999,5c-3.065-0.982,1.148-2.667,1-4
		c-5.246,0.656-2.175,3.686-5,6c-0.601-4.958-0.299,0.145-4.999,1c-0.333,0-0.667,0-1,0c-4.333,0-8.666,0-12.999,0
		c-2.366-2.3-8.974-0.358-12.998-1c-20.562-2.103-41.764-3.563-55.993-11.999c-0.831-2.503-2.739-3.927-3-6.999
		c2.17-4.163,5.686-6.979,8.999-9.999c7.078-4.921,14.655-9.342,22.998-12.999c3.522-1.144,7.134-2.197,8.999-4.999
		C139.116,26.64,151.333,20.526,166.142,17.004z M188.14,28.003c0.218,3.657,1.373,3.836,0,6.999c3.968,0.969,3.104-2.895,3.999-5
		c-0.775-0.224-1.972-0.027-1.999-1c1.22-0.113,2.367-0.299,1.999-2C190.397,26.928,189.029,27.226,188.14,28.003z"/>
	<path fill-rule="evenodd" clip-rule="evenodd" fill="#2C3A2E" d="M188.14,72.997c3.545-4.12,8.25-7.081,12.998-9.999
		C197.74,67.266,192.398,69.591,188.14,72.997z"/>
	<path fill-rule="evenodd" clip-rule="evenodd" fill="#2C3A2E" d="M172.142,80.996c4.7-0.855,4.398-5.957,4.999-1
		c2.825-2.313-0.246-5.343,5-6c0.148,1.332-4.065,3.018-1,4c0.581-3.085,3.614-3.717,5.999-5
		c-2.763,4.903-9.235,6.096-11.999,10.999c-0.333,0-0.667,0-1,0c-4,2.998-8.237,5.761-10.999,9.999c-0.333,0-0.667,0-1,0
		c-2.422,1.577-4.422,3.577-5.999,6C157.513,93.688,167.659,87.52,172.142,80.996z"/>
	<path fill-rule="evenodd" clip-rule="evenodd" fill="#466042" d="M86.152,60.999c0.26,3.072,2.169,4.496,3,6.999
		c-6.148-5.12-11.938,4.412-20.998,8.999c-18.054,9.143-31.245,25.945-27.996,56.993c-3.558-1.916,1.366-16.124-2-20.997
		c0-1,0-2,0-3c-1.172,0.162-0.843,1.823-1,3c-0.333,0-0.667,0-1,0c-0.367-6.522,7.211-13.338,9.999-19.998
		C57.835,81.34,74.507,69.354,86.152,60.999z"/>
	<path fill-rule="evenodd" clip-rule="evenodd" fill="#2C3A2E" d="M61.155,74.997C73.146,67.656,82.153,57.333,95.151,51
		c-3.313,3.02-6.828,5.836-8.999,9.999C74.507,69.354,57.835,81.34,46.157,92.995c0-0.667,0-1.333,0-2
		C51.197,85.703,57.111,81.285,61.155,74.997z"/>
	<path fill-rule="evenodd" clip-rule="evenodd" fill="#2C3A2E" d="M118.148,38.001c1.7-2.966,6.493-2.838,8.999-4.999
		C125.283,35.804,121.67,36.858,118.148,38.001z"/>
	<path fill-rule="evenodd" clip-rule="evenodd" fill="#0D1212" d="M257.131,32.002c-1.834,1.953,0.28,5.596,1,7.999
		c8.655-1.615,6.728,4.173,11.998,0c0.239,1.427,1.646,1.687,2,3c-8.191,2.874,6.325-3.322,4,3c10.213-11.121,32-14.946,34.995,5
		c2.917,0.25,3.45-1.883,4.999-3c1.834,6.257-2.813,3.546-3.999,8.999c6.689,3.086,6.643-8.492,10.998-10.999
		c-1.275-3.132-3.197-5.521,1-6.999c-2.909,3.888,2.994,5.875,3,9.999c0.839,1.16,1.318,2.681,1,4.999
		c1.248,7.581-2.621,10.045-3,15.998c-0.695,2.97-3.281,4.051-4.999,6c-5.525,0.193-7.403-3.262-8.999-7
		c-6.725-3.273-16.677-3.32-26.996-3c1.974-4.058-0.49-11.206-3-13.998c-0.326,1.706-2.216,9.356,1,11.999
		c-2.475-0.127-1.7,1.224,0,1c-8.506,4.16-20.953,4.377-30.996,7c0.421-4.421-0.991-7.008-3-8.999
		c-4.222,1.82,0.396,9.249-4.999,7.999c0.24,1.759,1.72,2.279,3.999,2c-20.041,8.054-39.473,11.636-67.991,11.999
		c-0.667,0-1.333,0-2,0C200.775,64.303,227.717,46.916,257.131,32.002z M300.125,49c1.151-1.182,1.132-3.535,1-6
		c-2.955-0.058-2.937-2.081-7.999-2C296.932,45.037,292.232,47.49,300.125,49z M288.127,52c-0.776-0.224-1.973-0.027-2-1
		c0.318-3.318,0.151-6.15-1.999-6.999c1.57-0.095,3.467,0.134,2.999-2c-2.728-0.09-2.013,1.666-3.999,0
		C281.679,44.875,283.745,55.26,288.127,52z M201.138,75.997c4.634-0.033,10.302,0.969,8.999-5
		C205.215,70.742,201.69,71.883,201.138,75.997z"/>
	<path fill-rule="evenodd" clip-rule="evenodd" fill="#466042" d="M275.129,29.003c1.229,0.437,2.053,1.279,1.999,3
		c2.092-2.811,3.758,0.162,5-3c3.4,1.891-1.713,3.505-1,5.999C278.287,33.844,275.192,32.938,275.129,29.003z"/>
	<path fill-rule="evenodd" clip-rule="evenodd" fill="#2C3A2E" d="M328.122,54c2.279,1.386,0.373,6.96,1,9.999
		c-2.092,0.908-3.049,2.951-3,5.999c-0.333,0-0.666,0-1,0C325.501,64.044,329.37,61.58,328.122,54z"/>
	<path fill-rule="evenodd" clip-rule="evenodd" fill="#2C3A2E" d="M179.141,84.996c28.519-0.363,47.95-3.945,67.991-11.999
		c-2.279,0.28-3.759-0.241-3.999-2c5.395,1.25,0.777-6.179,4.999-7.999c2.009,1.991,3.421,4.578,3,8.999
		c10.043-2.623,22.49-2.84,30.996-7c-1.7,0.224-2.475-1.126,0-1c-3.216-2.642-1.326-10.293-1-11.999c2.51,2.792,4.974,9.94,3,13.998
		c10.319-0.321,20.271-0.274,26.996,3c1.596,3.737,3.474,7.192,8.999,7c-7.271,3.728-7.712,14.285-10.999,21.997
		c0,0.333,0,0.667,0,1c-2.434,2.232-2.805,6.527-3.999,9.999c-1.859,9.139-7.707,14.291-11.999,20.998c0.028,0.973,1.225,0.775,2,1
		c0.333,0,0.667,0,1,0c3.022,1.977,8.593,1.406,10.999,3.999c-6.817-0.181-13.527,2.919-14.999-3.999
		c-5.846,7.485-11.478,15.186-17.997,21.997c-1.005-1.329-0.945-3.721-3-4c-11.892-17.104-27.049-30.943-44.994-41.994
		c-0.027-0.973-1.224-0.776-2-1c2.281-2.612,3.187-3.392,5.999-2c18.578-8.644,43.376-27.783,69.991-34.996
		c-11.644-0.365-22.173,7.504-34.995,7c-9.061,9.604-26.702,10.626-35.995,19.998C211.834,92.964,194.964,89.503,179.141,84.996z
		 M304.125,96.994c-1.641,8.7-8.189,17.796-6.999,25.997C299.781,117.022,304.794,101.991,304.125,96.994z M207.137,87.996
		c3.796,0.16,6.337,0.035,3-2c2.873-1.397,5.079,2.725,5.999,0c-2.721-2.006,5.126-1.172,2-4
		C213.976,83.502,207.886,83.078,207.137,87.996z M310.124,80.996c0.073-4.406-1.78-6.885-2.999-9.999
		C307.351,75.104,305.82,80.968,310.124,80.996z"/>
	<path fill-rule="evenodd" clip-rule="evenodd" fill="#466042" d="M309.124,98.994c-1.194,3.471-1.565,7.767-3.999,9.999
		C306.319,105.521,306.69,101.226,309.124,98.994z"/>
	<path fill-rule="evenodd" clip-rule="evenodd" fill="#0D1212" d="M297.126,122.991c-1.19-8.201,5.358-17.297,6.999-25.997
		C304.794,101.991,299.781,117.022,297.126,122.991z"/>
	<path fill-rule="evenodd" clip-rule="evenodd" fill="#5FBC1F" d="M295.126,130.99c-0.775-0.225-1.972-0.027-2-1
		c4.292-6.707,10.14-11.858,11.999-20.998c2.434-2.232,2.805-6.527,3.999-9.999c0-0.333,0-0.667,0-1
		c4.288-10.044,8.098-20.566,16.998-25.997C316.3,93.243,305.119,112.767,295.126,130.99z"/>
	<path fill-rule="evenodd" clip-rule="evenodd" fill="#466042" d="M271.129,148.987c2.055,0.279,1.995,2.671,3,4
		c-1.9,5.766-6.902,8.43-9.999,12.998c-9.14,6.858-15.063,16.933-23.997,23.997c-0.049-2.271,1.982-2.99,1-3.999
		c10.672-7.19,22.609-21.241,31.996-32.996C272.608,151.508,271.649,150.468,271.129,148.987z"/>
	<path fill-rule="evenodd" clip-rule="evenodd" fill="#466042" d="M218.136,81.996c3.126,2.828-4.721,1.994-2,4
		c-0.92,2.725-3.126-1.397-5.999,0c3.337,2.035,0.796,2.16-3,2C207.886,83.078,213.976,83.502,218.136,81.996z"/>
	<path fill-rule="evenodd" clip-rule="evenodd" fill="#466042" d="M325.122,69.998c0.334,0,0.667,0,1,0
		c-0.049-3.048,0.908-5.091,3-5.999c1.135,0.19,0.555,1.003,0,1c-2.002,1.331-2.228,4.438-3,7
		c-8.9,5.431-12.71,15.953-16.998,25.997c3.287-7.712,3.728-18.27,10.999-21.997C321.841,74.048,324.427,72.968,325.122,69.998z"/>
	<path fill-rule="evenodd" clip-rule="evenodd" fill="#BDFD11" d="M326.122,71.998c0.772-2.561,0.998-5.668,3-7
		c0.013,1.987,2.728,1.271,2,4c2.761,6.238,11.149,6.848,14.998,11.999c-18.955,10.375-16.414,42.246-28.997,58.993
		c-7.666-4.342-13.974-11.557-20.997-8.999c-0.333,0-0.667,0-1,0C305.119,112.767,316.3,93.243,326.122,71.998z"/>
	<path fill-rule="evenodd" clip-rule="evenodd" fill="#466042" d="M152.144,103.993c-0.89,0.443-1.789,0.878-2,2
		c2.823-8.515,14.561-16.764,20.998-24.997c0.333,0,0.667,0,1,0c-4.483,6.523-14.629,12.691-15.998,18.998
		c1.577-2.422,3.577-4.422,5.999-6C159.229,97.746,155.896,101.079,152.144,103.993z"/>
	<path fill-rule="evenodd" clip-rule="evenodd" fill="#7A8281" d="M171.142,80.996c-6.437,8.233-18.175,16.482-20.998,24.997
		c0.211-1.122,1.11-1.557,2-2c-3.082,3.584-6.502,6.83-10.999,8.999c1.06-1.529,6.836-6.845,3-10.999c0.353-1.401,1.76-0.086,2,1
		c1.357-0.31,0.83-2.503,1-4c-24.125-0.108-38.337-10.446-63.992-4c-1.686,7.243-17.139,2.471-15.998,14.998
		c7.823,5.508,20.802,5.861,31.996,7.999c-14.5,2.374-29.213,17.057-18.998,31.996c-1.07,2.263-2.269,4.397-4,6
		c4.074-1.606,12.539-7.449,21.998-7c0.168-2.168-3.546-0.452-5-0.999c7.841-1.491,16.525-2.14,23.997-4
		c-0.86,0.807-0.594,2.739-2,3c-12.368,2.297-22.58,6.75-31.996,11.998c0.227,1.44,2.984,0.349,3,2
		c-3.261,0.643-9.602,0.677-14.998-1c-3.056-1.129-4.997-0.324-8.999-2c4.491-3.546-5.017-3.575-2-6.999
		c-3.132,2.099-3.213,1.456-7.999,1c-0.181-3.834,0.819-0.362,3-1c-2.658-2.046-8.276-5.21-10.999-3.999
		c1.233,1.434,3.438,1.894,6,1.999c-0.839,1.161-1.319,2.682-1,5c-4.573-1.447-10.771-6.532-6.999-12.998
		c-2.858-4.809-8.583-6.749-7.999-14.999c-2.558,2.108-1.956,7.377-2,11.999c-0.889,1.778-2.792,2.541-2,5.999
		c-2.28,1.387-0.373,6.96-1,9.999c-1.972,3.777,0.247-4.77-2-4c-5.398,9.106-4.611,33.919,5,30.996c2.244,2.423,4.008,5.324,6.999,7
		c4.902,2.096,9.19,4.808,13.998,6.999c10.876,5.774,27.538,9.603,38.995,1.999c-0.56,1.44-1.56,2.44-3,3
		c6.367,12.532,20.309,19.73,32.996,22.997c-0.744,2.255-5.608,0.391-7.999,1c0.226,1.44,2.984,0.349,3,2
		c-7.437-1.229-14.379-2.952-21.998-4c-0.333,0-0.667,0-1,0c-2.169-1.497-5.628-1.704-8.999-2
		c-19.925-3.405-38.479-8.182-51.994-17.997c-1.2-1.313-0.39-1.573,0-3c-6.571-0.818-15.402-8.932-14.998-14.998
		c-5.308-1.918-7.419-1.444-10.999-3.999c-1.147,0.353-2.534,1.76-1,1.999c-2.709,1.664-4.015-6.616-5.999-8.999
		c0-1.999,0-3.999,0-5.999c2.31-3.355,0.35-10.981,1-15.998c-0.589-3.588,1.162-4.837,2-6.999
		c3.127-4.205,4.371-10.294,6.999-14.998c-0.473-3.139,2.691-2.642,3-4.999c3.474-3.858,7.288-7.378,9.999-11.999
		c1.904-0.429,2.512-2.154,5-2c5.189-1.477,9.499-3.833,11.999-7.999c1.501-4.165,2.837-8.495,5.999-10.999c0,0.667,0,1.333,0,2
		c-2.788,6.659-10.366,13.476-9.999,19.998c0.022,2.355-1.722,2.944-1,5.999c-2.877,5.997,5.268,16.937,3,2c0-2.666,0-5.333,0-7.999
		c3.366,4.873-1.558,19.081,2,20.997c-3.249-31.048,9.942-47.85,27.996-56.993c9.059-4.587,14.849-14.119,20.998-8.999
		c14.229,8.435,35.432,9.896,55.993,11.999c2.366,2.3,8.974,0.358,12.998,1C162.476,80.996,166.809,80.996,171.142,80.996z
		 M65.155,142.988c0.473-4.117-2.691,0.962-3-2.999c3.079-1.588,4.072-5.261,5.999-7.999c-2.767,0.29-7.159,4.096-9.999,1
		c1.975-0.692,2.666-2.668,3-5c-2.833-2.104-7.977,0.165-8.999,3c2.833-0.167,4.167-1.833,7-2c-2.059,2.941-4.522,5.478-6,8.999
		c1.744,2.406,7.412-4.217,8.999,1c-1.427,0.239-1.687,1.646-3,2c-1.337-0.11-5.512-1.874-3,0
		C58.639,142.172,62.041,142.437,65.155,142.988z"/>
	<path fill-rule="evenodd" clip-rule="evenodd" fill="#A4B0B3" d="M93.151,147.988c1.453,0.547,5.168-1.169,5,0.999
		c-9.459-0.449-17.923,5.394-21.998,7c1.73-1.603,2.929-3.737,4-6c-10.215-14.938,4.497-29.622,18.998-31.996
		c-11.193-2.138-24.172-2.491-31.996-7.999c-1.141-12.527,14.312-7.755,15.998-14.998c25.655-6.447,39.867,3.891,63.992,4
		c-0.17,1.496,0.357,3.69-1,4c-0.239-1.086-1.646-2.401-2-1c3.836,4.154-1.939,9.469-3,10.999c4.497-2.169,7.917-5.415,10.999-8.999
		c3.751-2.914,7.084-6.247,9.999-9.999c0.333,0,0.667,0,1,0c0.81-0.19,0.997-1.003,2-1c3.262-2.737,6.794-5.204,9.999-7.999
		c0.667,0,1.333,0,2,0c0.667,0,1.333,0,2,0c15.823,4.507,32.693,7.968,49.994,10.999c0.309,1.357,2.503,0.829,3.999,1
		c-0.241,1.759-1.721,2.279-3.999,2c-3.222,0.445-5.417,1.916-8.999,2c1.232-1.434,3.438-1.894,5.999-2
		c-5.065-0.99-22.5-8.501-38.995-6.999c-9.18,0.836-20.499,4.281-28.997,8.999c-4.119,2.287-16.503,11.798-15.998,13.999
		c0.001,0.003,3.778,0.14,4,0c-3.736,2.363-7.447,0.709-12.998,1c-20.577,1.077-50.802,9.717-44.995,25.997c0.333,0,0.667,0,1,0
		c0.616,3.213-3.599,1.37-1,4c0,0.333,0,0.666,0,1C87.983,149.156,91.698,147.441,93.151,147.988z"/>
	<path fill-rule="evenodd" clip-rule="evenodd" fill="#A4B0B3" d="M86.152,160.986c-0.016-1.651-2.773-0.56-3-2
		c9.417-5.248,19.628-9.701,31.996-11.998c-7.064,4.601-18.18,5.149-23.997,10.998c0.31,1.357,2.504,0.83,4,1
		C94.8,162.302,89.388,160.556,86.152,160.986z"/>
	<path fill-rule="evenodd" clip-rule="evenodd" fill="#466042" d="M32.159,137.989c0.043-4.622-0.559-9.891,2-11.999
		c-0.584,8.25,5.141,10.19,7.999,14.999c-3.772,6.466,2.426,11.551,6.999,12.998c-0.319-2.318,0.161-3.839,1-5
		c-2.561-0.105-4.767-0.565-6-1.999c2.723-1.211,8.341,1.953,10.999,3.999c-2.181,0.638-3.181-2.834-3,1
		c4.786,0.456,4.867,1.099,7.999-1c-3.017,3.424,6.491,3.453,2,6.999c4.002,1.676,5.943,0.871,8.999,2
		c-11.46,1.172-30.086-6.129-36.996-15.998C34.053,141.428,33.593,139.222,32.159,137.989z"/>
	<path fill-rule="evenodd" clip-rule="evenodd" fill="#5FBC1F" d="M331.122,68.998c4.358,3.974,8.997,7.667,15.997,8.999
		c2.347,4.32,4.506,8.826,4,15.998c-0.333,0-0.667,0-1,0c0.016-5.015-1.444-8.554-6.999-7.999
		c-7.005,4.66-10.372,12.958-12.998,21.998c2.862,0.196,5.457,0.124,4.999-3c0.529-0.804,1.043-1.623,1-3
		c1.975,0.519,2.665-5.894,2.999-1c2.853-2.275-1.405-5.86,0-9.999c1.479-0.521,2.521-1.479,4-2c0.89,0.443,1.788,0.878,2,2
		c-0.423,6.088-0.316,11.648,3.999,12.998c0.31,3.642-0.159,6.507-1,8.999c-2.217,0.55-1.423-1.909-2.999-2
		c-2.368,1.631-2.129,5.87-4,7.999c-5.378-0.711-6.994,2.339-7.999,6c0.396,2.937,5.804,0.862,4,5.999c-1.753,1.842-3.474,0.12-3-3
		c-1.87,1.463-1.18,5.486-4.999,5c1.281-3.948-2.914-2.42-3-5c-1.342,0.658-1.862,2.138-2,4c-0.783,3.216-1.371,6.628-2.999,8.999
		c-7.97,1.303-8.406-4.926-13.998-6c-2.406-2.593-7.977-2.022-10.999-3.999c7.023-2.558,13.331,4.657,20.997,8.999
		c12.583-16.747,10.042-48.618,28.997-58.993C342.271,75.846,333.883,75.235,331.122,68.998z M329.122,121.991
		c1.569-1.764,0.28-6.386,2.999-6.999c-1.321-0.012-0.913-1.752-1.999-2C330.297,115.9,326.609,120.056,329.122,121.991z"/>
	<path fill-rule="evenodd" clip-rule="evenodd" fill="#466042" d="M229.135,95.995c9.293-9.372,26.935-10.394,35.995-19.998
		c12.822,0.504,23.352-7.365,34.995-7c-26.615,7.212-51.413,26.352-69.991,34.996c-2.813-1.392-3.718-0.612-5.999,2
		c0.776,0.224,1.973,0.027,2,1c-1.794,0.127-2.109-1.224-4-1c0.353-4.062,9.396-3.362,7-6.999c2.278,0.279,3.758-0.241,3.999-2
		C231.638,96.824,229.443,97.352,229.135,95.995z"/>
	<path fill-rule="evenodd" clip-rule="evenodd" fill="#2C3A2E" d="M343.12,85.996c5.555-0.555,7.015,2.984,6.999,7.999
		c0,2.333,0,4.666,0,6.999c-2.52-2.48-3.037-6.961-4.999-9.999c-0.212-1.122-1.11-1.557-2-2
		C341.92,87.682,342.73,87.423,343.12,85.996z"/>
	<path fill-rule="evenodd" clip-rule="evenodd" fill="#466042" d="M335.121,104.993c0.458,3.124-2.137,3.196-4.999,3
		c2.626-9.039,5.993-17.337,12.998-21.998c-0.39,1.427-1.2,1.687,0,3c-1.479,0.521-2.521,1.479-4,2
		c-1.405,4.138,2.853,7.724,0,9.999c-0.334-4.894-1.024,1.519-2.999,1c1.639-2.42,2.546-4.857,1-7.999
		C335.263,98.324,331.639,103.07,335.121,104.993z"/>
	<path fill-rule="evenodd" clip-rule="evenodd" fill="#466042" d="M163.143,93.995c2.761-4.238,6.998-7,10.999-9.999
		c-1.975,4.023-7.162,4.836-8.999,8.999C164.139,92.992,163.952,93.805,163.143,93.995z"/>
	<path fill-rule="evenodd" clip-rule="evenodd" fill="#7A8281" d="M165.143,92.995c1.836-4.163,7.023-4.975,8.999-8.999
		c0.333,0,0.667,0,1,0c0,0.333,0,0.667,0,1C171.937,87.791,168.405,90.258,165.143,92.995z"/>
	<path fill-rule="evenodd" clip-rule="evenodd" fill="#2C3A2E" d="M321.123,140.989c1.628-2.371,2.216-5.783,2.999-8.999
		c0.891-0.777,2.259-1.075,4-1c0.438,3.438-0.396,5.604-1,7.999C323.387,137.92,324.272,141.472,321.123,140.989z"/>
	<path fill-rule="evenodd" clip-rule="evenodd" fill="#466042" d="M345.12,90.995c1.962,3.037,2.479,7.519,4.999,9.999
		c0-2.333,0-4.666,0-6.999c0.333,0,0.667,0,1,0s0.666,0,1,0c-1.367,2.962,0.586,4.354,0,8.999c-2.18,2.486-0.292,9.04-3,10.999
		c-1.912,1.145-5.384,5.871-2.999,7.999c-0.523,5.143-2.779,8.553-2,14.998c-0.334,0-0.667,0-1,0
		c-1.804,7.528-9.934,8.73-12.998,14.998c-3.651-0.016-4.49-2.842-7-3.999c1.502-1.498,2.992-3.008,4-5c0-1.333,0-2.666,0-3.999
		c0.604-2.395,1.438-4.562,1-7.999c-1.741-0.075-3.109,0.223-4,1c0.138-1.862,0.658-3.342,2-4c0.086,2.58,4.281,1.052,3,5
		c3.819,0.486,3.129-3.537,4.999-5c-0.474,3.12,1.247,4.842,3,3c1.804-5.137-3.604-3.063-4-5.999c1.005-3.661,2.621-6.711,7.999-6
		c1.871-2.129,1.632-6.367,4-7.999c1.576,0.09,0.782,2.55,2.999,2c0.841-2.492,1.31-5.357,1-8.999
		C344.804,102.643,344.697,97.083,345.12,90.995z M342.12,131.99c0.218-3.165,4.007-7.925,1-10.999
		C342.501,124.715,337.456,128.823,342.12,131.99z M341.12,132.99c-0.446,1.966-3.709,6.183-1,7.999
		C339.828,138.284,344.298,135.273,341.12,132.99z M332.121,141.988c0-0.666,0-1.333,0-1.999c-3.643,1.356-4.169,5.829-5.999,8.998
		c1.987,0.014,1.271,2.729,4,2c0.798-1.868,1.67-3.662,1.999-5.999c1.714-1.726,3.932,1.47,4-3
		C334.788,141.988,333.455,141.988,332.121,141.988z"/>
	<path fill-rule="evenodd" clip-rule="evenodd" fill="#2C3A2E" d="M327.122,142.988c-1.008,1.992-2.498,3.502-4,5
		c2.51,1.157,3.349,3.983,7,3.999c3.064-6.268,11.194-7.47,12.998-14.998c0.844,4.177-1.943,4.723-2,7.999
		c-4.495,3.837-6.913,9.751-15.998,8.999c0-0.333,0-0.667,0-1c1,0,2,0,3,0c-2.377-2.623-7.701-2.298-8.999-5.999
		C320.051,143.916,325.384,145.25,327.122,142.988z"/>
	<path fill-rule="evenodd" clip-rule="evenodd" fill="#A4B0B3" d="M154.144,115.992c-0.894-2.076,6.81-0.273,3-2
		c11.186-1.229,24.097-5.094,44.994-8.999c0.19,0.81,1.003,0.997,1,2c-1.162-0.163-1.779,0.221-2,1
		c-11.039,1.292-21.089,3.574-30.996,5.999c-4.845-0.179-8.013,1.319-11.999,2C156.81,115.992,155.477,115.992,154.144,115.992z"/>
	<path fill-rule="evenodd" clip-rule="evenodd" fill="#FFFFFF" d="M139.146,120.991c-0.19,0.81-1.003,0.997-1,2
		c0.694-1.973,5.579,0.246,6-2c10.179-1.486,19.169-4.161,28.996-5.999c4.889-0.444,8.607-2.059,13.999-2c1.333,0,2.666,0,3.999,0
		c-0.353,1.313-1.76,1.573-1.999,3c-21.345,9.985-47.438,15.221-66.992,26.997c-1.085,0.247-0.678,1.988-2,2
		c26.611-6.719,57.707-17.616,83.99-27.997c-1.588,17.076-31.318,18.862-29.997,44.995c2.396,3.937,8.439,4.226,14.999,3.999
		c-1.874,4.459-4.686,7.979-6,12.999c-3.165,6.833-6.315,13.681-7.999,21.997c-1.017,0.649-1.034,2.299-3,2
		c-4.883-4.137-12.909-13.17-21.998-11.999c-11.703,1.508-14.029,18.399-20.997,22.997c-13.982-3.017-24.024-9.972-31.996-18.997
		c5.648-9.684,16.864-13.799,22.997-22.997c-1.479,0.52-2.52,1.479-4,1.999c10.371-15.626,29.489-22.504,42.995-34.995
		c-16.496,6.501-32.754,13.24-50.994,17.997c-1.419-0.085-2.832-0.165-3,1c-3.868-0.534-4.881,1.785-8.999,1c-0.333,0-0.667,0-1,0
		c-1.496-0.17-3.69,0.357-4-1c5.817-5.849,16.933-6.397,23.997-10.998c1.406-0.261,1.14-2.193,2-3c0.89-0.443,1.788-0.878,2-2
		c-3.109-2.391-7.961,2-12.998,1c-1.701,0.368-1.887-0.779-2-1.999c-3.433,0.566-6.117,1.882-7.999,3.999c-1,0-2,0-3,0
		c0.319-2.348,3.095-2.238,4-3.999c8.378-5.621,17.773-10.224,27.997-13.999c0.804-0.528,1.623-1.043,3-1
		c2.285-1.381,6.238-1.094,5.999-4.999c-2.931-0.898-10.539,2.101-13.998,4c-4.107,0.225-6.548,2.117-8.999,3.999
		c-6.135,1.53-10.282,5.049-14.998,7.999c-3.865,0.134-3.944,4.056-6.999,4.999c-0.333,0-0.667,0-1,0
		c-5.807-16.279,24.417-24.92,44.995-25.997c5.551-0.29,9.262,1.364,12.998-1c-0.222,0.14-3.999,0.003-4,0
		c-0.505-2.2,11.879-11.711,15.998-13.999c8.498-4.718,19.817-8.163,28.997-8.999c16.495-1.502,33.93,6.009,38.995,6.999
		c-2.561,0.105-4.767,0.566-5.999,2c-6.304,1.029-11.802,2.864-17.998,4c-20.897,3.905-33.808,7.771-44.994,8.999
		c3.81,1.727-3.894-0.077-3,2C147.771,116.286,141.321,116.5,139.146,120.991z M104.15,140.989
		c8.194-2.805,17.583-4.415,22.997-9.999C118.023,132.865,110.289,136.129,104.15,140.989z M154.144,123.991
		c4.364-0.303,8.293-1.04,10.999-3C160.939,121.454,155.829,121.01,154.144,123.991z M132.146,130.99
		c4.433-1.566,9.808-2.19,12.999-5C140.362,127.207,133.333,126.178,132.146,130.99z"/>
	<path fill-rule="evenodd" clip-rule="evenodd" fill="#A4B0B3" d="M187.14,112.992c3.166-2.167,9.159-1.506,12.998-3
		c-0.247,1.086-1.988,0.678-1.999,2c-2.853,1.48-6.529,2.137-8.999,4c0.239-1.427,1.646-1.686,1.999-3
		C189.806,112.992,188.473,112.992,187.14,112.992z"/>
	<path fill-rule="evenodd" clip-rule="evenodd" fill="#A4B0B3" d="M183.14,178.984c1.314-5.02,4.126-8.54,6-12.999
		c-6.56,0.227-12.603-0.063-14.999-3.999c-1.321-26.133,28.409-27.919,29.997-44.995c-26.283,10.38-57.378,21.278-83.99,27.997
		c1.321-0.012,0.914-1.753,2-2c27.71-6.618,51.876-16.782,74.991-27.996c6.371,0.872,13.228-5.075,18.997-7.999
		c1.852,1.595-4.209,3.732-5.999,4.999c5.237,0.849,12.119-3.379,16.998-3.999c-3.749,2.981,1.321,0.655,3.999,3
		c-2.08-0.576-10.506,2.651-4.999,5.999c-3.261,1.41-2.376-0.888-2,5c-1.614,0.281-1.721-0.945-2.999-1
		c-1.693,9.038,3.724,12.504,7.999,17.998c-4.277,2.243-13.457,0.815-17.998,0c0.649,1.017,2.299,1.034,2,2.999
		C197.667,148.851,191.352,164.865,183.14,178.984z"/>
	<path fill-rule="evenodd" clip-rule="evenodd" fill="#A4B0B3" d="M175.141,200.981c-1.882,7.117-3.668,14.329-6,20.997
		c-4.631-2.773-12.504-6.565-20.997-2.999c0.256,2.076,4.393,0.272,5,1.999c-5.309,3.066-13.495,1.767-19.998,5
		c3.962,1.703,8.093,3.238,11.999,4.999c0.184,0.851-0.39,0.943-1,1c-5.774-1.688-8.761-3.774-15.998-4
		c-4.856-1.58-6.249-1.615-10.999-1.999c-0.016-1.651-2.773-0.56-3-2c2.391-0.609,7.254,1.255,7.999-1
		c-12.687-3.267-26.629-10.465-32.996-22.997c1.44-0.56,2.44-1.56,3-3c-11.458,7.604-28.119,3.775-38.995-1.999
		c6.908,0.13,11.222,3.408,15.998,3.999c23.913,2.96,33.739-15.276,46.994-24.997c1.479-0.52,2.52-1.479,4-1.999
		c-6.133,9.198-17.349,13.313-22.997,22.997c7.972,9.025,18.014,15.98,31.996,18.997c6.968-4.598,9.294-21.489,20.997-22.997
		c9.088-1.171,17.114,7.862,21.998,11.999C174.107,203.28,174.124,201.631,175.141,200.981z"/>
	<path fill-rule="evenodd" clip-rule="evenodd" fill="#7A8281" d="M96.151,144.988c1.882-2.117,4.566-3.433,7.999-3.999
		c0.113,1.22,0.299,2.367,2,1.999c-2.169,1.498-5.628,1.705-8.999,2C96.817,144.988,96.484,144.988,96.151,144.988z"/>
	<path fill-rule="evenodd" clip-rule="evenodd" fill="#7A8281" d="M229.135,98.994c2.396,3.637-6.647,2.938-7,6.999
		c1.891-0.224,2.206,1.127,4,1c17.945,11.051,33.103,24.89,44.994,41.994c0.521,1.48,1.479,2.521,2,4
		c-9.387,11.755-21.324,25.806-31.996,32.996c0.982,1.009-1.049,1.729-1,3.999c-0.529,0.805-1.043,1.623-1,3
		c-2.274,0.725-0.298,5.701-3.999,4.999c0-2,0-3.999,0-5.999c1.54-5.143,1.754-16.888,0-21.997
		c-1.704-10.562-10.527-21.49-22.997-14.998c-2.729-0.729-2.013,1.986-4,1.999c-4.521,3.145-7.779,7.553-10.998,11.999
		c-3.134,6.532-7.036,12.295-9.999,18.998c-0.973,0.027-0.776,1.224-1,1.999c-0.556,2.177-3.538,7.037-2,7.999
		c-3.222,5.111-4.419,12.245-4.999,19.998c-1.484,1.849-1.915,4.75-2,7.999c0,0.666,0,1.333,0,1.999
		c-2.3,2.366-0.357,8.975-1,12.999c0,0.333,0,0.666,0,1c-1.768,0.898-2.919,2.413-5,2.999c-1.163-0.162-1.779,0.221-2,1
		c-5.243-2.089-7.489-7.176-14.998-6.999c0-0.333,0-0.667,0-1c4.302-2.048-7.874-3.823-8.999-6.999
		c-3.906-1.761-8.036-3.296-11.999-4.999c6.502-3.233,14.688-1.934,19.998-5c-0.607-1.727-4.743,0.077-5-1.999
		c8.493-3.566,16.366,0.226,20.997,2.999c2.331-6.668,4.118-13.88,6-20.997c1.683-8.316,4.833-15.164,7.999-21.997
		c8.212-14.119,14.527-30.134,29.997-36.996c0.299-1.965-1.351-1.982-2-2.999c4.541,0.815,13.721,2.243,17.998,0
		c-4.275-5.494-9.692-8.96-7.999-17.998c1.278,0.055,1.385,1.281,2.999,1c-0.376-5.887-1.261-3.59,2-5
		c-5.507-3.348,2.919-6.575,4.999-5.999c-2.678-2.344-7.748-0.019-3.999-3c-4.879,0.62-11.761,4.848-16.998,3.999
		c1.79-1.267,7.851-3.404,5.999-4.999c-5.77,2.924-12.626,8.871-18.997,7.999c0.24-1.759,1.72-2.279,3.999-2
		c3.225-0.775,5.909-2.09,7.999-4c3.528-0.138,4.471-2.861,7.999-3c-4.215-3.169-8.921,1.71-13.998,1c0.003-1.003-0.81-1.19-1-2
		c6.196-1.136,11.694-2.971,17.998-4C223.718,100.91,225.913,99.439,229.135,98.994z"/>
	<path fill-rule="evenodd" clip-rule="evenodd" fill="#466042" d="M35.159,118.991c-0.49,3.156,1.802,3.531,1,6.999
		c2.784,0.451-0.784-5.449,2-4.999C40.426,135.928,32.281,124.988,35.159,118.991z"/>
	<path fill-rule="evenodd" clip-rule="evenodd" fill="#466042" d="M0.163,172.984c1.984,2.383,3.29,10.663,5.999,8.999
		c-1.534-0.239-0.147-1.646,1-1.999c3.579,2.555,5.69,2.081,10.999,3.999c-0.404,6.066,8.427,14.18,14.998,14.998
		c-0.39,1.427-1.2,1.687,0,3c-2.554-0.112-3.5-1.833-4.999-3c-1.172,0.161-0.844,1.823-1,3c-4.444,0.444-5.291-2.709-7.999-4
		c-3.39-5.275-9.382-7.949-11.999-13.998c-1.313,0.354-1.573,1.761-3,2c-0.333,0-0.667,0-1,0
		C2.298,181.515,0.139,178.342,0.163,172.984z"/>
	<path fill-rule="evenodd" clip-rule="evenodd" fill="#466042" d="M203.138,106.993c5.077,0.71,9.783-4.169,13.998-1
		c-3.528,0.138-4.471,2.861-7.999,3c0.19-0.81,1.003-0.997,1-2c-3.922,0.925-3.716,2.178-7.999,1c-0.333,0-0.667,0-1,0
		C201.358,107.214,201.976,106.831,203.138,106.993z"/>
	<path fill-rule="evenodd" clip-rule="evenodd" fill="#0D1212" d="M202.138,107.993c4.283,1.178,4.077-0.075,7.999-1
		c0.003,1.003-0.81,1.19-1,2c-3.745,0.254-6.43,1.569-7.999,4c-2.279-0.279-3.759,0.241-3.999,2
		c-23.115,11.214-47.281,21.378-74.991,27.996c19.554-11.775,45.647-17.012,66.992-26.997c2.47-1.863,6.146-2.519,8.999-4
		C201.495,112.425,204.04,109.88,202.138,107.993z"/>
	<path fill-rule="evenodd" clip-rule="evenodd" fill="#2C3A2E" d="M201.138,112.992c1.569-2.43,4.254-3.745,7.999-4
		C207.047,110.902,204.362,112.217,201.138,112.992z"/>
	<path fill-rule="evenodd" clip-rule="evenodd" fill="#466042" d="M239.133,192.982c0.717,3.773-3.422,7.833-4.999,5.999
		c0-1.333,0-2.666,0-3.999c-0.086-1.419-0.165-2.832,1-3c0,2,0,3.999,0,5.999C238.835,198.684,236.858,193.707,239.133,192.982z"/>
	<path fill-rule="evenodd" clip-rule="evenodd" fill="#2C3A2E" d="M208.137,156.986c1.987-0.013,1.271-2.728,4-1.999
		c-0.027,0.972-1.224,0.775-2,1c-0.45,2.783,5.45-0.784,4.999,1.999c-0.666,0-1.333,0-1.999,0c-2.48-0.146-4.853-0.186-5,2
		C206.653,159.55,208.531,158.707,208.137,156.986z"/>
	<path fill-rule="evenodd" clip-rule="evenodd" fill="#466042" d="M208.137,156.986c0.395,1.721-1.483,2.563,0,3
		c0.147-2.186,2.52-2.146,5-2c-2.957,2.296-12.02,3.687-6.999,7.999c-2.826-0.826-2.591,1.409-5,1c-0.729,2.729,1.987,2.013,2,4
		c-2.039-0.295-1.961-2.706-4-3c-0.81,0.19-0.996,1.003-1.999,1C200.357,164.539,203.616,160.131,208.137,156.986z"/>
	<path fill-rule="evenodd" clip-rule="evenodd" fill="#466042" d="M186.14,189.982c0.851-0.184,0.943,0.391,1,1
		c-0.838,2.162-2.589,3.411-2,6.999c-0.333,0-0.666,0-1,0C182.602,197.02,185.584,192.159,186.14,189.982z"/>
	<path fill-rule="evenodd" clip-rule="evenodd" fill="#2C3A2E" d="M154.144,238.977c7.509-0.177,9.755,4.91,14.998,6.999
		c0.221-0.779,0.837-1.162,2-1c0.443,1.454,0.878-0.102,2,0c-8.968,8.564-19.725-5.737-33.996-3.999c0.31-1.357,2.503-0.83,4-1
		c-0.31-1.357-2.503-0.83-4-1c0-0.333,0-0.667,0-1C144.61,236.949,147.99,238.869,154.144,238.977z"/>
	<path fill-rule="evenodd" clip-rule="evenodd" fill="#2C3A2E" d="M170.142,113.992c9.907-2.425,19.957-4.707,30.996-5.999
		c0.333,0,0.667,0,1,0c1.902,1.887-0.643,4.432-3.999,3.999c0.011-1.321,1.752-0.914,1.999-2c-3.839,1.493-9.832,0.833-12.998,3
		c-5.392-0.059-9.109,1.556-13.999,2C172.98,113.82,171.318,114.148,170.142,113.992z"/>
	<path fill-rule="evenodd" clip-rule="evenodd" fill="#2C3A2E" d="M349.119,113.992c-0.317,3.349-1.029,6.303-2.999,7.999
		C343.735,119.863,347.207,115.137,349.119,113.992z"/>
	<path fill-rule="evenodd" clip-rule="evenodd" fill="#2C3A2E" d="M139.146,120.991c1.904-0.429,2.512-2.154,5-2
		c-0.615,0.891-1.208,1.789,0,2c-0.42,2.246-5.306,0.027-6,2C138.143,121.988,138.956,121.801,139.146,120.991z"/>
	<path fill-rule="evenodd" clip-rule="evenodd" fill="#466042" d="M120.148,124.991c3.459-1.899,11.067-4.898,13.998-4
		c0.239,3.905-3.714,3.618-5.999,4.999c0.279-2.054,2.67-1.995,4-2.999c-0.742-0.999-7.656,0.286-8.999,2c-0.333,0-0.667,0-1,0
		C121.481,124.991,120.814,124.991,120.148,124.991z"/>
	<path fill-rule="evenodd" clip-rule="evenodd" fill="#2C3A2E" d="M123.147,124.991c1.343-1.714,8.257-2.999,8.999-2
		c-1.329,1.004-3.721,0.945-4,2.999c-1.376-0.043-2.195,0.472-3,1C124.704,126.101,124.27,125.202,123.147,124.991z"/>
	<path fill-rule="evenodd" clip-rule="evenodd" fill="#A4B0B3" d="M165.143,120.991c-2.706,1.96-6.635,2.697-10.999,3
		C155.829,121.01,160.939,121.454,165.143,120.991z"/>
	<path fill-rule="evenodd" clip-rule="evenodd" fill="#A4B0B3" d="M343.12,120.991c3.007,3.074-0.782,7.834-1,10.999
		C337.456,128.823,342.501,124.715,343.12,120.991z"/>
	<path fill-rule="evenodd" clip-rule="evenodd" fill="#0D1212" d="M111.149,129.99c3.321-2.012,7.327-3.339,10.999-4.999
		c0.333,0,0.667,0,1,0c1.122,0.211,1.557,1.109,2,1.999c-10.223,3.775-19.619,8.378-27.997,13.999c-2.896-0.561,1.534-1.561,1-3
		c0.81-0.19,0.997-1.003,2-1C103.473,134.313,107.249,132.09,111.149,129.99z"/>
	<path fill-rule="evenodd" clip-rule="evenodd" fill="#5FBC1F" d="M34.159,143.988c6.91,9.869,25.536,17.17,36.996,15.998
		c5.396,1.677,11.737,1.643,14.998,1c3.235-0.431,8.648,1.315,8.999-2c0.333,0,0.667,0,1,0c1,2.867,7.75,2.065,8.999-1
		c0.168-1.165,1.581-1.085,3-1c1.822,2.54-5.575,4.386-5.999,7.999C78.387,162.605,48.149,169.462,34.159,143.988z"/>
	<path fill-rule="evenodd" clip-rule="evenodd" fill="#2C3A2E" d="M111.149,128.99c2.451-1.882,4.892-3.774,8.999-3.999
		c0.667,0,1.333,0,2,0c-3.672,1.66-7.678,2.987-10.999,4.999C111.149,129.657,111.149,129.323,111.149,128.99z"/>
	<path fill-rule="evenodd" clip-rule="evenodd" fill="#466042" d="M56.156,140.989c-2.512-1.874,1.663-0.11,3,0
		c1.313-0.354,1.572-1.761,3-2c-1.587-5.217-7.255,1.406-8.999-1c1.478-3.521,3.941-6.058,6-8.999c-2.833,0.167-4.167,1.833-7,2
		c1.022-2.835,6.166-5.104,8.999-3c-0.334,2.332-1.025,4.308-3,5c2.839,3.096,7.232-0.71,9.999-1
		c-1.927,2.738-2.92,6.411-5.999,7.999c0.309,3.961,3.472-1.118,3,2.999C62.041,142.437,58.639,142.172,56.156,140.989z"/>
	<path fill-rule="evenodd" clip-rule="evenodd" fill="#0D1212" d="M145.145,125.99c-3.19,2.81-8.565,3.434-12.999,5
		C133.333,126.178,140.362,127.207,145.145,125.99z"/>
	<path fill-rule="evenodd" clip-rule="evenodd" fill="#466042" d="M96.151,136.989c4.716-2.95,8.863-6.469,14.998-7.999
		c0,0.333,0,0.667,0,1c-3.9,2.1-7.676,4.322-10.999,6.999c0.19-0.81,1.003-0.997,1-2C99.16,134.78,96.879,139.229,96.151,136.989z"
		/>
	<path fill-rule="evenodd" clip-rule="evenodd" fill="#0D1212" d="M274.129,152.987c6.52-6.812,12.151-14.512,17.997-21.997
		c1.472,6.918,8.182,3.818,14.999,3.999c5.592,1.074,6.028,7.303,13.998,6c3.149,0.482,2.264-3.069,5.999-2c0,1.333,0,2.666,0,3.999
		c-1.738,2.262-7.071,0.928-7.999,4c1.298,3.701,6.622,3.376,8.999,5.999c-1,0-2,0-3,0c-8.513-0.819-10.523-8.141-17.997-9.999
		c-21.986,14.677-43.76,29.565-62.992,46.994c-1.44,0.56-2.44,1.56-3,3c3.646-9.024,16.075-17.917,22.997-26.997
		C267.227,161.417,272.229,158.753,274.129,152.987z"/>
	<path fill-rule="evenodd" clip-rule="evenodd" fill="#0D1212" d="M127.147,130.99c-5.414,5.584-14.803,7.194-22.997,9.999
		C110.289,136.129,118.023,132.865,127.147,130.99z"/>
	<path fill-rule="evenodd" clip-rule="evenodd" fill="#7A8281" d="M96.151,136.989c0.729,2.239,3.009-2.209,5-2
		c0.003,1.003-0.81,1.19-1,2c-1.003-0.003-1.19,0.81-2,1c-4.07,1.929-6.45,5.549-9.999,7.999c-2.599-2.63,1.616-0.787,1-4
		C92.207,141.045,92.286,137.123,96.151,136.989z"/>
	<path fill-rule="evenodd" clip-rule="evenodd" fill="#BDFD11" d="M116.148,173.984c-13.255,9.721-23.082,27.957-46.994,24.997
		c-4.776-0.591-9.09-3.869-15.998-3.999c-4.808-2.191-9.096-4.903-13.998-6.999c-9.206-9.689-10.04-26.385-8.999-43.995
		c-0.792-3.458,1.111-4.221,2-5.999c1.434,1.232,1.894,3.438,2,5.999c13.991,25.474,44.229,18.617,67.992,20.997
		c0.424-3.613,7.821-5.459,5.999-7.999c18.24-4.757,34.498-11.496,50.994-17.997C145.637,151.48,126.52,158.358,116.148,173.984z"/>
	<path fill-rule="evenodd" clip-rule="evenodd" fill="#2C3A2E" d="M88.152,145.988c3.549-2.45,5.929-6.07,9.999-7.999
		c0.534,1.439-3.896,2.439-1,3c-0.905,1.761-3.681,1.651-4,3.999c1,0,2,0,3,0c0.333,0,0.667,0,1,0c-2.849,3.054-7.497-1.636-8.999,2
		C88.152,146.654,88.152,146.321,88.152,145.988z"/>
	<path fill-rule="evenodd" clip-rule="evenodd" fill="#A4B0B3" d="M30.159,143.988c-1.041,17.61-0.207,34.306,8.999,43.995
		c-2.991-1.676-4.755-4.577-6.999-7c-9.61,2.923-10.398-21.89-5-30.996c2.246-0.77,0.027,7.777,2,4
		C29.787,150.948,27.879,145.375,30.159,143.988z M27.16,161.986c-1.879,2.003-3.829,9.654,1,9.999
		C32.572,170.258,28.436,164.188,27.16,161.986z"/>
	<path fill-rule="evenodd" clip-rule="evenodd" fill="#2C3A2E" d="M216.136,157.986c1.278,1.389,4.721,0.612,5.999,2
		c-0.475,6.808,5.006,7.66,6,12.998c-1.313-0.353-1.573-1.76-3-1.999c-1.483-1.184-1.556-3.777-3-5
		c-0.247-1.086-1.987-0.678-1.999-1.999c2.433-0.628,0.529-5.053-2-4C217.246,159.543,216.348,159.108,216.136,157.986z"/>
	<path fill-rule="evenodd" clip-rule="evenodd" fill="#5FBC1F" d="M213.137,157.986c0.666,0,1.333,0,1.999,0c0.334,0,0.667,0,1,0
		c0.212,1.122,1.11,1.557,2,2c0,1.333,0,2.666,0,4c0,0.999,0,1.999,0,2.999s0,2,0,3c-1.434,1.232-1.895,3.438-2,5.999
		c-2.357,0.309-1.86,3.473-4.999,3c-0.889-2.111-3.044-2.955-3-6c0.589-3.588-1.162-4.837-1.999-6.999
		C201.117,161.673,210.18,160.282,213.137,157.986z M215.136,160.986c-4.422-0.09-7.216,1.449-8.998,3.999
		c0.778,0.222,1.162,0.838,0.999,2C211.112,166.294,212.072,162.589,215.136,160.986z"/>
	<path fill-rule="evenodd" clip-rule="evenodd" fill="#466042" d="M208.137,172.984c-0.044,3.045,2.111,3.889,3,6
		c3.139,0.473,2.642-2.691,4.999-3c0.127,1.794-1.224,2.109-1,4c2.076-0.592,3.409-1.925,4-4c0.333,0,0.666,0,1,0
		c-1.871,6.128-6.724,9.275-7.999,15.998c-2.887,0.78-2.496,4.837-4,6.999c-0.666,0-1.333,0-1.999,0c-1.2-1.313-0.391-1.572,0-3
		c-5.489-2.003-7.267-7.852-6-13.998c-0.162-1.162,0.221-1.778,1-1.999c-0.091,5.757,0.486,10.846,3,13.998
		c8.227-0.168,5.424-21.169,0-18.998c-0.529-0.804-1.043-1.623-1-2.999C204.298,172.824,205.818,173.304,208.137,172.984z"/>
	<path fill-rule="evenodd" clip-rule="evenodd" fill="#2C3A2E" d="M199.138,167.985c2.039,0.294,1.961,2.705,4,3
		c0,0.333,0,0.666,0,1c-6.009,0.471-7.307,13.915-11.999,18.997c-1.333,0-2.666,0-3.999,0c-0.057-0.609-0.149-1.184-1-1
		c0.224-0.775,0.027-1.972,1-1.999c-0.163,1.162,0.221,1.778,1,1.999C190.064,181.728,201.344,173.903,199.138,167.985z"/>
	<path fill-rule="evenodd" clip-rule="evenodd" fill="#466042" d="M225.135,170.985c1.427,0.239,1.687,1.646,3,1.999
		c1.849-0.15,0.613-3.386,1.999-3.999c1.753,0.914,3.475,1.858,3,4.999c-0.333,0-0.667,0-1,0c-3.21,3.789-5.473,8.525-4.999,15.998
		c3.281,1.687,4.408-0.531,6.999-1.999c-0.19,0.81-1.003,0.996-1,1.999c-2.933,1.4,0.933,9.599-2,10.999c0-3,0-5.999,0-8.999
		c-6.267,2.479-7.298,1.718-14.998,3.999c3.218-4.114,7.932-6.733,8.999-12.998c1.598-1.402,2.555-3.444,3-5.999
		C231.153,174.858,225.271,173.261,225.135,170.985z"/>
	<path fill-rule="evenodd" clip-rule="evenodd" fill="#A4B0B3" d="M221.136,173.984c2.739-2.621,4.912,0.964,5.999,3
		c0.189-1.135,1.003-0.556,1,0c-0.445,2.555-1.402,4.597-3,5.999c-1.484-0.437,0.395-1.279,0-2.999
		c-3.034,4.109-11.237,20.488-12.998,12.998c3.628,2.661,15.413-20.318,8.999-17.998
		C221.136,174.651,221.136,174.318,221.136,173.984z"/>
	<path fill-rule="evenodd" clip-rule="evenodd" fill="#2C3A2E" d="M218.136,169.985c0.294,2.039,2.705,1.961,3,3.999
		c0,0.334,0,0.667,0,1c-0.334,0-0.667,0-1,0c-2.039,1.745-1.961-0.744-4,1C216.241,173.424,216.702,171.218,218.136,169.985z"/>
	<path fill-rule="evenodd" clip-rule="evenodd" fill="#7A8281" d="M201.138,179.984c-0.696-3.363,2.056-3.278,3-5
		c5.424-2.171,8.227,18.83,0,18.998C201.624,190.83,201.047,185.741,201.138,179.984z"/>
	<path fill-rule="evenodd" clip-rule="evenodd" fill="#2C3A2E" d="M200.138,181.983c-1.267,6.146,0.511,11.995,6,13.998
		c-0.391,1.428-1.2,1.687,0,3c0.666,0,1.333,0,1.999,0c0.333,0,0.667,0,1,0c2.028,4.013,9.393-0.539,9.999,3
		c-0.646,2.521-5.2-1.089-5.999,4.999c-0.667,0-1.334,0-2,0c-0.333,0-0.667,0-1,0c-3.144-2.609-6.914-1.821-9.999,0
		c0.529-0.804,1.043-1.623,1-3c-1.07-3.595-2.78-6.551-4.999-8.998c-2.182-0.182-3.182,0.818-3,2.999
		c-2.355-0.845,0.832-4.386,1-5.999c3.55-0.045,1.449-9.049,4.999-5.999C199.222,184.4,198.657,182.169,200.138,181.983z
		 M206.138,198.981c-4.527,0.489-5.873-7.408-9.999-3.999C198.883,196.424,203.828,203.414,206.138,198.981z"/>
	<path fill-rule="evenodd" clip-rule="evenodd" fill="#0D1212" d="M216.136,175.984c2.039-1.744,1.961,0.745,4-1
		c0,0.333,0,0.667,0,1c-0.334,0-0.667,0-1,0c-0.591,2.075-1.924,3.408-4,4C214.912,178.094,216.263,177.778,216.136,175.984z"/>
	<path fill-rule="evenodd" clip-rule="evenodd" fill="#2C3A2E" d="M4.163,185.983c1.427-0.239,1.686-1.646,3-2
		c2.616,6.049,8.608,8.723,11.999,13.998c-4.267-4.065-9.396-7.269-11.999-12.998c-4.944,2.424,1.831,6.468,3,8.999
		C7.463,192.015,3.757,191.055,4.163,185.983z"/>
	<path fill-rule="evenodd" clip-rule="evenodd" fill="#2C3A2E" d="M235.134,169.985c1.754,5.109,1.54,16.854,0,21.997
		c-1.165,0.168-1.086,1.581-1,3c-2.168,0.168-0.453-3.547-1-5c-0.003-1.003,0.81-1.189,1-1.999c0-2.667,0-5.333,0-7.999
		C236.414,178.598,234.507,173.024,235.134,169.985z"/>
	<path fill-rule="evenodd" clip-rule="evenodd" fill="#FFFFFF" d="M212.137,191.982c1.275-6.723,6.128-9.87,7.999-15.998
		c0-0.333,0-0.667,0-1c0.333,0,0.666,0,1,0c6.414-2.32-5.371,20.659-8.999,17.998C212.137,192.649,212.137,192.315,212.137,191.982z
		"/>
	<path fill-rule="evenodd" clip-rule="evenodd" fill="#7A8281" d="M225.135,182.983c-1.067,6.265-5.781,8.884-8.999,12.998
		c7.7-2.281,8.731-1.52,14.998-3.999c0,3,0,5.999,0,8.999c-0.547,1.453,1.169,5.168-1,4.999c0-3.666,0-7.332,0-10.998
		c-3.466,0.2-6.499,0.832-5.999,4.999c-0.333,0-0.666,0-1,0c-3.28-3.928-9.422,0.976-13.998-1c-0.333,0-0.667,0-1,0
		c1.504-2.162,1.113-6.219,4-6.999c0,0.333,0,0.667,0,1c1.761,7.49,9.964-8.889,12.998-12.998
		C225.529,181.704,223.65,182.547,225.135,182.983z"/>
	<path fill-rule="evenodd" clip-rule="evenodd" fill="#A4B0B3" d="M223.135,199.981c0.334,0,0.667,0,1,0
		c-0.5-4.167,2.533-4.799,5.999-4.999c0,3.666,0,7.332,0,10.998c0.319,2.319-0.16,3.839-0.999,5c-0.334,0-0.667,0-1,0
		c-0.785-4.118,1.534-5.132,1-8.999c-1.136-1.586-3.345,2.865-4-2c-1.44,0.227-0.349,2.984-2,3
		C223.135,201.981,223.135,200.981,223.135,199.981z"/>
	<path fill-rule="evenodd" clip-rule="evenodd" fill="#466042" d="M211.137,206.98c0.666,0,1.333,0,2,0
		c0.799-6.088,5.354-2.479,5.999-4.999c-0.606-3.539-7.971,1.013-9.999-3c4.576,1.976,10.718-2.928,13.998,1c0,1,0,2,0,3
		c-1.172,0.161-0.843,1.822-1,2.999c-1.171,0.161-0.843,1.823-0.999,3c-1,0-2,0-3,0C218,206.116,211.272,209.845,211.137,206.98z"/>
	<path fill-rule="evenodd" clip-rule="evenodd" fill="#466042" d="M85.152,219.979c3.371,0.296,6.83,0.503,8.999,2
		c-4.775-0.475-5.674,0.425-3,3C88.875,223.588,87.278,221.52,85.152,219.979z"/>
	<path fill-rule="evenodd" clip-rule="evenodd" fill="#2C3A2E" d="M264.13,165.985c-6.922,9.08-19.352,17.973-22.997,26.997
		c0.56-1.44,1.56-2.44,3-3c-11.184,12.48-11.6,35.729-22.997,47.994c-3.487-0.253-6.839,2.32-8.999,5.999
		c-1.066,3.267-5.46,3.206-6.999,6c-0.028-0.973-1.225-0.776-2-1c5.368-4.297,11.463-7.868,14.998-13.999
		c1.172,0.162,0.844,1.823,1,3c2.947-1.053,3.476-4.523,4.999-6.999c-0.412-4.745,3.412-5.253,3-9.999c-0.81-0.189-0.997-1.003-2-1
		c1.483-1.183,1.556-3.776,3-4.999c4.266,1.141,5.56-13.146,5.999-15.998c1.577,1.834,5.716-2.226,4.999-5.999
		c-0.043-1.377,0.471-2.195,1-3C249.066,182.918,254.99,172.844,264.13,165.985z"/>
	<path fill-rule="evenodd" clip-rule="evenodd" fill="#0D1212" d="M231.134,200.981c2.933-1.4-0.933-9.599,2-10.999
		c0.547,1.453-1.168,5.168,1,5c0,1.333,0,2.666,0,3.999c-0.439,2.852-1.733,17.139-5.999,15.998c0.776-0.89,1.074-2.258,1-3.999
		c0.839-1.161,1.318-2.681,0.999-5C232.303,206.149,230.587,202.435,231.134,200.981z"/>
	<path fill-rule="evenodd" clip-rule="evenodd" fill="#7A8281" d="M187.14,190.982c1.333,0,2.666,0,3.999,0
		c0.805,0.529,1.624,1.043,3,1c-0.168,1.613-3.355,5.154-1,5.999c-0.182-2.181,0.818-3.181,3-2.999
		c2.219,2.447,3.929,5.403,4.999,8.998c-0.973,0.028-0.775,1.225-1,2c-2.322-0.677-2.677-3.322-4.999-3.999
		c-0.91-1.757-3.504-1.829-4.999-3c0.167-2.832,1.832-4.167,1.999-6.999c-5.307-1.308-2.428,5.571-5.999,5.999c-0.333,0-0.667,0-1,0
		C184.551,194.394,186.302,193.145,187.14,190.982z"/>
	<path fill-rule="evenodd" clip-rule="evenodd" fill="#466042" d="M201.138,203.98c0.043,1.377-0.471,2.196-1,3
		c3.085-1.821,6.855-2.609,9.999,0c-3.608,0.254-7.6,0.086-4.999,4c0,0.333,0,0.666,0,0.999c-0.334,0-0.667,0-1,0
		c-0.433,3.766,2.112,4.554,3.999,6c0,0.333,0,0.666,0,1c0,2.666,0,5.332,0,7.998c-1.889-0.11-0.693-3.305-2.999-2.999
		c-0.028-0.973-1.225-0.776-2-1c0.292-0.613,2.487-3.849,0-3.999c0-0.334,0-0.667,0-1c-0.869-1.464-1.497-3.17-4-3
		c-1.666,1.334-1.553,4.446-2.999,5.999c-0.529,0.805-1.043,1.623-1,3c-2.7,0.3-1.793,4.206-4,4.999
		c1.232-2.827,1.232-6.171,0-8.999c0.19-0.81,1.004-0.996,1-1.999c-0.804,0.528-1.623,1.043-2.999,1
		c1.613-1.387,3.166-2.834,4.999-4c3.245,3.502,3.392-4.551,5.999-4.999c-0.353-1.401-1.76-0.087-1.999,1c-0.334,0-0.667,0-1,0
		c0.511-4.178-0.558-6.775-2-8.999c2.322,0.677,2.677,3.322,4.999,3.999C200.362,205.205,200.165,204.009,201.138,203.98z
		 M205.138,217.979c-2.142-2.191-3.111-5.555-6-6.999C199.229,214.599,204.68,218.046,205.138,217.979z"/>
	<path fill-rule="evenodd" clip-rule="evenodd" fill="#5FBC1F" d="M184.14,197.981c0.334,0,0.667,0,1,0
		c-0.652,5.852-6.089,17.008-1,21.997c4.266-3.65,4.097-14.621,6-19.997c0-0.333,0-0.667,0-1c1.495,1.171,4.089,1.243,4.999,3
		c1.442,2.224,2.511,4.821,2,8.999c-1.352,0.981-1.999,2.667-3,3.999c-1.833,1.166-3.386,2.613-4.999,4
		c-2.162,0.837-3.411,2.588-6.999,1.999c-0.733-0.934-1.818-1.515-3-1.999c0-0.334,0-0.667,0-1
		C179.721,210.227,180.918,203.093,184.14,197.981z"/>
	<path fill-rule="evenodd" clip-rule="evenodd" fill="#466042" d="M177.141,225.979c0.085-3.249,0.516-6.15,2-7.999
		c0,0.333,0,0.666,0,1c1.182,0.484,2.267,1.065,3,1.999c-0.805,0.529-1.624,1.043-3,1c-0.422,3.422,2.994,3.005,3.999,4.999
		C179.271,228.086,179.583,223.443,177.141,225.979z"/>
	<path fill-rule="evenodd" clip-rule="evenodd" fill="#A4B0B3" d="M218.136,208.98c1,0,2,0,3,0c0.156-1.177-0.172-2.839,0.999-3
		c-0.083,1.583,0.481,3.813-0.999,4c2.819,1.18,3.349,4.65,4.999,6.999c-2.623-2.62-8.205-6.884-15.998-5.999
		c0.506,2.494,1.891,4.108,3,5.999c-0.014,1.986-2.729,1.271-2,3.999c-1.313-0.353-1.573-1.76-3-1.999c0-0.334,0-0.667,0-1
		c0-0.334,0-0.667,0-1c1.615,0.281,1.722-0.945,3-1c-0.544-3.123-2.383-4.95-4.999-5.999c-0.483,3.149,3.068,2.264,1.999,5.999
		c-2.062-0.271-0.238-4.428-2.999-4c0-0.333,0-0.666,0-0.999C207.535,206.221,214.15,210.996,218.136,208.98z"/>
	<path fill-rule="evenodd" clip-rule="evenodd" fill="#2C3A2E" d="M199.138,210.98c2.889,1.444,3.858,4.808,6,6.999
		C204.68,218.046,199.229,214.599,199.138,210.98z"/>
	<path fill-rule="evenodd" clip-rule="evenodd" fill="#7A8281" d="M197.139,210.98c0.333,0,0.666,0,1,0
		c0.239-1.087,1.646-2.401,1.999-1c-2.607,0.448-2.754,8.501-5.999,4.999C195.14,213.647,195.787,211.962,197.139,210.98z"/>
	<path fill-rule="evenodd" clip-rule="evenodd" fill="#7A8281" d="M224.135,218.979c-2.89-2.138-9.377-5.918-11.998-5
		c1.898,2.435,4.468,4.198,3.999,8.999c1.151,1.182,1.132,3.534,1,5.999c1.58,5.754-0.111,7.663-3.999,9.999
		c0.677-2.323,3.322-2.677,3.999-4.999c-1.793-0.127-2.108,1.224-3.999,0.999c-1.608-2.392-3.29-4.709-3-8.998
		c-0.973,0.027-0.776,1.224-1,1.999c-0.851,0.185-0.943-0.39-1-1c0-2.666,0-5.332,0-7.998c1.427,0.239,1.687,1.646,3,1.999
		c-0.729-2.728,1.986-2.013,2-3.999c-1.109-1.891-2.494-3.505-3-5.999c7.793-0.885,13.375,3.379,15.998,5.999
		c0.105-2.562,0.565-4.767,2-5.999c0.333,0,0.666,0,1,0c0.074,1.741-0.224,3.109-1,3.999c-1.444,1.223-1.517,3.816-3,4.999
		C224.284,220.163,224.191,219.589,224.135,218.979z"/>
	<path fill-rule="evenodd" clip-rule="evenodd" fill="#7A8281" d="M196.139,220.979c1.446-1.553,1.333-4.665,2.999-5.999
		c2.503-0.17,3.131,1.536,4,3c-1.282,1.717-5.979,0.02-5.999,2.999C196.805,220.979,196.472,220.979,196.139,220.979z"/>
	<path fill-rule="evenodd" clip-rule="evenodd" fill="#2C3A2E" d="M189.14,220.979c0.027-0.972,1.224-0.775,1.999-1
		c1.232,2.828,1.232,6.172,0,8.999c0.261,2.928-2.26,3.072-1.999,5.999c-2.474-0.859,0.294-6.959-2-7.999
		c0.19-0.81,1.003-0.996,1-1.999c1.313,0.353,1.572,1.76,2.999,1.999C191.124,224.327,191.694,221.091,189.14,220.979z"/>
	<path fill-rule="evenodd" clip-rule="evenodd" fill="#A4B0B3" d="M203.138,218.979c0.281,1.786-0.945,2.051-1,0.999
		c-2.887,5.446-4.813,11.853-7.999,16.998c0.558,2.084,3.009-1.483,1,2c-0.421,1.912-0.362,4.304-3,3.999
		c0.15-2.482-0.517-4.149-1.999-4.999c0-0.333,0-0.666,0-1c3.307-1.433,10.885-15.139,4.999-12.998c-0.043-1.377,0.471-2.195,1-3
		c0.333,0,0.666,0,1,0c0.02-2.979,4.717-1.282,5.999-2.999C203.138,218.313,203.138,218.646,203.138,218.979z"/>
	<path fill-rule="evenodd" clip-rule="evenodd" fill="#7A8281" d="M189.14,218.979c1.376,0.043,2.195-0.472,2.999-1
		c0.004,1.003-0.81,1.189-1,1.999c-0.775,0.225-1.972,0.028-1.999,1c-1.357,0.31-0.83,2.504-1,4c0.003,1.003-0.81,1.189-1,1.999
		c-1.333,0-2.666,0-4,0c-1.005-1.994-4.421-1.577-3.999-4.999c1.376,0.043,2.195-0.471,3-1
		C185.729,221.567,186.978,219.816,189.14,218.979z"/>
	<path fill-rule="evenodd" clip-rule="evenodd" fill="#5FBC1F" d="M102.15,226.978c10.272,3.394,22.151,5.18,34.996,6
		c2.735,1.598,6.607,2.059,10.999,1.999c-0.275-2.058-3.725-0.94-4-2.999c0.61-0.057,1.184-0.149,1-1
		c1.125,3.176,13.301,4.951,8.999,6.999c-7.935-2.73-18.075-3.255-27.996-3.999c-0.716,2.715,4.715-0.716,3.999,1.999
		c-10.263-1.401-20.247-3.083-28.996-5.999C101.899,228.089,104.135,229.284,102.15,226.978z"/>
	<path fill-rule="evenodd" clip-rule="evenodd" fill="#5FBC1F" d="M100.15,229.978c-4.121-0.546-5.851-3.48-8.999-4.999
		c-2.674-2.575-1.775-3.475,3-3c0.333,0,0.667,0,1,0c0.19,0.81,1.003,0.997,1,2c-1.161-0.839-2.681-1.319-5-1
		C92.854,226.608,97.54,227.256,100.15,229.978z"/>
	<path fill-rule="evenodd" clip-rule="evenodd" fill="#FFFFFF" d="M191.139,228.978c2.207-0.793,1.3-4.699,4-4.999
		c5.886-2.141-1.692,11.565-4.999,12.998c-0.19-0.81-1.004-0.996-1-2C188.879,232.05,191.399,231.905,191.139,228.978z"/>
	<path fill-rule="evenodd" clip-rule="evenodd" fill="#2C3A2E" d="M179.141,243.976c3.322,0.535,6.174,5.095,9.999,2
		c-0.615,0.891-1.209,1.788,0,2c-0.027,0.973-1.225,0.775-2,1C183.192,248.589,181.704,245.745,179.141,243.976z"/>
	<path fill-rule="evenodd" clip-rule="evenodd" fill="#0D1212" d="M177.141,225.979c2.442-2.535,2.131,2.107,5.999,0.999
		c1.334,0,2.667,0,4,0c2.294,1.04-0.474,7.14,2,7.999c-0.004,1.004,0.81,1.19,1,2c0,0.334,0,0.667,0,1
		c0.179,4.509,1.225,4.992-1,7.999c-3.825,3.095-6.677-1.465-9.999-2c-3.056-0.722-3.644,1.022-6,1c-1.122-0.102-1.557,1.454-2,0
		c2.08-0.586,3.231-2.101,5-2.999c0-0.334,0-0.667,0-1c2.299-2.366,0.358-8.975,1-12.999
		C177.141,227.312,177.141,226.645,177.141,225.979z"/>
	<path fill-rule="evenodd" clip-rule="evenodd" fill="#A4B0B3" d="M209.137,227.978c0.224-0.775,0.027-1.972,1-1.999
		c-0.29,4.289,1.392,6.606,3,8.998c1.891,0.225,2.206-1.126,3.999-0.999c-0.677,2.322-3.322,2.676-3.999,4.999c0,0.333,0,0.667,0,1
		c-1.163-0.163-1.779,0.221-2,1c-1.135-0.19-0.556-1.004,0-1c-0.869-1.509-1.497,0.275-4-1c1.261,1.336,3.006,1.964,1,3.999
		c-2.059-0.274-0.941-3.725-2.999-3.999c0.294-2.039,2.705-1.961,2.999-4c0.81-0.189,0.997-1.003,2-0.999
		c0.163-1.163-0.221-1.779-1-2C209.137,230.645,209.137,229.312,209.137,227.978z"/>
	<path fill-rule="evenodd" clip-rule="evenodd" fill="#7A8281" d="M208.137,234.977c-0.294,2.039-2.705,1.961-2.999,4
		c2.058,0.274,0.94,3.725,2.999,3.999c2.006-2.035,0.261-2.663-1-3.999c2.503,1.275,3.131-0.509,4,1c-0.556-0.004-1.135,0.81,0,1
		c0.221-0.779,0.837-1.163,2-1c-2.439,2.56-4.775,5.224-9.999,4.999c1.378-1.288,0.989-4.343,1-6.999
		C205.007,236.513,205.635,234.808,208.137,234.977z"/>
	<path fill-rule="evenodd" clip-rule="evenodd" fill="#466042" d="M202.138,227.978c0.575,1.758-1.209,5.875,1,6
		c2.155,3.665-0.375-5.593,2-5c-1.306,4.066,2.067,5.024,3.999,3c0.779,0.221,1.163,0.837,1,2c-1.003-0.004-1.19,0.81-2,0.999
		c-2.502-0.169-3.13,1.536-3.999,3c-1.017-0.649-1.034-2.299-3-2c-5.244,3.422-7.455,9.877-10.998,14.998
		c-0.805-0.528-1.624-1.043-3-0.999c0-0.334,0-0.667,0-1c0.775-0.225,1.973-0.027,2-1c-1.209-0.212-0.615-1.109,0-2
		c2.225-3.007,1.179-3.49,1-7.999c1.482,0.85,2.149,2.517,1.999,4.999c2.638,0.305,2.579-2.087,3-3.999
		C198.615,236.454,199.393,231.232,202.138,227.978z"/>
	<path fill-rule="evenodd" clip-rule="evenodd" fill="#466042" d="M213.137,239.977c0-0.333,0-0.667,0-1
		c3.888-2.336,5.579-4.245,3.999-9.999c2.715,0.716-0.715-4.715,2-3.999c0.562,5.271-2.639,8.446,2.999,8.999
		c-0.043-1.711,0.743-2.59,2-3c-1.523,2.476-2.052,5.946-4.999,6.999c-0.156-1.177,0.172-2.838-1-3
		c-3.535,6.131-9.63,9.702-14.998,13.999c0.775,0.224,1.972,0.027,2,1c1.782,2.688-4.404,1.932-1,2.999c0,0.333,0,0.667,0,1
		c-3.039-0.627-8.612,1.28-9.999-1c2,0,4,0,5.999,0c1.858-1.808,2.284-5.049,3-7.999C208.361,245.2,210.697,242.536,213.137,239.977
		z"/>
	<path fill-rule="evenodd" clip-rule="evenodd" fill="#7A8281" d="M190.14,250.975c1.479,0.521,2.52,1.479,3.999,2
		c1.387,2.28,6.96,0.373,9.999,1c-6.032,3.008-14.565-0.081-16.998-3.999C188.516,249.932,189.335,250.446,190.14,250.975z"/>
	<path fill-rule="evenodd" clip-rule="evenodd" fill="#466042" d="M212.137,243.976c2.16-3.679,5.512-6.252,8.999-5.999
		c-1.242,2.092-2.908,3.758-5,4.999c0-0.666,0-1.333,0-1.999C214.097,241.271,214.175,243.682,212.137,243.976z"/>
	<path fill-rule="evenodd" clip-rule="evenodd" fill="#0D1212" d="M216.136,242.976c-2.542,4.791-6.211,8.454-11.998,9.999
		c-3.404-1.067,2.782-0.311,1-2.999c1.539-2.794,5.933-2.733,6.999-6c2.038-0.294,1.96-2.705,3.999-2.999
		C216.136,241.643,216.136,242.31,216.136,242.976z"/>
	<path fill-rule="evenodd" clip-rule="evenodd" fill="#A4B0B3" d="M218.136,1.006c4.057-2.354,11.941,0.03,15.998,1
		c-7.063-0.018-10.766,0-14.998-1C218.803,1.006,218.469,1.006,218.136,1.006z"/>
	<path fill-rule="evenodd" clip-rule="evenodd" fill="#A4B0B3" d="M276.129,2.006c10.512-0.513,17.499,2.498,23.996,5.999
		c-10.051-2.878-15.253-4.17-23.996-5C276.129,2.673,276.129,2.339,276.129,2.006z"/>
	<path fill-rule="evenodd" clip-rule="evenodd" fill="#2C3A2E" d="M145.145,79.997c4.024,0.642,10.632-1.3,12.998,1
		C154.119,80.354,147.511,82.296,145.145,79.997z"/>
	<path fill-rule="evenodd" clip-rule="evenodd" fill="#A4B0B3" d="M352.119,89.995c1.659,2.05,1.659,10.948,0,12.999
		c0.586-4.646-1.367-6.037,0-8.999C352.119,92.662,352.119,91.328,352.119,89.995z"/>
	<path fill-rule="evenodd" clip-rule="evenodd" fill="#2C3A2E" d="M336.121,101.994c0.043,1.376-0.471,2.195-1,3
		c-3.482-1.923,0.142-6.669,2-10.999C338.667,97.137,337.76,99.573,336.121,101.994z"/>
	<path fill-rule="evenodd" clip-rule="evenodd" fill="#2C3A2E" d="M35.159,118.991c-0.723-3.055,1.022-3.644,1-5.999
		c0.333,0,0.667,0,1,0c0.157-1.177-0.172-2.838,1-3c0,1,0,2,0,3c0,2.667,0,5.333,0,7.999c-2.784-0.45,0.784,5.45-2,4.999
		C36.96,122.522,34.669,122.147,35.159,118.991z"/>
	<path fill-rule="evenodd" clip-rule="evenodd" fill="#7A8281" d="M139.146,120.991c2.175-4.491,8.626-4.706,14.998-5
		c1.333,0,2.667,0,4,0c-3.042,2.625-10.313,1.019-13.998,3C141.658,118.837,141.05,120.563,139.146,120.991z"/>
	<path fill-rule="evenodd" clip-rule="evenodd" fill="#0D1212" d="M144.145,118.991c3.685-1.98,10.956-0.375,13.998-3
		c3.985-0.681,7.153-2.179,11.999-2c1.177,0.156,2.838-0.172,3,1c-9.827,1.838-18.817,4.513-28.996,5.999
		C142.937,120.78,143.53,119.882,144.145,118.991z"/>
	<path fill-rule="evenodd" clip-rule="evenodd" fill="#0D1212" d="M187.14,187.983c2.963-6.703,6.865-12.466,9.999-18.998
		c1.003,0.003,1.189-0.81,1.999-1c2.206,5.918-9.073,13.742-10.998,21.997C187.36,189.762,186.977,189.146,187.14,187.983z"/>
	<path fill-rule="evenodd" clip-rule="evenodd" fill="#0D1212" d="M234.134,179.984c-1.151-1.183-1.132-3.535-1-6
		c0.475-3.141-1.247-4.085-3-4.999c-1.386,0.613-0.15,3.849-1.999,3.999c-0.994-5.338-6.475-6.19-6-12.998
		c-1.278-1.388-4.721-0.611-5.999-2c-0.333,0-0.666,0-1,0c0.451-2.783-5.449,0.784-4.999-1.999c0.776-0.225,1.973-0.028,2-1
		c12.47-6.492,21.293,4.437,22.997,14.998C234.507,173.024,236.414,178.598,234.134,179.984z"/>
	<path fill-rule="evenodd" clip-rule="evenodd" fill="#0D1212" d="M194.139,191.982c-1.376,0.043-2.195-0.471-3-1
		c4.692-5.082,5.99-18.526,11.999-18.997c-0.043,1.376,0.471,2.195,1,2.999c-0.944,1.722-3.696,1.637-3,5
		c-0.779,0.221-1.162,0.837-1,1.999c-1.48,0.186-0.916,2.417-1,4C195.588,182.934,197.688,191.938,194.139,191.982z"/>
	<path fill-rule="evenodd" clip-rule="evenodd" fill="#FFFFFF" d="M222.135,205.98c0.157-1.177-0.172-2.838,1-2.999
		c1.651-0.016,0.56-2.773,2-3c0.655,4.865,2.864,0.414,4,2c0.534,3.867-1.785,4.881-1,8.999c-1.435,1.232-1.895,3.438-2,5.999
		c-1.65-2.349-2.18-5.819-4.999-6.999C222.616,209.794,222.052,207.563,222.135,205.98z"/>
	<path fill-rule="evenodd" clip-rule="evenodd" fill="#0D1212" d="M33.159,201.981c13.515,9.815,32.069,14.592,51.994,17.997
		c2.125,1.541,3.723,3.609,5.999,5c3.148,1.519,4.878,4.453,8.999,4.999c0.333,0,0.667,0,1,0c8.749,2.916,18.733,4.598,28.996,5.999
		c2.004,1.663,7.416-0.083,8.999,2c0,0.333,0,0.667,0,1c1.496,0.17,3.69-0.357,4,1c-1.496,0.17-3.69-0.357-4,1
		c-50.841-7.818-96.987-20.332-128.984-46.994c-1.168-2.531-7.944-6.575-3-8.999c2.603,5.729,7.732,8.933,11.999,12.998
		c2.708,1.291,3.555,4.444,7.999,4c0.156-1.177-0.172-2.839,1-3C29.659,200.148,30.604,201.869,33.159,201.981z"/>
	<path fill-rule="evenodd" clip-rule="evenodd" fill="#BDFD11" d="M96.151,223.979c3.052-0.053,2.398,3.601,6,2.999
		c1.984,2.307-0.251,1.111-1,3c-0.333,0-0.667,0-1,0c-2.611-2.722-7.296-3.369-8.999-6.999
		C93.47,222.659,94.99,223.14,96.151,223.979z"/>
	<path fill-rule="evenodd" clip-rule="evenodd" fill="#466042" d="M128.147,227.978c7.237,0.226,10.224,2.312,15.998,4
		c0.274,2.059,3.725,0.941,4,2.999c-4.392,0.06-8.264-0.401-10.999-1.999C138.952,230.454,129.51,230.652,128.147,227.978z"/>
	<path fill-rule="evenodd" clip-rule="evenodd" fill="#2C3A2E" d="M208.137,226.978c0.057,0.61,0.149,1.185,1,1c0,1.334,0,2.667,0,4
		c-1.932,2.024-5.305,1.066-3.999-3c0-1.666,0-3.333,0-4.999C207.443,223.673,206.248,226.867,208.137,226.978z"/>
	<path fill-rule="evenodd" clip-rule="evenodd" fill="#466042" d="M177.141,227.978c-0.642,4.024,1.3,10.633-1,12.999
		C176.783,236.952,174.841,230.344,177.141,227.978z"/>
	<path fill-rule="evenodd" clip-rule="evenodd" fill="#BDFD11" d="M154.144,238.977c-6.154-0.107-9.534-2.027-14.998-1
		c-1.583-2.083-6.995-0.337-8.999-2c0.716-2.715-4.715,0.716-3.999-1.999c9.921,0.744,20.062,1.269,27.996,3.999
		C154.144,238.31,154.144,238.644,154.144,238.977z"/>
	<path fill-rule="evenodd" clip-rule="evenodd" fill="#7A8281" d="M207.137,2.006c1.712-2.289,7.633-0.367,10.999-1
		c0.333,0,0.667,0,1,0C217.098,3.301,210.832,1.368,207.137,2.006z"/>
	<path fill-rule="evenodd" clip-rule="evenodd" fill="#7A8281" d="M206.138,165.985c0.837,2.162,2.588,3.411,1.999,6.999
		c-2.318,0.319-3.839-0.16-4.999-0.999c0-0.334,0-0.667,0-1c-0.013-1.987-2.729-1.271-2-4
		C203.547,167.395,203.312,165.159,206.138,165.985z"/>
	<path fill-rule="evenodd" clip-rule="evenodd" fill="#7A8281" d="M203.138,218.979c2.487,0.15,0.292,3.386,0,3.999
		c0.775,0.224,1.972,0.027,2,1c0,1.666,0,3.333,0,4.999c-2.375-0.593,0.155,8.665-2,5c-1.218-3.63,1.999-7.894,0-8.999
		c-0.529,0.804-1.043,1.623-1,2.999c-2.745,3.255-3.522,8.477-6.999,10.999c2.009-3.483-0.442,0.084-1-2
		c3.187-5.146,5.112-11.552,7.999-16.998C202.192,221.03,203.419,220.766,203.138,218.979z"/>
	<path fill-rule="evenodd" clip-rule="evenodd" fill="#2C3A2E" d="M95.151,221.979c7.619,1.048,14.561,2.771,21.998,4
		c4.75,0.384,6.143,0.419,10.999,1.999c1.363,2.675,10.805,2.477,8.999,5c-12.845-0.82-24.724-2.606-34.996-6
		c-3.601,0.602-2.947-3.052-6-2.999C96.154,222.976,95.341,222.788,95.151,221.979z"/>
	<path fill-rule="evenodd" clip-rule="evenodd" fill="#0D1212" d="M106.15,142.988c5.037,1,9.889-3.391,12.998-1
		c-0.211,1.122-1.109,1.557-2,2c-7.472,1.86-16.156,2.509-23.997,4c-1.453-0.547-5.168,1.168-5-1c1.502-3.636,6.15,1.054,8.999-2
		C100.521,144.693,103.981,144.486,106.15,142.988z"/>
	<path fill-rule="evenodd" clip-rule="evenodd" fill="#0D1212" d="M189.14,220.979c2.555,0.112,1.984,3.349,1.999,5.999
		c-1.427-0.239-1.686-1.646-2.999-1.999C188.31,223.482,187.782,221.288,189.14,220.979z"/>
</g>
</svg>
