<?xml version="1.0" encoding="utf-8"?>
<!-- Generator: Adobe Illustrator 15.1.0, SVG Export Plug-In . SVG Version: 6.00 Build 0)  -->
<!DOCTYPE svg PUBLIC "-//W3C//DTD SVG 1.1//EN" "http://www.w3.org/Graphics/SVG/1.1/DTD/svg11.dtd">
<svg version="1.1" id="Layer_1" xmlns="http://www.w3.org/2000/svg" xmlns:xlink="http://www.w3.org/1999/xlink" x="0px" y="0px"
	 width="677.109px" height="325.042px" viewBox="55.956 174.953 677.109 325.042"
	 enable-background="new 55.956 174.953 677.109 325.042" xml:space="preserve">
<g>
	<g>
		<path fill="#8E6A6C" d="M640,222.222c10.901,6.877,23.323,12.232,32,21.333c-2.743,6.146-3.119,14.658-10.667,16
			c-6.432-4.679,1.556-5.988-1.777-10.667C652.309,240.729,642.13,235.5,640,222.222z"/>
		<path fill="#8E6A6C" d="M549.333,248.889C532.329,254.133,525.604,246.832,549.333,248.889L549.333,248.889z"/>
		<path fill="#8E6A6C" d="M670.223,264.889c6.753-4.334,1.302,4.315,1.777,8.889c-9.572,1.704-21.06,2.957-28.444-1.778
			C656.76,270.866,664.151,274,670.223,264.889z"/>
		<path fill="#8E6A6C" d="M533.333,268.444c-8.985,5.714-24.203,4.636-32,3.556c-12.545-1.739,14.89-0.797,21.334-3.556
			C526.223,268.444,529.777,268.444,533.333,268.444z"/>
		<path fill="#2E2020" d="M579.556,314.667c-2.805,4.896-6.358,9.092-10.667,3.556C570.686,315.277,576.439,316.291,579.556,314.667
			z"/>
		<path fill="#8E6A6C" d="M350.222,323.557c3.625,0.522,3.486,4.812,7.111,5.332c-0.984,6.118-6.874,1.03-10.667,0
			C347.294,326.555,349.796,326.093,350.222,323.557z"/>
		<path fill="#8E6A6C" d="M312.889,328.889c4.968,2.281-2.18,7.098-3.555,8.891C303.499,334.629,311.407,330.574,312.889,328.889z"
			/>
		<path fill="#2E2020" d="M112,350.223c-2.234-0.729-3.633-2.293-3.556-5.334c49.903,3.82,108.687,9.563,168.889,5.334
			c0.322,3.879-1.456,5.655-5.333,5.334c-34.011-0.232-64.475,3.079-99.556,1.776c-2.37,0-4.741,0-7.111,0
			C148.163,354.355,130.473,351.896,112,350.223z"/>
		<path fill="#B2ABAC" d="M154.667,359.111c0.222-3.928,7.542-0.756,10.667-1.778c2.37,0,4.741,0,7.111,0
			c-0.766,3.976-8.761,0.722-12.444,1.778C158.222,359.111,156.444,359.111,154.667,359.111z"/>
		<path fill="#841F29" d="M167.111,368c8.889,0,17.777,0,26.667,0C188.966,370.953,171.922,370.953,167.111,368z"/>
		<path fill="#B2ABAC" d="M705.777,396.444c0,0.593,0,1.186,0,1.776c0,4.74,0,9.481,0,14.224
			c-11.526,0.462-14.58-2.891-21.333-3.558c-1.931,3.997-4.826,7.026-10.667,7.111c0-4.741,0-9.481,0-14.223
			c10.728,6.539,15.945,1.049,28.443,0c-1.496-4.433-2.328-9.524-1.776-16C704.277,387.277,701.945,394.943,705.777,396.444z"/>
		<path fill="#B2ABAC" d="M416,408.889c0.594,4.147,1.822,7.66,5.333,8.891c6.617,0.543,14.129-19.911,3.556-19.557
			c2.782-8.688,16.773-8.688,19.558,0c-2.722,7.947-9.303,12.032-10.667,21.333c-9.795,5.394-14.147-4.169-17.777,5.333
			c-6.047-6.396-10.003-14.886-14.223-23.109c5.229-2.532,6.727-9.856,14.223-5.333c0.491,3.114-5.006,8.87,0,10.667
			C416,407.704,416,408.296,416,408.889z"/>
		<path fill="#2E2020" d="M677.333,391.111c3.976,0.766,0.721,8.761,1.778,12.442C673.944,403.522,674.908,393.509,677.333,391.111z
			"/>
		<path fill="#2E2020" d="M695.111,392.889c4.613-0.519,6.177,12.021-1.778,8.891C691.864,396.753,695.839,397.172,695.111,392.889z
			"/>
		<path fill="#2E2020" d="M446.223,423.111c-5.513-0.604-8.494,4.113-12.443,0c1.108-6.596,4.998-10.41,7.109-16
			c5.027,2.676,6.194,9.213,7.111,16C447.407,423.111,446.814,423.111,446.223,423.111z"/>
		<path fill="#2E2020" d="M400,432c-0.039-8.335-1.558-18.15,7.111-17.777C412.029,423.627,414.416,431.448,400,432z"/>
		<path fill="#2E2020" d="M693.333,419.556c0-0.593,0-1.186,0-1.776c0.429-3.127,3.06-4.054,7.111-3.557
			c-0.925,2.63-2.631,4.48-3.558,7.11C695.105,421.339,694.773,419.894,693.333,419.556z"/>
		<path fill="#2E2020" d="M677.333,416c5.881-1.733,2.569,13.088-1.777,12.444C674.524,422.673,676.767,420.174,677.333,416z"/>
		<path fill="#2E2020" d="M686.223,433.777c0-1.187,0-2.37,0-3.557c1.084-0.102,2.104-0.267,1.777-1.776
			c4.553,1.772,5.11,12.728-1.777,12.442C686.223,438.519,686.223,436.148,686.223,433.777z"/>
		<path fill="#2E2020" d="M439.111,437.333c0.593,0,1.185,0,1.775,0c3.558,0,7.111,0,10.667,0c-0.252,6.859-6.007,8.216-5.333,16
			c-3.697-1.042-5.746-3.735-8.89-5.333c0-0.593,0-1.186,0-1.777C436.767,442.1,437.619,439.396,439.111,437.333z"/>
		<path fill="#8E6A6C" d="M163.556,442.667c22.718-3.077,72.646-2.784,101.333,0c5.926,0,11.852,0,17.778,0c2.963,0,5.926,0,8.889,0
			C259.157,446.564,202.3,444.26,163.556,442.667z"/>
		<path fill="#2E2020" d="M405.333,444.444c0.593,0,1.186,0,1.778,0c3.097-0.136,5.526,0.396,7.109,1.776
			c0.285,7.989-7.49,7.916-8.89,14.224c-4.134-1.791-5.732-6.119-5.333-12.444C402.101,447.138,404.03,446.104,405.333,444.444z"/>
		<path fill="#2E2020" d="M421.333,464c2.047-2.102,2.013-6.284,1.778-10.667c13.821,1.46,10.1,13.478,5.333,21.334
			c-0.595,0-1.188,0-1.777,0C427.349,468.651,418.798,471.869,421.333,464z"/>
		<path fill="#8E6A6C" d="M421.333,464c-2.535,7.869,6.016,4.651,5.334,10.667c-1.658-1.087-6.559-4.137-5.334,1.777
			c-3.975-0.768-0.72-8.764-1.777-12.444C420.148,464,420.741,464,421.333,464z"/>
		<path fill="#B2ABAC" d="M396.444,497.777c11.26,0,22.519,0,33.776,0C423.064,500.734,403.602,500.734,396.444,497.777z"/>
		<path fill="#B2ABAC" d="M56.889,408.889C50.823,362.523,75.538,331.541,96,305.777c3.166,1.304,0.256,3.231,0,5.334
			c8.596-7.758,19.454-2.299,23.111-14.223c-5.789,5.819-9.994,2.731-16,8.889c-5.207-2.166,8.997-11.389,14.222-14.222
			c52.446-28.44,107.723-60.646,156.444-92.444c-10.763,7.608-21.258,15.482-33.778,21.333c15.986,1.553,26.852-18.755,48-23.111
			c40.027-8.245,98.446-2.294,142.223,0c17.8,0.933,36.056-2.635,48,7.111c-20.855,1.661-40.435,4.603-58.667,8.889
			c-5.227,7.811-1.939,24.132-8.889,30.222c-8.169-4.868-9.977-16.098-17.778-21.333c-8.104,3.748-16.429,7.275-26.667,8.889
			c-4.21,2.9-3.784,10.437-7.11,14.222c1.093,7.203,7.525,9.066,10.667,14.222c-10.781,1.252-16.051,10.746-28.444,5.333
			c-1.057-15.279,1.278-27.166,8.889-33.777c-8.045,4.234-26.184,9.324-28.443,21.333c-6.353-1.5,4.574-9.166-1.778-10.667
			c-7.264,3.403-8.865,12.468-10.667,21.333c-5.926,0-11.852,0-17.778,0c0.766-3.975,8.761-0.72,12.444-1.778
			c11.024-18.771,13.865-34.756,24.889-53.333c-18.837-4.791-36.214,10.337-58.667,23.111c-16.815,9.567-40.154,21.374-39.111,32
			c0.252,2.575,5.419,0.608,5.333,3.555c-19.684-1.136-26.024-4.711-48-3.555c13.354-16.277,34.115-25.145,49.778-39.111
			c-17.665,8.409-32.761,19.387-48,30.222c-0.593,0-1.185,0-1.778,0c-6.2,6.245-16.047,8.842-21.333,16
			c6.997,11.966,40.06-2.134,46.222,10.667c20.226-12.727,56.177,0.754,85.333-3.555c5.712-1.564,2.437,5.86,7.111,5.333
			c5.019-7.825,11.738-3.126,23.111-3.555c-70.414,13.734-142.13,26.166-211.555,40.889c3.291-10.932,9.389-19.056,16-26.667
			c-4.435-1.267-7.305,7.825-10.667,1.778c-8.004,12.488-24.032,31.417-23.111,58.666c-8.071-1.41-16.447-2.518-23.111-5.333
			c-3.646,2.058,4.628,7.084,8.889,7.11c-4.34,3.363-11.591,3.815-19.556,3.557C58.701,371.59,56.24,388.686,56.889,408.889z
			 M414.223,216.889c-3.718-1.023-5.072-4.407-10.667-3.555c-8.536,10.663,2.277,16.142,3.558,26.667
			C416.209,239.024,413.751,226.492,414.223,216.889z M364.444,225.778c-16.033-3.519-19.851,18.779-21.333,35.556
			c7.08,5.253,16.1,2.024,19.555-5.333C352.66,248.429,361.309,235.159,364.444,225.778z M87.111,337.777
			c-0.897-5.584,4.19-7.266-1.778-8.891C81.438,332.607,81.672,335.57,87.111,337.777z"/>
		<path fill="#B2ABAC" d="M168.889,481.777c-35.886,6.844-73.547,0.069-80-28.444c-14.317-1.09-26.028-4.786-28.444-17.777
			c3.958,3.746,4.897,10.513,10.667,12.444c7.692,0.012,11.28,4.127,19.555,3.556C98.452,479.919,129.549,484.97,168.889,481.777z"
			/>
		<path fill="#B2ABAC" d="M382.222,494.223c-10.64-2.988-16.246-11.014-21.333-19.556c-15.574,1.353-26.227-2.218-40.889-1.778
			c1.974-13.823-19.396-4.308-28.444-7.109c6.555-4.111,20.713-0.619,30.222-1.777c0,2.37,0,4.74,0,7.111
			c13.376-0.339,22.964,3.107,37.333,1.775C367.448,479.366,372.36,489.27,382.222,494.223z"/>
		<path fill="#B2ABAC" d="M460.444,476.444c1.896-9.364,8.549-13.972,8.889-24.891c11.586-1.45,22.01-4.063,35.556-3.556
			c-2.015,3.363-23.945,2.094-32,5.333C468.015,460.311,467.696,471.845,460.444,476.444z"/>
		<path fill="#B2ABAC" d="M524.444,444.444c19.696-1.043,38.901-2.579,56.889-5.333c0.593,0,1.186,0,1.778,0
			C568.521,444.684,541.032,446.793,524.444,444.444z"/>
		<path fill="#B2ABAC" d="M632.889,440.889c-7.329-3.337-18.606-2.725-26.666-5.333c10.893-0.815,20.03,0.117,26.666,3.558
			C632.889,439.704,632.889,440.296,632.889,440.889z"/>
		<path fill="#B2ABAC" d="M657.777,464c29.965,4.483,45.766-5.198,49.776-26.667c1.609,9.346-7.512,23.279-16,28.444
			C680.867,464.614,665.511,468.119,657.777,464z"/>
		<path fill="#B2ABAC" d="M711.111,419.556c4.4-2.709,10.571-3.647,12.442-8.889c-1.828-12.921-3.529-33.118,7.111-46.224
			c1.473-45.324-12.909-74.793-24.89-106.667c-55.213-34.524-110.051-94.572-195.557-74.667
			c-7.468,1.738-15.381,9.342-23.109,10.667c-7.948,1.363-14.864-1.357-23.11-1.777c-58.179-2.967-125.528-1.052-181.333,3.556
			c60.346-24.902,168.922-22.028,254.222-17.778c74.811,3.727,121.241,43.46,168.891,74.667
			c12.405,28.983,30.914,72.313,26.667,113.778c-1.725,16.818-9.427,30.313-7.111,44.444c-3.475,8.377-15.014,8.689-16,19.556
			C708.049,424.79,711.151,423.743,711.111,419.556z"/>
		<path fill="#8E6A6C" d="M282.667,195.556C338.472,190.948,405.821,189.033,464,192c8.246,0.42,15.162,3.14,23.111,1.778
			c7.729-1.325,15.644-8.928,23.109-10.667c85.506-19.906,140.344,40.143,195.557,74.667c11.979,31.872,26.36,61.341,24.89,106.667
			c-10.643,13.104-8.94,33.302-7.111,46.223c-1.871,5.239-8.042,6.18-12.442,8.889c6.311-10.875,7.309-27.062,7.109-44.443
			c-7.271-40.287,2.322-102.854-37.334-119.11c1.031-5.771-1.211-8.271-1.775-12.444c-2.208-3.719-5.171-6.682-8.891-8.889
			c-0.593,0-1.186,0-1.776,0c-35.023-22.891-76.7-51.263-124.444-51.555c-75.121-0.461-76.5,78.11-133.333,96
			c-10.034,7.744-18.932,16.624-35.556,17.777c2.445,5.256,12.872,2.536,17.776,5.333c-14.963,22.496-25.435,40.551-51.555,53.334
			c14.262-3.518,13.511-22.045,21.333-32c4.195-2.324,12.286-0.752,16-3.557c-2.483-0.548-11.898-1.07-16,0
			c-3.068-3.047,2.613-6.99-5.333-7.111c8.403-10.014,15.228,4.901,24.889-7.109c-6.479-8.046-25.457-1.568-35.556-1.777
			c14.235-8.876,32.21-14.012,49.778-19.556c-24.861,0.035-50.792,14.388-69.333,26.667c3.188,0.226,3.75-2.178,7.11-1.778
			c-20.532,13.245-39.246,28.312-53.333,48c18.526,5.472,39.355-2.112,58.667-1.776c-9.712,3.918-24.125,3.135-35.556,5.332
			c3.653,4.109,15.352,1.231,19.556,0c-0.428,3.129-3.059,4.055-7.11,3.558c5.297,6.146,17.047-3.063,21.333,1.776
			c1.047,6.381-2.066,8.602-3.557,12.444c-19.523-4.854-31.699,8.665-46.222,10.666c-7.566,1.043-15.424-2.821-23.111-1.776
			c-5.047,0.688-9.837,6.289-14.222,7.11c-31.71,5.938-72.359-5.644-92.444-14.223c1.169-2.388,3.8-3.312,7.111-3.558
			c-25.887-7.891-59.666-7.89-88.889-12.442c-15.376,10.272-26.662,48.558-8.889,65.776c-1.303,1.659-3.233,2.693-5.333,3.557
			c3.111,3.406,2.091,10.944,8.889,10.667c0,1.186,0,2.37,0,3.556c-5.77-1.934-6.709-8.698-10.667-12.444
			c2.368-10.234-2.004-16.1-3.556-26.667c-0.648-20.203,1.813-37.299,8.889-49.775c7.965,0.261,15.216-0.191,19.556-3.557
			c-4.261-0.026-12.536-5.055-8.889-7.11c6.665,2.815,15.041,3.923,23.111,5.333c-0.921-27.249,15.106-46.178,23.111-58.666
			c3.362,6.047,6.232-3.044,10.667-1.778c-6.611,7.61-12.709,15.735-16,26.667c69.425-14.723,141.142-27.155,211.555-40.889
			c-11.373,0.429-18.092-4.27-23.111,3.555c-4.675,0.527-1.399-6.897-7.111-5.333c-29.156,4.31-65.107-9.171-85.333,3.555
			c-6.162-12.801-39.225,1.299-46.222-10.667c5.286-7.158,15.133-9.755,21.333-16c-2.844,7.823-12.672,8.662-17.778,14.222
			c34.31,7.511,75.231,2.617,120.889,7.111c0.322-3.878-1.455-5.656-5.333-5.333c10.114-5.962,26.641-1.674,39.111,0
			c-0.776,2.187-2.275,3.651-5.333,3.556c14.145-0.728,45.215,3.854,60.444,1.778c-21.3-5.813-57.479-10.936-90.667-10.667
			c-0.327-1.512,0.693-1.677,1.778-1.777c5.926,0,11.852,0,17.778,0c1.801-8.866,3.403-17.931,10.667-21.333
			c6.352,1.5-4.574,9.166,1.778,10.667c2.26-12.009,20.398-17.099,28.443-21.333c-7.609,6.611-9.945,18.498-8.889,33.777
			c12.394,5.413,17.663-4.081,28.444-5.333c-3.141-5.156-9.574-7.019-10.667-14.222c3.325-3.786,2.899-11.322,7.11-14.222
			c10.238-1.614,18.563-5.142,26.667-8.889c7.803,5.235,9.609,16.465,17.778,21.333c6.947-6.09,3.662-22.412,8.889-30.222
			c18.232-4.287,37.812-7.228,58.667-8.889c-11.944-9.746-30.201-6.178-48-7.111c-43.775-2.294-102.194-8.245-142.223,0
			c-21.148,4.355-32.014,24.664-48,23.111c12.52-5.851,23.015-13.725,33.778-21.333C278.2,199.385,279.281,196.318,282.667,195.556z
			 M435.556,256c14.852-6.234,22.235-27.419-3.556-26.667C433.537,237.87,428.445,253.036,435.556,256z M380.444,250.667
			c0,2.371,0,4.741,0,7.111c8.48-0.654,12.89,3.829,17.777-1.778C393.919,252.959,387.465,245.384,380.444,250.667z M288,344.889
			c8.174-11.68,17.924-12.035,14.222-28.443c-33.041,1.636-86.955-3.03-112,12.443C205.28,341.229,288.008,329.986,288,344.889z
			 M272,359.111c4.843-4.047,9.906-7.873,14.222-12.444c-39.358-6.388-100.948,17.093-119.111-12.444
			c-16.628,5.934-42.931,9.525-64,5.334c0,5.332,0,10.666,0,16c7.075-1.148,7.147,4.704,14.222,3.557
			c15.713,3.842,31.315,7.795,49.778,8.889c4.811,2.953,21.855,2.953,26.667,0c2.963,0,5.926,0,8.889,0
			c3.125,1.021,10.445-2.148,10.667,1.777c-3.286,0.438-14.563,1.803-10.667,3.556c29.368-5.595,69.454-0.472,92.445-12.444
			c-8.981-2.906-27.271,6.771-24.889-1.775C270.815,359.111,271.407,359.111,272,359.111z"/>
		<path fill="#841F29" d="M341.333,355.557c26.12-12.783,36.592-30.838,51.555-53.334c-4.905-2.798-15.332-0.076-17.776-5.333
			c16.624-1.153,25.521-10.033,35.556-17.777c56.833-17.89,58.212-96.461,133.333-96c47.744,0.292,89.421,28.664,124.444,51.555
			c-30.427-16.73-110.152-71.457-154.667-37.333c-11.811,9.052-21.613,20.075-33.777,37.333
			c-12.174,17.271-43.35,52.607-12.444,60.445c6.078,1.542,15.675-2.529,21.333-3.556c42.958-7.794,113.6-14.169,154.667-19.556
			c7.387,4.734,18.872,3.482,28.444,1.778c-0.479-4.574,4.976-13.223-1.777-8.889c4.706-7.159,8.922-24.629,0-30.222
			c3.72,2.208,6.683,5.17,8.891,8.889c0.564,4.174,2.809,6.673,1.775,12.444c39.656,16.256,30.063,78.823,37.334,119.11
			c-4.443-14.364-4.706-29.683-17.776-32c-32.48-5.762-33.105,59.98-44.444,81.776c-2.482-8.1-10.803-1.854-21.333-3.556
			c-2.746-2.863,13.789-1.529,16-5.333c-12.766-5.871-31.631-2.463-49.778-3.556c-12.313-0.741-14.758-0.152-26.666,1.776
			c-15.307,2.48-33.158,1.598-48,3.557c-16.751,2.212-37.427,3.09-44.443,14.223c3.235,6.612,19.116,0.354,26.667,0
			c12.876,1.291,16.497-0.627,5.333,1.777c-10.748,2.313-34.639,5.139-39.11,0c-0.228-31.175-0.934-70.905-24.89-80.001
			c-33.138-12.58-50.252,30.568-56.89,60.444c1.261,6.595-3.036,7.629-1.776,14.224c-4.846,1.674-4.069,8.969-5.333,14.223
			c-63.819,4.275-152.393,7.05-229.333,3.556c-35.483-1.61-71.979-13.167-85.333-1.776c-6.798,0.277-5.778-7.262-8.889-10.667
			c2.101-0.861,4.03-1.896,5.333-3.557c-17.773-17.221-6.488-55.505,8.889-65.776c29.223,4.555,63.002,4.554,88.889,12.442
			c-3.311,0.245-5.942,1.171-7.111,3.558c20.085,8.578,60.734,20.157,92.444,14.223c4.385-0.821,9.175-6.425,14.222-7.111
			c7.688-1.045,15.545,2.82,23.111,1.777c14.523-2.001,26.698-15.521,46.222-10.666c1.489-3.846,4.604-6.064,3.557-12.443
			c-4.286-4.842-16.036,4.368-21.333-1.777c4.053,0.496,6.683-0.43,7.11-3.557c-4.203,1.23-15.901,4.108-19.556,0
			c11.43-2.199,25.844-1.416,35.556-5.334C340.148,355.557,340.741,355.557,341.333,355.557z M568.889,318.223
			c4.309,5.536,7.862,1.34,10.667-3.556C576.439,316.291,570.686,315.277,568.889,318.223z M462.223,323.557
			c3.745,2.854,15.2,2.036,16-3.557C476.237,317.561,464.207,320.105,462.223,323.557z M291.556,421.333
			c-19.989-16.819-68.305-10.758-106.667-12.444c-39.034-1.716-76.396-3.044-110.222-5.333c-6.398,4.667-3.685,13.784-3.555,21.333
			c50.246,17.354,123.045,10.979,186.667,14.225c24.657,1.257,47.336-0.665,69.333-3.558
			C327.574,424.028,303.347,416.706,291.556,421.333z M291.556,442.667c-2.963,0-5.926,0-8.889,0c-5.926,0-11.852,0-17.778,0
			c-28.688-2.784-78.615-3.077-101.333,0C202.3,444.26,259.157,446.564,291.556,442.667z"/>
		<path fill="#B2ABAC" d="M339.556,355.557c-19.312-0.336-40.141,7.248-58.667,1.776c14.087-19.69,32.8-34.755,53.333-48
			c-3.36-0.397-3.922,2.004-7.11,1.778c18.542-12.279,44.472-26.632,69.333-26.667c-17.567,5.544-35.543,10.679-49.778,19.556
			c10.099,0.209,29.075-6.269,35.556,1.777c-9.661,12.013-16.485-2.902-24.889,7.109c7.946,0.121,2.265,4.064,5.333,7.111
			c4.102-1.071,13.517-0.548,16,0c-3.714,2.805-11.805,1.23-16,3.557c-7.822,9.954-7.071,28.482-21.333,32
			C340.741,355.557,340.148,355.557,339.556,355.557z M343.111,316.443c4.824-1.102,14.107,2.258,16-1.776
			C352.69,313.604,347.249,311.727,343.111,316.443z M346.667,328.889c3.793,1.03,9.683,6.118,10.667,0
			c-3.625-0.521-3.486-4.81-7.111-5.332C349.796,326.093,347.294,326.555,346.667,328.889z M309.333,337.777
			c1.375-1.793,8.522-6.607,3.555-8.891C311.407,330.574,303.499,334.629,309.333,337.777z M346.667,350.223
			c0.272-5.652,4.031-7.82,3.556-14.223c-4.449,2.268-5.564-0.904-7.11,1.777C348.203,338.02,341.575,349.98,346.667,350.223z
			 M295.111,355.557c6.366,3.176,19.833,0.278,21.333-7.111C304.417,352.357,301.579,345.202,295.111,355.557z"/>
		<path fill="#2E2020" d="M190.222,254.222c8.438,1.167-5.323,6.554-5.333,10.667c23.195-0.883,41.577,4.849,69.333,3.556
			c1.778,0,3.556,0,5.333,0c9.508-2.165,16.996,4.377,23.111,0c-0.287-2.083-3.241-1.5-5.333-1.778
			c0.222-3.926,7.541-0.755,10.667-1.778c0.593,0,1.185,0,1.778,0c33.187-0.269,69.369,4.854,90.667,10.667
			c-15.229,2.076-46.301-2.505-60.444-1.778c3.059,0.095,4.557-1.369,5.333-3.556c-12.471-1.674-28.998-5.962-39.111,0
			c3.878-0.323,5.656,1.455,5.333,5.333c-45.658-4.494-86.58,0.4-120.889-7.111c5.106-5.561,14.934-6.399,17.778-14.222
			C189.037,254.222,189.629,254.222,190.222,254.222z"/>
		<path fill="#8E6A6C" d="M190.222,254.222c15.239-10.835,30.335-21.813,48-30.222c-15.663,13.967-36.424,22.834-49.778,39.111
			c21.976-1.156,28.316,2.419,48,3.555c2.371,0,4.741,0,7.111,0c3.125,1.023,10.445-2.148,10.667,1.778
			c-27.756,1.293-46.139-4.438-69.333-3.556C184.899,260.776,198.66,255.389,190.222,254.222z"/>
		<path fill="#B2ABAC" d="M574.223,234.667c16.134,3.196,28.852,0.148,44.444,0c-1.679-17.877-24.87-14.241-39.111-19.555
			c19.226,0.924,37.545,2.751,40.891,19.555c-14.46,4.641-29.5,3.764-46.224,1.778C574.223,235.852,574.223,235.259,574.223,234.667
			z"/>
		<path fill="#8E6A6C" d="M542.223,200.889C535.766,205.753,516.906,198.833,542.223,200.889L542.223,200.889z"/>
		<path fill="#2E2020" d="M643.556,272c-41.067,5.387-111.709,11.761-154.667,19.556c-5.657,1.026-15.255,5.097-21.333,3.556
			c-30.903-7.838,0.271-43.173,12.444-60.445c12.164-17.258,21.969-28.281,33.777-37.333
			c44.515-34.124,124.242,20.603,154.667,37.333c0.593,0,1.186,0,1.776,0c8.923,5.593,4.706,23.063,0,30.222
			C664.151,274,656.76,270.866,643.556,272z M570.667,218.667c0.981,5.537,1.451,11.585,3.556,16c0,0.593,0,1.186,0,1.778
			c10.107,11.226,41.275,1.391,55.11,8.889c-7.058,1.238-19.691-3.1-21.333,3.555c9.781,8.507,7.395,15.207,28.444,12.445
			c0.393-13.985-4.884-32.789-14.224-46.222c-18.793-6.689-35.903-15.059-58.667-17.778
			C564.749,205.621,568.761,211.091,570.667,218.667z M542.223,200.889C516.906,198.833,535.766,205.753,542.223,200.889
			L542.223,200.889z M535.111,238.222c1.399,10.309,27.188,5.167,17.775-5.333c-0.673,8.554-11.508-15.575-3.556-16
			c4.026,29.628,4.005-7.107-5.333-12.444c-0.829,4.553,6.287,10.078,1.777,12.444c-0.784-5.141-3.748-8.104-8.891-8.889
			c-1.091,2.464-6.844,0.268-7.109,3.556c-4.74,0-9.481,0-14.224,0c-9.081-3.027-20.398,8.237-12.442,10.667
			c0.593,0,1.185,0,1.775,0c0,0.593,0,1.185,0,1.778c15.82-3.213,17.313,15.897,21.334,14.222
			C529.186,238.222,532.148,238.222,535.111,238.222z M659.556,248.889c3.333,4.679-4.652,5.988,1.777,10.667
			c7.548-1.342,7.924-9.854,10.667-16c-8.677-9.101-21.099-14.457-32-21.333C642.13,235.5,652.309,240.729,659.556,248.889z
			 M549.333,248.889C525.604,246.832,532.329,254.133,549.333,248.889L549.333,248.889z M488.889,277.333
			c13.787,3.991,34.85,0.708,51.558,1.778c0.178-7.289,0.35-14.572-1.777-19.556C526.696,256.973,482.843,246.995,488.889,277.333z"
			/>
		<path fill="#8E6A6C" d="M503.111,222.222c-7.956-2.43,3.361-13.693,12.442-10.667c0,0.592,0,1.185,0,1.778
			C507.104,211.738,499.688,217.501,503.111,222.222z"/>
		<path fill="#8E6A6C" d="M504.889,222.222c2.963,0,5.928,0,8.891,0c4.775,4.704,11.513,7.45,12.443,16
			c-4.021,1.675-5.514-17.436-21.334-14.222C504.889,223.407,504.889,222.815,504.889,222.222z"/>
		<path fill="#8E6A6C" d="M535.111,238.222c2.36,3.593,11.889,5.367,16,1.778c-5.722-1.984-0.712-14.695-7.111-16
			c1.469-5.025-2.506-4.605-1.777-8.889c-0.939-1.43-1.854-2.886-1.776-5.333c-5.438-1.29-5.229,3.067-10.667,1.778
			c0.268-3.288,6.021-1.091,7.109-3.556c5.143,0.785,8.104,3.748,8.891,8.889c4.51-2.366-2.606-7.891-1.777-12.444
			c9.338,5.337,9.359,42.072,5.333,12.444c-7.952,0.425,2.883,24.554,3.556,16C562.299,243.389,536.513,248.531,535.111,238.222z"/>
		<path fill="#B2ABAC" d="M280.889,263.111c-8.203,4.521-15.403,0.594-21.333,5.333c-1.778,0-3.556,0-5.333,0
			c-0.222-3.926-7.541-0.755-10.667-1.778C257.415,265.92,269.418,261.895,280.889,263.111z"/>
		<path fill="#B2ABAC" d="M529.777,211.556c5.438,1.29,5.229-3.067,10.667-1.778c-0.077,2.447,0.837,3.903,1.776,5.333
			c-3.916-5.387-15.878,0.021-26.667-1.778c0-0.593,0-1.186,0-1.778C520.296,211.556,525.037,211.556,529.777,211.556z"/>
		<path fill="#B2ABAC" d="M544,224c6.399,1.305,1.392,14.016,7.111,16c-4.111,3.589-13.64,1.815-16-1.778c-2.963,0-5.928,0-8.891,0
			c-0.933-8.55-7.668-11.296-12.443-16c8.841,0.641,10.571,8.391,14.223,14.222c9.512,0.583,12.962-0.847,16,3.556
			C550.344,238.844,544.065,229.429,544,224z"/>
		<path fill="#B2ABAC" d="M432,229.333c25.791-0.752,18.405,20.433,3.556,26.667C428.445,253.036,433.537,237.87,432,229.333z
			 M435.556,231.111c-2.429,4.167-3.322,19.091,0,23.111c4.729-3.568,8.876-7.716,12.444-12.444
			C446.85,235.224,441.917,232.454,435.556,231.111z"/>
		<path fill="#B2ABAC" d="M398.222,256c-4.888,5.606-9.297,1.124-17.777,1.778c0-2.371,0-4.741,0-7.111
			C387.465,245.384,393.919,252.959,398.222,256z M382.222,254.222c1.234,1.392,9.919,3.957,10.667,0
			C390.566,251.723,383.479,247.832,382.222,254.222z"/>
		<path fill="#8E6A6C" d="M574.223,236.444c16.724,1.986,31.764,2.863,46.224-1.778c-3.345-16.804-21.665-18.631-40.891-19.555
			c-3.386-3.332-4.467-0.195-8.889,0c0,1.185,0,2.37,0,3.555c-1.906-7.576-5.918-13.045-7.111-21.333
			c22.764,2.719,39.874,11.089,58.667,17.778c9.342,13.433,14.614,32.237,14.224,46.222c-21.052,2.762-18.663-3.938-28.444-12.445
			c1.643-6.655,14.275-2.317,21.333-3.555C615.498,237.835,584.33,247.67,574.223,236.444z"/>
		<path fill="#8E6A6C" d="M259.556,268.444c5.93-4.739,13.13-0.812,21.333-5.333c2.815,0.148,6.781-0.855,7.111,1.777
			c-3.125,1.023-10.445-2.148-10.667,1.778c2.092,0.278,5.046-0.306,5.333,1.778C276.551,272.821,269.063,266.28,259.556,268.444z"
			/>
		<path fill="#841F29" d="M190.222,328.889c25.045-15.476,78.959-10.81,112-12.443c3.702,16.408-6.048,16.766-14.222,28.443
			C288.008,329.986,205.28,341.229,190.222,328.889z"/>
		<path fill="#841F29" d="M272,355.557c3.878,0.321,5.656-1.455,5.333-5.334c-60.203,4.229-118.986-1.514-168.889-5.334
			c-0.078,3.041,1.321,4.604,3.556,5.334c0.338,1.439,1.784,1.771,1.778,3.557c-8.058-3.521,0.073,4.794,3.556,5.334
			c-7.075,1.148-7.147-4.705-14.222-3.557c0-5.334,0-10.668,0-16c21.069,4.191,47.372,0.6,64-5.334
			c18.163,29.537,79.752,6.059,119.111,12.444c-4.316,4.571-9.379,8.397-14.222,12.444c0-0.594,0-1.188,0-1.778
			C272,356.741,272,356.148,272,355.557z"/>
		<path fill="#841F29" d="M270.222,359.111c-2.382,8.547,15.908-1.131,24.889,1.775c-22.991,11.975-63.077,6.852-92.445,12.444
			c-3.896-1.753,7.381-3.118,10.667-3.556c-0.222-3.928-7.542-0.756-10.667-1.777C223.782,363.634,252.167,366.537,270.222,359.111z
			"/>
		<path fill="#8E6A6C" d="M343.111,337.777c1.546-2.684,2.661,0.488,7.11-1.777c0.476,6.4-3.284,8.568-3.556,14.223
			C341.575,349.98,348.203,338.02,343.111,337.777z"/>
		<path fill="#8E6A6C" d="M448,423.111c-0.917-6.787-2.084-13.324-7.111-16c-2.111,5.59-6.001,9.404-7.109,16
			c3.95,4.113,6.933-0.604,12.443,0c-6.321,5.842-13.363-0.085-17.776,7.109c-5.581,0.84-4.696-4.785-8.891-5.334
			c0.94,1.432,1.854,2.889,1.777,5.334c-4.052,0.496-6.683-0.429-7.11-3.556c-2.089,5.021-8.325,5.895-14.223,7.11
			c-1.419-3.321-2.97-6.513-3.556-10.666c-6.981,2.5-2.104,16.857-3.557,24.889c5.625,0.291,5.942-4.725,12.444-3.556
			c-1.303,1.658-3.232,2.691-5.333,3.556c-0.399,6.325,1.199,10.653,5.333,12.444c1.397-6.308,9.175-6.232,8.89-14.224
			c-1.583-1.381-4.015-1.912-7.109-1.776c13.554-6.166,5.986,12.515,3.556,19.556c-9.51,0.027-9.521-9.442-16-12.444
			c3.771,14.008,12.208,23.35,24.889,28.444c-21.529-5.136-29.375-23.959-28.442-51.556c-1.26-6.595,3.037-7.63,1.776-14.224
			c13.795-45.753,82.523-22.101,65.778,30.224c0-1.188,0-2.37,0-3.558c-3.812-1.368-12.574,7.521-10.667,17.778
			c-5.992-0.526-5.155-7.882-10.667-8.89c0-0.594,0-1.187,0-1.777c3.146,1.598,5.19,4.291,8.89,5.333
			c-0.674-7.784,5.081-9.142,5.334-16c-3.557,0-7.11,0-10.668,0c4.532-2.934,11.923-3.001,16-1.777
			c5.854-9.467-1.186-21.289-8.889-23.109C445.387,418.056,456.161,423.048,448,423.111z M416,407.111
			c-5.006-1.797,0.491-7.553,0-10.667c-7.496-4.523-8.992,2.801-14.223,5.333c4.22,8.226,8.176,16.714,14.223,23.109
			c3.63-9.502,7.982,0.061,17.777-5.333c1.364-9.301,7.945-13.386,10.667-21.333c-2.782-8.688-16.773-8.688-19.558,0
			c10.573-0.354,3.063,20.1-3.556,19.557c-3.511-1.229-4.739-4.741-5.333-8.891c2.464,0.704,5.037,10.094,7.111,5.334
			c-5.935-5.478,7.932-6.188,5.333-14.223c-4.283,0.728-3.864-3.247-8.891-1.777C418.798,401.613,414.477,401.439,416,407.111z
			 M407.111,414.223c-8.669-0.373-7.15,9.442-7.111,17.777C414.416,431.448,412.029,423.627,407.111,414.223z"/>
		<path fill="#8E6A6C" d="M430.223,480c10.209-3.421,15.169-12.09,23.11-17.777C448.092,470.61,442.384,478.532,430.223,480z"/>
		<path fill="#8E6A6C" d="M272,355.557c0,0.594,0,1.187,0,1.776c-35.909,2.61-72.885,4.151-112,3.556c0-0.593,0-1.185,0-1.775
			c3.683-1.059,11.679,2.195,12.444-1.778C207.525,358.636,237.989,355.322,272,355.557z"/>
		<path fill="#8E6A6C" d="M688,448c-21.816-8.477-19.572-59.123-7.111-76.443c17.367-7.052,23.483,10.281,24.891,24.89
			c-3.832-1.501-1.5-9.167-5.333-10.667c-0.552,6.476,0.28,11.567,1.776,16c-12.498,1.049-17.718,6.539-28.443,0
			c0,4.739,0,9.479,0,14.223c5.841-0.085,8.736-3.114,10.667-7.111c6.753,0.667,9.807,4.02,21.333,3.558c0-4.74,0-9.481,0-14.224
			c2.946,3.065,2.946,18.269,0,21.333c-0.532-8.146-7.825,2.693-5.333,8.891c-5.591,0.256-6.107-4.562-7.111-8.891
			c1.438,0.339,1.771,1.783,3.556,1.777c0.926-2.63,2.631-4.479,3.558-7.11c-4.054-0.496-6.685,0.43-7.111,3.557
			c-1.43-0.94-2.886-1.854-5.333-1.777c0.014,10.652,7.226,14.108,7.111,24.889c-5.475-1.322-3.417,4.882-8.891,3.558
			c-2.048-2.103-2.013-6.284-1.776-10.667c0.593,0,1.186,0,1.776,0c0,2.371,0,4.741,0,7.109c6.89,0.283,6.33-10.67,1.777-12.442
			c0.327,1.512-0.693,1.677-1.777,1.776c1.264-6.781,1.183-8.562-1.776-14.223c-3.47,4.236-1.442,13.965-7.111,16
			C678.768,439.454,683.236,443.875,688,448z M677.333,389.333c6.113-5.417,3.474,13.042,14.223,8.89
			c3.461-8.1,15.891-21.592,0-24.89c-2.722,4.8,2.063,17.33-5.333,21.334c-5.388-7.3,3.011-23.259-1.776-23.11
			C681.613,375.902,674.73,385.454,677.333,389.333z M693.333,401.777c7.955,3.133,6.394-9.407,1.778-8.891
			C695.839,397.172,691.864,396.753,693.333,401.777z M679.111,403.556c-1.06-3.684,2.195-11.679-1.778-12.442
			C674.908,393.509,673.944,403.522,679.111,403.556z M675.556,428.444c4.349,0.644,7.658-14.18,1.777-12.444
			C676.767,420.174,674.524,422.673,675.556,428.444z"/>
		<path fill="#8E6A6C" d="M704,430.223c-2.258,7.816-4.224,15.926-12.444,17.777C697.436,443.806,699.813,436.109,704,430.223z"/>
		<path fill="#B2ABAC" d="M684.444,371.557c4.786-0.146-3.609,15.813,1.776,23.11c7.396-4.004,2.611-16.534,5.333-21.334
			c15.891,3.298,3.461,16.79,0,24.89c-10.749,4.152-8.107-14.307-14.223-8.89C674.73,385.454,681.613,375.902,684.444,371.557z"/>
		<path fill="#2E2020" d="M416,407.111c-1.523-5.672,2.798-5.498,3.556-8.891c5.024-1.47,4.605,2.505,8.891,1.777
			c2.599,8.034-11.268,8.745-5.333,14.223c-2.074,4.761-4.647-4.63-7.111-5.334C416,408.296,416,407.704,416,407.111z"/>
		<path fill="#B2ABAC" d="M405.333,444.444c-6.502-1.169-6.819,3.847-12.444,3.556c1.452-8.029-3.426-22.389,3.557-24.889
			c0.585,4.153,2.137,7.345,3.556,10.666c5.896-1.218,12.134-2.088,14.223-7.11c0.43,3.127,3.061,4.052,7.11,3.556
			c0.077-2.445-0.837-3.902-1.777-5.334c4.192,0.549,3.31,6.174,8.891,5.334c4.413-7.194,11.455-1.27,17.776-7.109
			c0.594,0,1.187,0,1.777,0c8.161-0.063-2.613-5.058,0-10.667c7.703,1.82,14.741,13.645,8.889,23.109
			c-4.079-1.224-11.468-1.153-16,1.777c-0.593,0-1.185,0-1.775,0c-4.78,1.225-3.438-3.675-5.334-5.333
			c-6.402,3.693-8.979,3.135-17.777,1.777c-1.583,0.788-3.18,1.562-3.556,3.556c-0.256,7.146,4.56,4.703,8.889,3.556
			c-5.112,6.813,5.553,7.793,1.778,12.444c0.232,4.383,0.269,8.565-1.778,10.667c-0.592,0-1.185,0-1.777,0
			c1.06,3.683-2.195,11.679,1.777,12.444c-1.225-5.914,3.676-2.864,5.334-1.777c0.592,0,1.186,0,1.777,0
			c1.729-0.049,1.38-2.177,1.776-3.556c5.438-1.29,5.229,3.065,10.666,1.775c-2.141-13.266-14.64-16.175-14.222-32
			c3.313-1.699,5.941,5.324,7.11,0c2.562,0.402,0.62,5.309,3.556,5.334c0,0.594,0,1.187,0,1.777s0,1.186,0,1.777
			c5.512,1.008,4.675,8.361,10.667,8.89c-1.907-10.258,6.855-19.146,10.667-17.778c0,1.188,0,2.37,0,3.558
			c0.408,8.11-2.991,12.417-5.334,17.776c-7.941,5.688-12.901,14.356-23.11,17.777c-2.271,2.432-8.395,2.432-10.667,0
			c-12.682-5.097-21.117-14.437-24.889-28.444c6.48,3.002,6.491,12.474,16,12.444c2.433-7.041,9.998-25.722-3.556-19.556
			C406.519,444.444,405.926,444.444,405.333,444.444z"/>
		<path fill="#8E6A6C" d="M83.556,424.889c-2.672-2.882-2.672-13.116,0-16C92.436,408.515,93.419,425.741,83.556,424.889z"/>
		<path fill="#8E6A6C" d="M273.778,423.111c0-1.778,0-3.558,0-5.334c4.123-0.566,6.825,0.284,8.889,1.776
			C280.381,420.452,278.991,421.435,273.778,423.111z"/>
		<path fill="#841F29" d="M592,424.889c-21.417,3.475-43.447,6.331-67.556,7.111C545.697,428.364,567.729,425.506,592,424.889z"/>
		<path fill="#8E6A6C" d="M439.111,437.333c-1.492,2.063-2.347,4.767-1.778,8.89c-2.938-0.025-0.994-4.932-3.556-5.334
			c-1.169,5.324-3.802-1.698-7.11,0c-0.418,15.825,12.081,18.734,14.222,32c-5.438,1.29-5.229-3.065-10.666-1.775
			c-0.396,1.379-0.049,3.507-1.776,3.556c4.767-7.854,8.488-19.874-5.333-21.334c3.772-4.651-6.893-5.632-1.778-12.444
			c-4.329,1.147-9.146,3.592-8.889-3.556c0.376-1.994,1.973-2.768,3.556-3.556c8.798,1.355,11.375,1.916,17.777-1.777
			C435.675,433.658,434.331,438.558,439.111,437.333z"/>
		<path fill="#8E6A6C" d="M478.223,320c-0.8,5.593-12.255,6.411-16,3.557C464.207,320.105,476.237,317.561,478.223,320z"/>
		<path fill="#8E6A6C" d="M112,350.223c18.473,1.676,36.163,4.135,53.333,7.11c-3.125,1.022-10.445-2.147-10.667,1.778
			c-14.836-0.571-26.224-4.592-40.889-5.334C113.784,351.994,112.338,351.662,112,350.223z"/>
		<path fill="#2E2020" d="M167.111,368c-18.462-1.094-34.064-5.047-49.778-8.889c-3.483-0.541-11.614-8.854-3.556-5.334
			c14.665,0.742,26.053,4.763,40.889,5.334c1.778,0,3.556,0,5.333,0c0,0.593,0,1.185,0,1.775c39.115,0.598,76.091-0.943,112-3.556
			c0,0.593,0,1.187,0,1.778c-0.593,0-1.185,0-1.778,0c-18.055,7.426-46.44,4.521-67.556,8.889c-2.963,0-5.926,0-8.889,0
			C184.889,368,176,368,167.111,368z"/>
		<path fill="#B2ABAC" d="M705.777,419.556c0.233,4.385,0.27,8.565-1.777,10.667c-4.188,5.889-6.564,13.583-12.444,17.777
			c-1.186,0-2.37,0-3.556,0c-4.764-4.125-9.232-8.546-10.667-16c5.669-2.035,3.644-11.764,7.111-16
			c2.959,5.661,3.04,7.439,1.776,14.223c0,1.187,0,2.37,0,3.557c-0.593,0-1.186,0-1.776,0c-0.234,4.383-0.271,8.564,1.776,10.667
			c5.474,1.322,3.416-4.88,8.891-3.558c0.112-10.778-7.1-14.234-7.111-24.889c2.447-0.077,3.903,0.837,5.333,1.777
			c0,0.593,0,1.186,0,1.776c1.004,4.329,1.522,9.146,7.111,8.891C697.952,422.249,705.245,411.408,705.777,419.556z"/>
		<path fill="#2E2020" d="M657.777,464c-14.945-1.054-8.837-23.163-24.891-23.111c0-0.593,0-1.185,0-1.775
			c-6.636-3.438-15.773-4.373-26.666-3.558c-8.882,0.603-18.135,0.828-24.89,3.558c-17.985,2.754-37.19,4.29-56.889,5.333
			c-5.362,2.342-15.229,0.179-19.558,3.556c-13.546-0.509-23.97,2.104-35.556,3.556c-0.34,10.919-6.993,15.524-8.89,24.891
			c-6.743,10.438-16.481,17.888-30.223,21.333c-11.26,0-22.519,0-33.777,0c-3.5-2.429-10.154-1.696-14.223-3.557
			c-9.862-4.951-14.773-14.854-23.111-21.334c-14.369,1.332-23.957-2.114-37.332-1.775c0-2.371,0-4.741,0-7.111
			c-9.509,1.158-23.667-2.334-30.223,1.777c-1.778,0-3.556,0-5.333,0c-9.481,0-18.963,0-28.444,0
			c-1.582-1.381-4.015-1.911-7.111-1.777c-13.037,0-26.074,0-39.111,0c-22.047-8.789-27.139,14.179-42.667,17.777
			c-39.34,3.19-70.437-1.858-78.222-30.224c-8.275,0.571-11.863-3.544-19.555-3.556c0-1.186,0-2.37,0-3.556
			c13.354-11.391,49.85,0.166,85.333,1.776c76.94,3.494,165.514,0.722,229.333-3.556c1.265-5.254,0.488-12.549,5.333-14.223
			c-0.931,27.597,6.915,46.42,28.443,51.556c2.272,2.432,8.396,2.432,10.667,0c12.161-1.468,17.869-9.39,23.11-17.777
			c2.343-5.359,5.742-9.666,5.334-17.776c16.745-52.322-51.983-75.976-65.778-30.224c6.636-29.875,23.752-73.023,56.89-60.443
			c23.956,9.095,24.661,48.827,24.89,80c4.474,5.139,28.362,2.313,39.11,0c11.164-2.404,7.543-0.486-5.333-1.777
			c-7.552,0.354-23.432,6.612-26.667,0c7.019-11.133,27.692-12.011,44.443-14.223c14.84-1.959,32.693-1.074,48-3.557
			c11.908-1.931,14.354-2.52,26.666-1.776c18.147,1.093,37.015-2.315,49.778,3.556c-2.211,3.804-18.746,2.47-16,5.333
			c10.53,1.702,18.85-4.544,21.333,3.556c11.339-21.796,11.964-87.539,44.444-81.775c13.07,2.316,13.333,17.635,17.776,32
			c0.197,17.383-0.801,33.567-7.109,44.442c0.04,4.188-3.063,5.234-1.778,10.667c-1.381,1.582-1.911,4.017-1.777,7.11
			C703.543,458.802,687.742,468.483,657.777,464z M705.777,396.444c-1.405-14.606-7.521-31.939-24.891-24.89
			C668.428,388.877,666.184,439.523,688,448c1.186,0,2.37,0,3.556,0c8.223-1.854,10.188-9.961,12.444-17.777
			c2.047-2.102,2.013-6.282,1.777-10.667c2.946-3.064,2.946-18.268,0-21.333C705.777,397.63,705.777,397.037,705.777,396.444z
			 M524.444,432c24.106-0.78,46.139-3.639,67.556-7.111C567.729,425.506,545.697,428.364,524.444,432z"/>
		<path fill="#B2ABAC" d="M211.556,464c13.037,0,26.074,0,39.111,0C241.742,466.958,220.48,466.958,211.556,464z"/>
		<path fill="#B2ABAC" d="M257.778,465.777c9.481,0,18.963,0,28.444,0C280.826,468.731,263.174,468.731,257.778,465.777z"/>
		<path fill="#2E2020" d="M327.111,435.556c-21.998,2.893-44.677,4.813-69.333,3.558c-63.621-3.245-136.421,3.129-186.667-14.225
			c-0.13-7.549-2.843-16.666,3.555-21.333c33.826,2.289,71.188,3.617,110.222,5.333c38.362,1.688,86.678-4.375,106.667,12.444
			C303.347,416.706,327.574,424.028,327.111,435.556z M83.556,408.889c-2.672,2.884-2.672,13.118,0,16
			C93.419,425.741,92.436,408.515,83.556,408.889z M282.667,419.556c-2.063-1.49-4.766-2.345-8.889-1.776c0,1.776,0,3.556,0,5.334
			C278.991,421.435,280.381,420.452,282.667,419.556z"/>
		<path fill="#841F29" d="M538.667,259.556c2.127,4.983,1.955,12.267,1.777,19.556c-16.708-1.07-37.771,2.213-51.558-1.778
			C482.843,246.995,526.696,256.973,538.667,259.556z M522.667,268.444c-6.444,2.758-33.879,1.817-21.334,3.556
			c7.797,1.081,23.015,2.158,32-3.556C529.777,268.444,526.223,268.444,522.667,268.444z"/>
	</g>
</g>
</svg>
