<?xml version="1.0" encoding="utf-8"?>
<!-- Generator: Adobe Illustrator 15.1.0, SVG Export Plug-In . SVG Version: 6.00 Build 0)  -->
<!DOCTYPE svg PUBLIC "-//W3C//DTD SVG 1.1//EN" "http://www.w3.org/Graphics/SVG/1.1/DTD/svg11.dtd">
<svg version="1.1" id="Layer_1" xmlns="http://www.w3.org/2000/svg" xmlns:xlink="http://www.w3.org/1999/xlink" x="0px" y="0px"
	 width="228px" height="416.95px" viewBox="0 0 228 416.95" enable-background="new 0 0 228 416.95" xml:space="preserve">
<g>
	<path fill-rule="evenodd" clip-rule="evenodd" fill="#584D2A" d="M162,154c2.826,0.826,2.591-1.409,5-1
		c0.003,3.336-3.253,3.414-3,7c-3.701,0.701-2.494-3.506-4-5C160.776,154.776,161.973,154.973,162,154z"/>
	<path fill-rule="evenodd" clip-rule="evenodd" fill="#584D2A" d="M163,169c1.497-1.132,4.174-1.338,5,1c0,0.333,0,0.667,0,1
		c-1.427,0.39-1.687,1.2-3,0C163.878,170.789,163.443,169.89,163,169z"/>
	<path fill-rule="evenodd" clip-rule="evenodd" fill="#7787A8" d="M150,209c0-7,0-14,0-21C151.663,192.688,151.663,204.312,150,209z
		"/>
	<path fill-rule="evenodd" clip-rule="evenodd" fill="#7787A8" d="M160,214c2.318,4.682,0.345,13.655,1,20
		C158.682,229.318,160.655,220.345,160,214z"/>
	<path fill-rule="evenodd" clip-rule="evenodd" fill="#7787A8" d="M149,252c1.655,1.078,1.655,8.922,0,10
		C149,258.667,149,255.333,149,252z"/>
	<path fill-rule="evenodd" clip-rule="evenodd" fill="#584D2A" d="M203,57c1.188-3.145,3.376-5.291,4-9c1.122,0.102,1.557-1.454,2,0
		C206.278,49.646,205.445,58.399,203,57z"/>
	<path fill-rule="evenodd" clip-rule="evenodd" fill="#584D2A" d="M209,45c5.511-13.737,14.32-25.11,19-42
		c1.003,0.003,1.19-0.81,2-1C224.47,17.138,216.31,34.974,209,45z"/>
	<path fill-rule="evenodd" clip-rule="evenodd" fill="#584D2A" d="M225,2c-5.529,10.509-11.292,18.094-17,30
		C210.237,23.228,219.635,7.644,225,2z"/>
	<path fill-rule="evenodd" clip-rule="evenodd" fill="#8C8061" d="M149,160c2.675-2.576,1.775-3.475-3-3
		c0.431-2.236,4.929-0.405,7-1C152.097,157.763,150.763,159.097,149,160z"/>
	<path fill-rule="evenodd" clip-rule="evenodd" fill="#584D2A" d="M156,148c0.3-1.177,5.295-2.51,2-4c1.672-1.662,4.049-2.618,4-6
		c2.399,2.466-2.976,5.641-3,9C157.491,150.411,157.938,151.72,156,148z"/>
	<path fill-rule="evenodd" clip-rule="evenodd" fill="#584D2A" d="M160,165c-2.024-1.643-3.989-3.344-4-7
		c2.999,2.001,6.736,3.264,9,6c-1.321,0.012-0.914,1.752-2,2C161.567,165.129,158.143,160.621,160,165z"/>
	<path fill-rule="evenodd" clip-rule="evenodd" fill="#584D2A" d="M140.334,424.5"/>
	<path fill-rule="evenodd" clip-rule="evenodd" fill="#8C8061" d="M140.334,424.5"/>
	<path fill-rule="evenodd" clip-rule="evenodd" fill="#584D2A" d="M156,157c-0.027-0.973-1.224-0.776-2-1
		c-0.282-1.615,0.945-1.722,1-3c3.845-3.073-0.666,5.478,4,2c-0.003,1.003,0.81,1.19,1,2C157.271,156.91,157.987,158.666,156,157z"
		/>
	<path fill-rule="evenodd" clip-rule="evenodd" fill="#8C8061" d="M126,162c-3.675,0.658-6.724,1.943-11,2
		c-1.161,0.839-2.681,1.319-5,1c-0.715,2.715,4.715-0.715,4,2c-3.623,2.898-14.775-0.501-17,1c0.27-3.375,15.628-5.972,24-7
		C122.34,160.835,126.008,160.321,126,162z"/>
	<path fill-rule="evenodd" clip-rule="evenodd" fill="#9BA9B9" d="M149.094,416.95c4.072-0.291,8.146-0.413,12.156-0.429
		c0.589-0.002,1.18-0.002,1.771,0C163.364,356.866,161.867,309.314,161,252v-18c-2.318-4.682-0.345-13.655-1-20v-4
		c-1.534-8.822-4.379-16.705-8-24c-1.701-0.368-1.887,0.78-2,2c1.663,4.688,1.663,16.312,0,21c0.145,10.889,0.365,30.308-1,43
		c1.655,1.078,1.655,8.922,0,10c1.283,1.313,1.283,3.687,0,5C150.665,323.177,150.175,369.502,149.094,416.95z"/>
	<path fill-rule="evenodd" clip-rule="evenodd" fill="#9BA9B9" d="M225,2c1.428-0.239,1.687-1.646,3-2c0,1,0,2,0,3
		c-4.68,16.89-13.489,28.263-19,42c-1.405,0.261-1.14,2.193-2,3c-0.624,3.709-2.812,5.855-4,9c-2.685,2.489-1.486,2.376,0,3
		c-2.057,2.667-3.7,0.139-2,5c-3.092-1.076-6.747,6.376-3,6c-11.318,15.259-23.19,41.416-31,60c0,0.333,0,0.667,0,1
		c-1.003,0.003-1.19-0.81-2-1c-0.83,2.503-2.739,3.927-3,7c0.049,3.382-2.328,4.338-4,6c3.295,1.49-1.7,2.823-2,4
		c0.319,2.319-0.161,3.839-1,5c-0.055,1.278-1.282,1.385-1,3c0.776,0.224,1.973,0.027,2,1c0,0.333,0,0.667,0,1
		c0.011,3.656,1.976,5.357,4,7c-0.17,2.503,1.536,3.13,3,4c0.443,0.89,0.878,1.789,2,2c4.273,4.491,5.295,6.506,9,12
		c0.057,0.61,0.149,1.184,1,1c4.248,9.085,9.229,17.437,13,27c0.057,0.61,0.149,1.184,1,1c0.507,3.159,2.943,4.39,3,8
		c12.146,24.188,23.132,49.535,35,74c0,0.667,0,1.333,0,2c-3.14,0.473-2.642-2.691-5-3c-4.852-6.585-8.813-15.366-14-24
		c-0.211-1.122-1.109-1.557-2-2c0.154-2.487-1.571-3.096-2-5c-0.057-0.61-0.149-1.184-1-1c-13.487-23.847-26.509-48.158-41-71
		c0.409-2.409-1.826-2.174-1-5c-5.819-9.738-12.08-20.916-12-25c1.763-0.903,3.097-2.237,4-4c-2.071,0.595-6.569-1.236-7,1
		c-1.086-0.248-0.679-1.988-2-2c-3.039,1.498-0.552,3.008-2,5c-4.465-1.068-10.884,0.114-16,2c0.008-1.679-3.66-1.165-5-1
		c-8.372,1.028-23.73,3.625-24,7c2.225-1.501,13.377,1.898,17-1c2,0,4,0,6,0c0.667,0,1.333,0,2,0c1.229,3.261-10.578,2.063-13,5
		c-1.667,0-3.333,0-5,0c-14.149,1.099-27.013-0.148-40,3c-8.276-0.609-14.559,0.774-22,1c-14.446-0.209-26.606,3.349-42,1
		c1.467-3.2,7.207-2.126,10-4c3.469,0.802,3.844-1.489,7-1c1.453-0.547,5.168,1.168,5-1c4.798-0.202,8.462-1.538,13-2
		c1.453-0.547,5.168,1.168,5-1c33.851-4.149,64.29-11.71,100-14c3.471-2.862,7.447-5.219,11-8c9.229-28.734,23.98-51.235,34-75
		c0-0.333,0-0.667,0-1c0.333,0,0.667,0,1,0c8.711-10.341,13.916-27.387,22-38C213.708,20.094,219.471,12.509,225,2z"/>
	<path fill-rule="evenodd" clip-rule="evenodd" fill="#584D2A" d="M126,162c5.116-1.886,11.535-3.068,16-2
		c1.448-1.992-1.039-3.502,2-5c1.321,0.012,0.914,1.752,2,2c4.775-0.475,5.675,0.424,3,3c-0.08,4.084,6.181,15.262,12,25
		c-0.333,0-0.667,0-1,0c0,1.667,0,3.333,0,5c-1.721-0.054-2.563,0.77-3,2c1,0,2,0,3,0c0,0.333,0,0.667,0,1
		c-0.816,0.883-0.352,8.969,1,11c-0.575,1.758,1.209,5.875-1,6c-1.534-8.822-4.379-16.705-8-24c0-0.333,0-0.667,0-1s0-0.667,0-1
		c-1.009-0.012-1.258-1.752,0-2c0.5,1.043,3.75,5.854,2,3c-0.215-6.288-0.655-6.179-3-4c-0.627-3.04,1.28-8.614-1-10
		c0.792-3.458-1.111-4.222-2-6c-1.044-2.339-7.746-4.187-10-2c-5.441,1.225-10.583,2.75-16,4c-0.667,0-1.333,0-2,0
		c0.174-2.841-6.542,1.208-5-3C119.276,163.943,122.325,162.658,126,162z"/>
</g>
</svg>
